<?xml version="1.0" standalone="no"?>
<!DOCTYPE svg PUBLIC "-//W3C//DTD SVG 1.1//EN" "http://www.w3.org/Graphics/SVG/1.1/DTD/svg11.dtd" >
<svg>
<metadata>
Created by FontForge 20120731 at Mon Oct 10 20:13:46 2016
 By ,,,
Copyright (c) 2014 Indian Type Foundry (info@indiantypefoundry.com)
</metadata>
<defs>
<font id="Khand-Light" horiz-adv-x="206" >
  <font-face 
    font-family="Khand Light"
    font-weight="300"
    font-stretch="normal"
    units-per-em="1000"
    panose-1="2 0 0 0 0 0 0 0 0 0"
    ascent="800"
    descent="-200"
    x-height="565"
    cap-height="668"
    bbox="-403 -587 1742 892"
    underline-thickness="50"
    underline-position="-50"
    unicode-range="U+000D-FB02"
  />
<missing-glyph horiz-adv-x="750" 
d="M178 0v701h394v-701h-394zM235 649v-597h281v597h-281z" />
    <glyph glyph-name="fi" unicode="fi" horiz-adv-x="476" 
d="M403 565v-565h-58v515h-193v-515h-58v515h-57v50h57v31q0 134 166 134q66 0 125 -14v-52q-54 15 -124 15q-59 0 -84 -19.5t-25 -63.5v-31h251z" />
    <glyph glyph-name="fl" unicode="fl" horiz-adv-x="476" 
d="M94 565v31q0 134 163 134q79 0 146 -20v-710h-57v672q-43 8 -88 8q-58 0 -82 -20t-24 -64v-31h107v-50h-107v-515h-58v515h-57v50h57z" />
    <glyph glyph-name=".notdef" horiz-adv-x="750" 
d="M178 0v701h394v-701h-394zM235 649v-597h281v597h-281z" />
    <glyph glyph-name=".null" horiz-adv-x="0" 
 />
    <glyph glyph-name="nonmarkingreturn" horiz-adv-x="333" 
 />
    <glyph glyph-name="NULL" horiz-adv-x="0" 
 />
    <glyph glyph-name="NULL" horiz-adv-x="0" 
 />
    <glyph glyph-name="CR" unicode="&#xd;" horiz-adv-x="0" 
 />
    <glyph glyph-name="space" unicode=" " horiz-adv-x="190" 
 />
    <glyph glyph-name="exclam" unicode="!" horiz-adv-x="234" 
d="M85 668h63l-7 -504h-49zM79 35q0 40 37 40t37 -40t-37 -40t-37 40z" />
    <glyph glyph-name="quotedbl" unicode="&#x22;" horiz-adv-x="324" 
d="M191 739h52v-190h-52v190zM80 739h52v-190h-52v190z" />
    <glyph glyph-name="numbersign" unicode="#" horiz-adv-x="514" 
d="M325 209l34 230h-151l-34 -230h151zM493 439h-84l-34 -230h78v-44h-84l-24 -165h-50l24 165h-151l-24 -165h-50l24 165h-81v44h87l34 230h-81v43h87l24 166h50l-24 -166h151l24 166h50l-24 -166h78v-43z" />
    <glyph glyph-name="dollar" unicode="$" horiz-adv-x="379" 
d="M147 386l117 -65q81 -44 81 -132v-53q0 -123 -141 -139v-75h-52v73q-69 1 -118 19v56q57 -22 130 -22q123 0 123 90v46q0 35 -12 55t-45 37l-116 64q-85 46 -85 138v59q0 57 33.5 92t99.5 42v63h52v-61q66 -3 107 -15v-56q-47 18 -125 18q-109 0 -109 -83v-54
q0 -35 14 -57t46 -40z" />
    <glyph glyph-name="percent" unicode="%" horiz-adv-x="541" 
d="M378 668h46l-260 -668h-46zM196 540q0 92 -56 92t-56 -92t56 -92t56 92zM35 540q0 66 27 102t78 36t78 -36t27 -102t-27 -102t-78 -36t-78 36t-27 102zM456 128q0 92 -55 92q-56 0 -56 -92t56 -92q55 0 55 92zM295 128q0 66 27.5 102t78.5 36t78 -36t27 -102t-27 -102
t-78 -36t-78.5 36t-27.5 102z" />
    <glyph glyph-name="ampersand" unicode="&#x26;" horiz-adv-x="449" 
d="M335 146v171h-126q-98 0 -98 -103v-68q0 -48 29 -76t84 -28t83 28t28 76zM433 369v-52h-41v-172q0 -69 -43 -112t-125 -43q-81 0 -126 43.5t-45 111.5v70q0 97 79 128q-78 29 -78 129v54q0 68 45 107.5t138 39.5q69 0 125 -18v-57q-56 20 -125 20q-70 0 -97.5 -24.5
t-27.5 -68.5v-53q0 -103 95 -103h128v57h57v-57h41z" />
    <glyph glyph-name="quotesingle" unicode="'" horiz-adv-x="211" 
d="M80 739h51v-190h-51v190z" />
    <glyph glyph-name="parenleft" unicode="(" horiz-adv-x="272" 
d="M161 770h51q-43 -102 -67 -221.5t-24 -225.5t24 -226t67 -221h-51q-44 93 -68 215.5t-24 231.5q0 110 24 231.5t68 215.5z" />
    <glyph glyph-name="parenright" unicode=")" horiz-adv-x="272" 
d="M59 770h52q43 -93 67 -215t24 -232t-24 -232.5t-67 -214.5h-52q44 101 68 220.5t24 226.5t-24 226t-68 221z" />
    <glyph glyph-name="asterisk" unicode="*" horiz-adv-x="485" 
d="M423 630l-98 -32q-34 -11 -56 -9q19 -12 39 -39l62 -84l-39 -28l-61 83q-20 26 -26 50q-5 -22 -25 -49l-60 -84l-39 28l60 83q19 27 40 40q-25 -2 -55 8l-98 32l14 46l98 -31q32 -10 50 -26q-9 20 -9 55v103h48v-103q0 -34 -9 -56q15 15 50 26l98 33z" />
    <glyph glyph-name="plus" unicode="+" horiz-adv-x="428" 
d="M387 347v-47h-147v-150h-52v150h-148v47h148v150h52v-150h147z" />
    <glyph glyph-name="comma" unicode="," horiz-adv-x="133" 
d="M45 75h29q31 0 31 -29q0 -35 -65 -171h-35z" />
    <glyph glyph-name="hyphen" unicode="-" horiz-adv-x="214" 
d="M40 347h139v-47h-139v47z" />
    <glyph glyph-name="period" unicode="." horiz-adv-x="135" 
d="M31 35q0 40 36 40q37 0 37 -40t-37 -40q-36 0 -36 40z" />
    <glyph glyph-name="slash" unicode="/" horiz-adv-x="365" 
d="M300 771h50l-268 -895h-51z" />
    <glyph glyph-name="zero" unicode="0" horiz-adv-x="442" 
d="M63 523q0 70 39 112.5t119 42.5t119 -42.5t39 -112.5v-378q0 -70 -39 -112.5t-119 -42.5t-119 42.5t-39 112.5v378zM322 523q0 103 -101 103t-101 -103v-378q0 -103 101 -103t101 103v378z" />
    <glyph glyph-name="one" unicode="1" horiz-adv-x="270" 
d="M125 668h72v-668h-57v614l-130 -94v66z" />
    <glyph glyph-name="two" unicode="2" horiz-adv-x="394" 
d="M55 657q48 16 120 16q170 0 170 -137v-58q-1 -58 -17.5 -91t-61.5 -62l-75 -52q-51 -34 -70 -59.5t-19 -72.5v-87h247v-54h-305v142q0 64 26.5 100t85.5 75l76 52q32 20 43.5 45t11.5 66v54q0 43 -23 64.5t-89 21.5q-65 0 -120 -20v57z" />
    <glyph glyph-name="three" unicode="3" horiz-adv-x="388" 
d="M38 659q46 14 114 14q169 0 169 -140v-69q0 -98 -74 -129q78 -28 78 -125v-74q0 -67 -43 -104t-130 -37q-77 0 -126 18v57q60 -22 126 -22q64 0 89.5 22.5t25.5 66.5v69q0 102 -101 102h-66v53h66q54 0 75.5 26.5t21.5 76.5v68q0 44 -24 66t-87 22q-64 0 -114 -16v55z
" />
    <glyph glyph-name="four" unicode="4" horiz-adv-x="396" 
d="M265 625l-198 -446h198v446zM391 179v-52h-69v-127h-57v127h-255v52l217 489h95v-489h69z" />
    <glyph glyph-name="five" unicode="5" horiz-adv-x="415" 
d="M64 668h280v-53h-222v-228q48 6 87 6q150 0 150 -150v-108q0 -66 -44 -103t-131 -37q-64 0 -124 20v58q67 -25 123 -25q64 0 91 22.5t27 65.5v106q0 49 -21 72.5t-75 23.5q-30 0 -141 -12v342z" />
    <glyph glyph-name="six" unicode="6" horiz-adv-x="428" 
d="M63 520q0 69 42 111t130 42q71 0 122 -17v-55q-54 19 -122 19q-115 0 -115 -101v-129q48 23 111 23q70 0 109 -35.5t39 -104.5v-128q0 -70 -39 -112.5t-119 -42.5t-119 42.5t-39 112.5v375zM322 272q0 89 -94 89q-62 0 -108 -27v-189q0 -103 101 -103t101 103v127z" />
    <glyph glyph-name="seven" unicode="7" horiz-adv-x="319" 
d="M5 668h289v-45l-63 -201q-32 -104 -45.5 -172t-13.5 -152v-98h-59v99q0 86 14 154t47 171l60 192h-229v52z" />
    <glyph glyph-name="eight" unicode="8" horiz-adv-x="452" 
d="M332 141v63q0 103 -106 103t-106 -103v-63q0 -100 106 -100t106 100zM123 527v-66q0 -103 103 -103t103 103v66q0 100 -103 100t-103 -100zM386 527v-65q0 -97 -76 -129q79 -32 79 -130v-62q0 -69 -41 -110t-122 -41t-122 41t-41 110v62q0 98 79 130q-77 32 -77 129v65
q0 69 40 110t121 41t120.5 -41t39.5 -110z" />
    <glyph glyph-name="nine" unicode="9" horiz-adv-x="428" 
d="M48 523q0 70 39.5 112.5t119.5 42.5t119 -42.5t39 -112.5v-378q0 -68 -43.5 -109t-130.5 -41q-68 0 -125 19v56q62 -22 125 -22q117 0 117 99v122q-43 -22 -110 -22q-70 0 -110 38.5t-40 107.5v130zM308 523q0 103 -101 103t-101 -103v-129q0 -94 96 -94q66 0 106 25v198
z" />
    <glyph glyph-name="colon" unicode=":" horiz-adv-x="193" 
d="M31 385q0 40 36 40q37 0 37 -40t-37 -40q-36 0 -36 40zM31 35q0 40 36 40q37 0 37 -40t-37 -40q-36 0 -36 40z" />
    <glyph glyph-name="semicolon" unicode=";" horiz-adv-x="189" 
d="M45 75h29q31 0 31 -29q0 -35 -65 -171h-35zM31 385q0 40 36 40q37 0 37 -40t-37 -40q-36 0 -36 40z" />
    <glyph glyph-name="less" unicode="&#x3c;" horiz-adv-x="451" 
d="M392 494v-52l-306 -119l306 -119v-52l-348 137v67z" />
    <glyph glyph-name="equal" unicode="=" horiz-adv-x="427" 
d="M39 433h348v-46h-348v46zM39 259h348v-47h-348v47z" />
    <glyph glyph-name="greater" unicode="&#x3e;" horiz-adv-x="451" 
d="M58 494l348 -138v-67l-348 -137v52l306 119l-306 119v52z" />
    <glyph glyph-name="question" unicode="?" horiz-adv-x="371" 
d="M36 665q50 13 114 13q172 0 172 -137v-100q0 -149 -152 -153l-5 -124h-50l-4 175h55q99 0 99 102v99q0 43 -24.5 63t-89.5 20q-63 0 -115 -15v57zM103 35q0 40 37 40t37 -40t-37 -40t-37 40z" />
    <glyph glyph-name="at" unicode="@" horiz-adv-x="847" 
d="M508 123v156l-97 -29q-41 -12 -58 -27t-17 -52v-13q0 -67 72 -67q29 0 54 8t36 16zM512 -109h-85q-187 0 -269.5 97t-82.5 284q0 186 84 283.5t268 97.5q188 0 270.5 -92.5t82.5 -278.5q0 -132 -38.5 -191.5t-112.5 -59.5q-75 0 -103 48q-43 -34 -120 -34q-59 0 -92 29.5
t-33 84.5v12q0 53 30 79.5t90 45.5l107 33v55q0 37 -17.5 56.5t-62.5 19.5q-44 0 -122 -17v49q64 16 122 16q67 0 99 -33t32 -91v-225q0 -43 17 -61.5t54 -18.5q97 0 97 203q0 163 -68.5 243t-231.5 80q-161 0 -230 -84t-69 -249t69 -249t230 -84h85v-48z" />
    <glyph glyph-name="A" unicode="A" horiz-adv-x="429" 
d="M133 244h163l-82 362zM351 0l-43 192h-187l-43 -192h-59l154 668h83l154 -668h-59z" />
    <glyph glyph-name="B" unicode="B" horiz-adv-x="463" 
d="M343 151v59q0 100 -104 100h-109v-259h109q104 0 104 100zM233 617h-103v-256h103q104 0 104 101v55q0 100 -104 100zM395 517v-54q0 -95 -75 -126q81 -29 81 -128v-58q0 -70 -40 -110.5t-120 -40.5h-168v668h162q80 0 120 -40.5t40 -110.5z" />
    <glyph glyph-name="C" unicode="C" horiz-adv-x="391" 
d="M63 535q0 138 173 138q58 0 114 -16v-54q-57 17 -114 17q-64 0 -90 -21.5t-26 -64.5v-400q0 -43 26 -64.5t90 -21.5q59 0 116 17v-54q-50 -16 -116 -16q-173 0 -173 138v402z" />
    <glyph glyph-name="D" unicode="D" horiz-adv-x="461" 
d="M73 668h165q79 0 119.5 -41t40.5 -109v-367q0 -69 -40 -110t-119 -41h-166v668zM340 517q0 100 -103 100h-107v-566h107q103 0 103 101v365z" />
    <glyph glyph-name="E" unicode="E" horiz-adv-x="393" 
d="M73 668h281v-51h-224v-255h196v-51h-196v-260h224v-51h-281v668z" />
    <glyph glyph-name="F" unicode="F" horiz-adv-x="365" 
d="M73 668h272v-51h-215v-266h206v-51h-206v-300h-57v668z" />
    <glyph glyph-name="G" unicode="G" horiz-adv-x="445" 
d="M63 530q0 143 178 143q62 0 118 -16v-56q-59 19 -117 19q-66 0 -94 -23t-28 -69v-394q0 -87 101 -87q67 0 100 23v253h57v-289q-68 -39 -157 -39q-71 0 -114.5 32.5t-43.5 105.5v397z" />
    <glyph glyph-name="H" unicode="H" horiz-adv-x="489" 
d="M357 668h59v-668h-59v302h-227v-302h-57v668h57v-315h227v315z" />
    <glyph glyph-name="I" unicode="I" horiz-adv-x="203" 
d="M73 668h57v-668h-57v668z" />
    <glyph glyph-name="J" unicode="J" horiz-adv-x="204" 
d="M73 668h58v-472q0 -125 -33 -240l-31 -105h-59l30 106q35 119 35 238v473z" />
    <glyph glyph-name="K" unicode="K" horiz-adv-x="424" 
d="M335 668h63l-144 -334l151 -334h-64l-149 332zM73 668h57v-668h-57v668z" />
    <glyph glyph-name="L" unicode="L" horiz-adv-x="343" 
d="M73 668h57v-617h208v-51h-265v668z" />
    <glyph glyph-name="M" unicode="M" horiz-adv-x="605" 
d="M458 668h74v-668h-55v373l4 199l-145 -392h-68l-146 392q5 -94 5 -198v-374h-54v668h72l157 -432z" />
    <glyph glyph-name="N" unicode="N" horiz-adv-x="494" 
d="M364 668h57v-668h-72l-144 366q-66 172 -80 206q0 -23 1.5 -94t2.5 -115v-363h-56v668h71l145 -368q15 -40 42 -109t37 -96q0 23 -1.5 94t-2.5 115v364z" />
    <glyph glyph-name="O" unicode="O" horiz-adv-x="451" 
d="M63 523q0 70 41 112.5t122 42.5t121.5 -42.5t40.5 -112.5v-378q0 -70 -40.5 -112.5t-121.5 -42.5t-122 42.5t-41 112.5v378zM331 522q0 104 -105 104q-106 0 -106 -104v-376q0 -104 106 -104q105 0 105 104v376z" />
    <glyph glyph-name="P" unicode="P" horiz-adv-x="434" 
d="M73 668h153q79 0 119.5 -41t40.5 -109v-132q0 -68 -40.5 -109t-119.5 -41h-96v-236h-57v668zM328 516q0 101 -104 101h-94v-330h94q104 0 104 101v128z" />
    <glyph glyph-name="Q" unicode="Q" horiz-adv-x="451" 
d="M120 522v-376q0 -104 106 -104q105 0 105 104v376q0 104 -105 104q-106 0 -106 -104zM433 -103h-73l-87 98q-23 -5 -47 -5q-81 0 -122 42.5t-41 112.5v378q0 70 41 112.5t122 42.5t121.5 -42.5t40.5 -112.5v-378q0 -89 -62 -129z" />
    <glyph glyph-name="R" unicode="R" horiz-adv-x="452" 
d="M130 326h94q104 0 104 98v93q0 100 -104 100h-94v-291zM405 0h-63l-99 273h-16h-97v-273h-57v668h153q79 0 119.5 -41t40.5 -109v-94q0 -107 -86 -139z" />
    <glyph glyph-name="S" unicode="S" horiz-adv-x="379" 
d="M29 537q0 64 42.5 100t124.5 36q74 0 125 -15v-56q-47 18 -125 18q-109 0 -109 -83v-54q0 -35 14 -57t46 -40l117 -65q81 -44 81 -132v-53q0 -67 -45 -104t-135 -37q-80 0 -131 19v56q57 -22 130 -22q123 0 123 90v46q0 35 -12 55t-45 37l-116 64q-85 46 -85 138v59z" />
    <glyph glyph-name="T" unicode="T" horiz-adv-x="340" 
d="M330 668v-51h-131v-617h-58v617h-131v51h320z" />
    <glyph glyph-name="U" unicode="U" horiz-adv-x="461" 
d="M335 668h58v-523q0 -70 -41 -112.5t-122 -42.5t-121.5 42.5t-40.5 112.5v523h57v-522q0 -104 105 -104t105 104v522z" />
    <glyph glyph-name="V" unicode="V" horiz-adv-x="408" 
d="M334 668h60l-149 -668h-82l-149 668h60l74 -340q30 -144 56 -269q26 119 56 270z" />
    <glyph glyph-name="W" unicode="W" horiz-adv-x="611" 
d="M530 668h58l-114 -668h-77l-59 345q-10 56 -18.5 114.5t-11.5 88.5l-3 30q-9 -109 -31 -232l-59 -346h-78l-114 668h58l71 -429l26 -177q11 89 25 178l71 428h64l70 -429l26 -176q14 106 25 176z" />
    <glyph glyph-name="X" unicode="X" horiz-adv-x="379" 
d="M302 668h63l-146 -334l146 -334h-63l-112 266l-113 -266h-63l145 334l-145 334h63l113 -267z" />
    <glyph glyph-name="Y" unicode="Y" horiz-adv-x="397" 
d="M333 668h59l-165 -439v-229h-57v229l-165 439h59l74 -195q10 -26 30.5 -84.5t31.5 -88.5q6 19 60 172z" />
    <glyph glyph-name="Z" unicode="Z" horiz-adv-x="375" 
d="M35 668h311v-51l-256 -566h250v-51h-311v51l255 566h-249v51z" />
    <glyph glyph-name="bracketleft" unicode="[" horiz-adv-x="283" 
d="M131 -79h124v-46h-174v897h174v-46h-124v-805z" />
    <glyph glyph-name="backslash" unicode="\" horiz-adv-x="376" 
d="M32 772h51l269 -897h-51z" />
    <glyph glyph-name="bracketright" unicode="]" horiz-adv-x="283" 
d="M27 772h175v-897h-175v46h124v805h-124v46z" />
    <glyph glyph-name="asciicircum" unicode="^" horiz-adv-x="297" 
d="M288 376h-54l-88 247l-88 -247h-54l102 275h81z" />
    <glyph glyph-name="underscore" unicode="_" horiz-adv-x="462" 
d="M1 -14h460v-46h-460v46z" />
    <glyph glyph-name="grave" unicode="`" horiz-adv-x="350" 
d="M127 716h59l37 -106h-40z" />
    <glyph glyph-name="a" unicode="a" horiz-adv-x="423" 
d="M60 552q56 18 129 18q166 0 166 -139v-431h-56v40q-17 -14 -30.5 -22.5t-38.5 -15t-57 -6.5q-139 0 -139 135v32q0 101 120 135l145 41v92q0 44 -23.5 64.5t-87.5 20.5q-68 0 -128 -20v56zM299 89v197l-125 -35q-48 -14 -66 -34.5t-18 -55.5v-31q0 -43 20.5 -64t69.5 -21
q69 0 119 44z" />
    <glyph glyph-name="b" unicode="b" horiz-adv-x="445" 
d="M73 716h56v-174q65 26 118 26q63 0 99 -35t36 -98v-287q0 -71 -40.5 -109.5t-107.5 -38.5h-161v716zM324 432q0 82 -81 82q-44 0 -113 -27v-435h91q103 0 103 98v282z" />
    <glyph glyph-name="c" unicode="c" horiz-adv-x="370" 
d="M63 432q0 138 163 138q58 0 103 -13v-53q-44 13 -101 13q-63 0 -85.5 -21t-22.5 -65v-298q0 -44 22.5 -64.5t85.5 -20.5q60 0 103 15v-54q-52 -14 -105 -14q-163 0 -163 137v300z" />
    <glyph glyph-name="d" unicode="d" horiz-adv-x="444" 
d="M314 716h58v-716h-57v32q-43 -35 -109 -35q-71 0 -107 37t-36 107v279q0 69 41 107t108 38h102v151zM314 87v425h-90q-104 0 -104 -92v-278q0 -93 90 -93q66 0 104 38z" />
    <glyph glyph-name="e" unicode="e" horiz-adv-x="437" 
d="M120 301h203v119q0 104 -102 104q-101 0 -101 -104v-119zM63 141v280q0 69 39.5 111.5t118.5 42.5q80 0 119 -42.5t39 -111.5v-170h-259v-109q0 -47 30.5 -70.5t98.5 -23.5q53 0 113 18v-56q-52 -15 -114 -15q-185 0 -185 146z" />
    <glyph glyph-name="f" unicode="f" horiz-adv-x="269" 
d="M94 604q0 63 33.5 97t98.5 34q27 0 43 -4v-51q-16 4 -41 4q-76 0 -76 -79v-40h110v-50h-110v-515h-58v515h-57v50h57v39z" />
    <glyph glyph-name="g" unicode="g" horiz-adv-x="445" 
d="M315 352v79q0 47 -25 70t-80 23q-56 0 -80.5 -23t-24.5 -70v-79q0 -47 24.5 -70t80.5 -23q55 0 80 23t25 70zM421 546h-33q-30 0 -49 -17q33 -36 33 -98v-79q0 -68 -40.5 -106t-121.5 -38q-62 0 -62 -58q0 -26 16 -38t54 -12h59q135 0 135 -114v-12q0 -123 -177 -123h-40
q-98 0 -152 29v57q61 -35 151 -35h39q122 0 122 72v10q0 33 -15.5 49.5t-63.5 16.5h-60q-58 0 -89 22t-31 63v16q0 50 49 65q-98 26 -98 136v79q0 68 40.5 106t122.5 38q69 0 109 -28q18 57 87 57h15v-58z" />
    <glyph glyph-name="h" unicode="h" horiz-adv-x="449" 
d="M73 716h56v-176q60 27 117 27q63 0 99 -34.5t36 -97.5v-435h-57v432q0 82 -81 82q-53 0 -113 -28v-486h-57v716z" />
    <glyph glyph-name="i" unicode="i" horiz-adv-x="203" 
d="M73 564h57v-564h-57v564zM65 678q0 40 37 40q36 0 36 -40q0 -41 -36 -41q-37 0 -37 41z" />
    <glyph glyph-name="j" unicode="j" horiz-adv-x="203" 
d="M73 564h57v-580q0 -65 -32.5 -99.5t-95.5 -34.5q-9 0 -27 2v52q16 -2 26 -2q38 0 55 19t17 63v580zM65 678q0 40 37 40q36 0 36 -40q0 -41 -36 -41q-37 0 -37 41z" />
    <glyph glyph-name="k" unicode="k" horiz-adv-x="397" 
d="M307 565h63l-132 -272l140 -293h-64l-140 291zM73 716h57v-716h-57v716z" />
    <glyph glyph-name="l" unicode="l" horiz-adv-x="203" 
d="M73 716h57v-716h-57v716z" />
    <glyph glyph-name="m" unicode="m" horiz-adv-x="700" 
d="M352 525q71 42 145 42q62 0 98.5 -34.5t36.5 -97.5v-435h-57v432q0 82 -82 82q-59 0 -118 -37q6 -16 6 -45v-432h-57v432q0 82 -82 82q-51 0 -112 -29v-485h-57v565h56v-26q67 28 117 28q69 0 106 -42z" />
    <glyph glyph-name="n" unicode="n" horiz-adv-x="449" 
d="M129 539q67 28 117 28q62 0 98.5 -34.5t36.5 -97.5v-435h-57v432q0 82 -82 82q-51 0 -112 -29v-485h-57v565h56v-26z" />
    <glyph glyph-name="o" unicode="o" horiz-adv-x="441" 
d="M63 421q0 69 39 111.5t118 42.5q80 0 119 -42t39 -112v-277q0 -70 -39 -112t-119 -42q-79 0 -118 42.5t-39 111.5v277zM321 421q0 103 -101 103q-100 0 -100 -103v-277q0 -103 100 -103q101 0 101 103v277z" />
    <glyph glyph-name="p" unicode="p" horiz-adv-x="445" 
d="M129 538q67 29 118 29q62 0 98.5 -34.5t36.5 -97.5v-285q0 -70 -40 -110t-107 -40h-105v-149h-57v714h56v-27zM324 432q0 82 -82 82q-51 0 -112 -29v-433h92q102 0 102 100v280z" />
    <glyph glyph-name="q" unicode="q" horiz-adv-x="444" 
d="M215 565h157v-714h-57v179q-43 -33 -110 -33q-142 0 -142 146v272q0 70 41.5 110t110.5 40zM314 87v425h-87q-107 0 -107 -98v-271q0 -94 90 -94q66 0 104 38z" />
    <glyph glyph-name="r" unicode="r" horiz-adv-x="276" 
d="M245 568h26v-56h-35q-8 0 -15 -1t-12 -1.5t-12.5 -4t-11 -5t-12.5 -7.5l-12 -8t-14.5 -10.5t-16.5 -11.5v-463h-57v565h56v-44q44 33 65 40t51 7z" />
    <glyph glyph-name="s" unicode="s" horiz-adv-x="357" 
d="M29 435q0 68 38.5 101.5t126.5 33.5q56 0 109 -17v-54q-54 18 -108 18q-65 0 -86.5 -19t-21.5 -64v-28q0 -36 13.5 -54.5t48.5 -33.5l86 -40q46 -21 69 -49t23 -72v-26q0 -136 -175 -136q-65 0 -118 17v54q54 -18 116 -18q66 0 93 20.5t27 62.5v22q0 30 -13.5 46.5
t-52.5 33.5l-89 41q-86 37 -86 126v35z" />
    <glyph glyph-name="t" unicode="t" horiz-adv-x="286" 
d="M87 669h40v-104h133v-51h-133v-394q0 -39 18.5 -55.5t55.5 -16.5q43 0 70 11v-53q-30 -9 -73 -9q-63 0 -96 31t-33 90v396h-64v51h66z" />
    <glyph glyph-name="u" unicode="u" horiz-adv-x="449" 
d="M319 565h58v-565h-56v27q-60 -30 -110 -30q-71 0 -107 37t-36 107v424h58v-421q0 -96 89 -96q13 0 25.5 2t22.5 5t19 6.5t15.5 7t11.5 6.5t7 5l3 2v483z" />
    <glyph glyph-name="v" unicode="v" horiz-adv-x="377" 
d="M299 565h59l-126 -565h-87l-126 565h59l59 -273l52 -253q28 134 52 252z" />
    <glyph glyph-name="w" unicode="w" horiz-adv-x="594" 
d="M516 565h59l-105 -565h-86l-56 297q-6 33 -14 79.5t-12.5 78.5t-4.5 34q0 -1 -4.5 -31t-11.5 -76.5t-15 -84.5l-56 -297h-86l-105 565h59l89 -513l96 513h68l95 -513z" />
    <glyph glyph-name="x" unicode="x" horiz-adv-x="354" 
d="M285 565h60l-139 -283l139 -282h-60l-108 224l-108 -224h-59l137 282l-137 283h59l108 -224z" />
    <glyph glyph-name="y" unicode="y" horiz-adv-x="378" 
d="M299 565h60l-159 -714h-55l31 149h-31l-126 565h60l64 -299l45 -227q23 117 46 226z" />
    <glyph glyph-name="z" unicode="z" horiz-adv-x="313" 
d="M26 565h267v-48l-217 -466h216v-51h-272v49l213 465h-207v51z" />
    <glyph glyph-name="braceleft" unicode="{" horiz-adv-x="341" 
d="M191 651v-209q0 -56 -18.5 -84.5t-66.5 -34.5q48 -5 66.5 -33.5t18.5 -84.5v-210q0 -71 88 -71h10v-49h-11q-66 0 -102.5 32t-36.5 89v230q0 34 -20 53.5t-57 19.5h-2v48h2q37 0 57 20t20 53v230q0 57 36.5 89t102.5 32h11v-49h-10q-88 0 -88 -71z" />
    <glyph glyph-name="bar" unicode="|" horiz-adv-x="205" 
d="M79 791h47v-935h-47v935z" />
    <glyph glyph-name="braceright" unicode="}" horiz-adv-x="341" 
d="M279 347h2v-48h-2q-38 0 -58 -19.5t-20 -53.5v-230q0 -57 -36 -89t-102 -32h-12v49h10q89 0 89 71v210q0 56 18 84.5t67 33.5q-49 6 -67 34.5t-18 84.5v209q0 71 -89 71h-10v49h12q66 0 102 -32t36 -89v-230q0 -33 20 -53t58 -20z" />
    <glyph glyph-name="asciitilde" unicode="~" horiz-adv-x="394" 
d="M324 387h44q3 -12 3 -24q0 -56 -44.5 -75.5t-93.5 5.5l-79 37q-39 20 -65 9t-19 -52h-45q-2 11 -2 24q0 55 44.5 74.5t93.5 -5.5l79 -37q41 -21 66 -9.5t18 53.5z" />
    <glyph glyph-name="uni00A0" unicode="&#xa0;" horiz-adv-x="190" 
 />
    <glyph glyph-name="exclamdown" unicode="&#xa1;" horiz-adv-x="234" 
d="M79 530q0 40 37 40t37 -40t-37 -40t-37 40zM148 -103h-63l7 504h49z" />
    <glyph glyph-name="cent" unicode="&#xa2;" horiz-adv-x="403" 
d="M340 63v-54q-36 -10 -80 -13v-75h-52v75q-136 10 -136 136v300q0 126 135 137v84h52v-84q45 -1 79 -12v-53q-44 13 -101 13q-63 0 -85.5 -21t-22.5 -65v-298q0 -44 22.5 -64.5t85.5 -20.5q60 0 103 15z" />
    <glyph glyph-name="sterling" unicode="&#xa3;" horiz-adv-x="449" 
d="M131 54h283v-54h-370v54h4q3 0 7 1t10 2t12 4t12.5 7.5t11.5 12t9.5 17t7 23t2.5 29.5v171h-61v49h61v150q0 149 163 149q63 0 125 -20v-57q-65 23 -124 23q-62 0 -84.5 -24.5t-22.5 -71.5v-149h177v-49h-177v-167q0 -80 -46 -100z" />
    <glyph glyph-name="currency" unicode="&#xa4;" horiz-adv-x="460" 
d="M137 370v-72q0 -50 19.5 -73t73.5 -23t73.5 23t19.5 73v72q0 50 -19.5 73t-73.5 23t-73.5 -23t-19.5 -73zM380 371v-74q0 -44 -13 -74l44 -42l-38 -39l-39 37q-38 -27 -104 -27q-67 0 -103 28l-39 -38l-39 39l44 43q-12 32 -12 73v74q0 41 12 73l-44 43l39 39l39 -38
q36 28 103 28q66 0 104 -27l39 37l38 -39l-44 -42q13 -30 13 -74z" />
    <glyph glyph-name="yen" unicode="&#xa5;" horiz-adv-x="458" 
d="M379 648h56l-95 -240h94v-46h-112l-43 -107h155v-45h-169v-210h-54v210h-171v45h156l-43 107h-113v46h95l-95 240h56l113 -292l30 -77l29 77z" />
    <glyph glyph-name="brokenbar" unicode="&#xa6;" horiz-adv-x="205" 
d="M79 791h47v-376h-47v376zM79 232h47v-376h-47v376z" />
    <glyph glyph-name="section" unicode="&#xa7;" horiz-adv-x="358" 
d="M30 533q0 69 38.5 102.5t125.5 33.5q62 0 110 -15v-55q-46 17 -109 17q-64 0 -86 -20.5t-22 -68.5q0 -41 13 -58t50 -33l86 -40q45 -21 68.5 -49t23.5 -71v-18h-57v13q0 30 -13.5 46.5t-52.5 34.5l-89 40q-86 37 -86 126v15zM95 260v-12q0 -36 13.5 -53.5t49.5 -33.5
l86 -40q46 -22 69 -50t23 -71v-14q0 -135 -175 -135q-71 0 -118 15v54q48 -16 116 -16q67 0 93 20t26 66q0 34 -13 51t-52 35l-89 40q-86 37 -86 126v18h57z" />
    <glyph glyph-name="dieresis" unicode="&#xa8;" horiz-adv-x="350" 
d="M75 661q0 35 35 35t35 -35q0 -34 -35 -34t-35 34zM204 661q0 35 35 35t35 -35q0 -34 -35 -34t-35 34z" />
    <glyph glyph-name="copyright" unicode="&#xa9;" horiz-adv-x="683" 
d="M49 322q0 75 13 130.5t44.5 101t90.5 69t146 23.5t146 -23t90 -68.5t43 -100.5t12 -132q0 -73 -14 -128.5t-46 -100.5t-90 -69t-141 -24q-163 0 -228.5 84t-65.5 238zM226 376q0 62 30 94t100 32q39 0 74 -7v-50q-30 10 -73 10q-27 0 -44 -5.5t-24.5 -18t-9.5 -24
t-2 -31.5v-106q0 -20 2 -32t9.5 -24t24.5 -17.5t44 -5.5q39 0 74 10v-51q-49 -7 -75 -7q-70 0 -100 32.5t-30 93.5v107zM583 322q0 54 -4.5 91.5t-19.5 75t-41 60t-69.5 36t-105.5 13.5t-106.5 -14t-70.5 -36.5t-41 -59.5t-20 -75t-5 -91q0 -66 9 -111.5t34 -84.5
t74.5 -58.5t125.5 -19.5q74 0 123 20t73.5 59.5t34 85t9.5 109.5z" />
    <glyph glyph-name="ordfeminine" unicode="&#xaa;" horiz-adv-x="339" 
d="M51 726q57 19 119 19q123 0 123 -103v-353h-44v35q-29 -36 -99 -36q-61 0 -88.5 27.5t-27.5 82.5v37q0 46 29 70t83 35l103 17v89q-2 29 -19.5 43t-60.5 14q-60 0 -118 -20v43zM249 365v150l-95 -15q-76 -13 -76 -66v-36q0 -38 16.5 -55t64.5 -17q25 0 51 10.5t39 28.5z
" />
    <glyph glyph-name="guillemotleft" unicode="&#xab;" horiz-adv-x="435" 
d="M351 505h61l-122 -183l122 -183h-61l-121 183zM182 505h60l-122 -183l122 -183h-60l-121 183z" />
    <glyph glyph-name="logicalnot" unicode="&#xac;" horiz-adv-x="442" 
d="M73 353h297v-149h-59v98h-238v51z" />
    <glyph glyph-name="uni00AD" unicode="&#xad;" horiz-adv-x="214" 
d="M40 347h139v-47h-139v47z" />
    <glyph glyph-name="registered" unicode="&#xae;" horiz-adv-x="495" 
d="M228 521h25q29 0 41.5 10t12.5 38q0 27 -11 34.5t-37 7.5h-31v-90zM187 646h70q86 0 86 -77q0 -54 -35 -72l46 -105h-44l-39 96q-5 -1 -15 -1h-28v-95h-41v254zM257 349q96 0 125 35.5t29 131.5q0 99 -29.5 135.5t-122.5 36.5q-94 0 -122.5 -36t-28.5 -136
q0 -96 28 -131.5t121 -35.5zM259 724q110 0 152 -49t42 -159q0 -107 -42 -155.5t-154 -48.5q-108 0 -149.5 48.5t-41.5 155.5q0 109 42.5 158.5t150.5 49.5z" />
    <glyph glyph-name="macron" unicode="&#xaf;" horiz-adv-x="350" 
d="M68 684h214v-42h-214v42z" />
    <glyph glyph-name="degree" unicode="&#xb0;" horiz-adv-x="359" 
d="M54 646q0 139 128 139q129 0 129 -139q0 -137 -129 -137q-128 0 -128 137zM265 645q0 45 -17 69t-66 24q-48 0 -65 -24t-17 -69q0 -44 17 -68t65 -24q49 0 66 24t17 68z" />
    <glyph glyph-name="plusminus" unicode="&#xb1;" horiz-adv-x="427" 
d="M41 49l-1 47h347v-47h-346zM240 347h147v-47h-147v-146h-52v146h-148v47h148v146h52v-146z" />
    <glyph glyph-name="twosuperior" unicode="&#xb2;" horiz-adv-x="291" 
d="M41 736q49 9 98 9q122 0 122 -103v-19q0 -41 -13.5 -67t-48.5 -50l-62 -42q-45 -31 -55 -46t-10 -51v-36h192v-42h-236v77q0 48 17.5 74t66.5 58l65 42q25 17 32.5 35.5t7.5 48.5v18q0 32 -17 46.5t-61 14.5q-61 0 -98 -10v43z" />
    <glyph glyph-name="threesuperior" unicode="&#xb3;" horiz-adv-x="308" 
d="M44 738q40 7 90 7q121 0 124 -98v-41q0 -67 -46 -86q46 -18 46 -84v-48q0 -103 -125 -103q-58 0 -100 11v43q48 -12 100 -12q45 0 63 15t18 46v48q0 30 -14 46t-56 17h-43v41h43q42 0 56 17.5t14 48.5v36q0 31 -17.5 46t-62.5 15q-37 0 -90 -8v43z" />
    <glyph glyph-name="acute" unicode="&#xb4;" horiz-adv-x="350" 
d="M164 716h59l-56 -106h-40z" />
    <glyph glyph-name="uni00B5" unicode="&#xb5;" horiz-adv-x="454" 
d="M324 565h57v-565h-56v27q-2 -2 -14 -8t-38.5 -13.5t-54.5 -7.5q-49 0 -88 15v-164h-58v716h58v-494q0 -1 8.5 -6t31 -10t49.5 -5q13 0 25.5 2t22.5 5t19 7t16 8t11.5 7l7.5 5l3 2v479z" />
    <glyph glyph-name="paragraph" unicode="&#xb6;" horiz-adv-x="394" 
d="M225 669h94v-668h-57v367h-37q-79 0 -119.5 41t-40.5 110q0 68 40.5 109t119.5 41z" />
    <glyph glyph-name="periodcentered" unicode="&#xb7;" horiz-adv-x="203" 
d="M67 344q0 36 36 36t36 -36t-36 -36t-36 36z" />
    <glyph glyph-name="cedilla" unicode="&#xb8;" horiz-adv-x="350" 
d="M150 6h34l-10 -46q31 -2 50 -19t19 -48q0 -35 -24.5 -54t-62.5 -19q-30 0 -50 7v36q18 -8 44 -8q55 0 55 38q0 39 -56 39h-14z" />
    <glyph glyph-name="onesuperior" unicode="&#xb9;" horiz-adv-x="225" 
d="M114 741h55v-452h-44v409l-100 -79v53z" />
    <glyph glyph-name="ordmasculine" unicode="&#xba;" horiz-adv-x="338" 
d="M48 642q0 103 122 103q123 0 123 -103v-254q0 -103 -123 -103q-122 0 -122 103v254zM249 647q-2 29 -19.5 42.5t-59.5 13.5q-43 0 -60.5 -14t-17.5 -42v-259q0 -32 17 -46.5t61 -14.5q45 0 62 14.5t17 46.5v259z" />
    <glyph glyph-name="guillemotright" unicode="&#xbb;" horiz-adv-x="435" 
d="M191 505h61l121 -183l-121 -183h-61l122 183zM22 505h60l121 -183l-121 -183h-60l122 183z" />
    <glyph glyph-name="onequarter" unicode="&#xbc;" horiz-adv-x="780" 
d="M130 668h54v-452h-44v409l-100 -79v53zM603 452h67v-310h51v-40h-51v-102h-42v102h-188v41zM628 142v276l-145 -276h145zM480 668h46l-322 -668h-46z" />
    <glyph glyph-name="onehalf" unicode="&#xbd;" horiz-adv-x="769" 
d="M485 447q49 9 98 9q122 0 122 -103v-19q0 -41 -13.5 -67t-48.5 -50l-62 -42q-45 -31 -55 -46t-10 -51v-36h192v-42h-236v77q0 48 17.5 74t66.5 58l65 42q25 17 32.5 35.5t7.5 48.5v18q0 32 -17 46.5t-61 14.5q-61 0 -98 -10v43zM129 668h55v-452h-44v409l-100 -79v53z
M480 668h46l-322 -668h-46z" />
    <glyph glyph-name="threequarters" unicode="&#xbe;" horiz-adv-x="822" 
d="M645 452h68v-310h50v-40h-50v-102h-42v102h-189v41zM671 142v276l-145 -276h145zM541 668h46l-322 -668h-46zM51 666q40 7 90 7q121 0 124 -98v-41q0 -67 -46 -86q46 -18 46 -84v-48q0 -103 -125 -103q-58 0 -100 11v43q53 -12 100 -12q44 0 62 15t18 46v48
q0 30 -13.5 46t-55.5 17h-44v42h44q42 0 55.5 17t13.5 48v36q0 31 -17.5 46t-61.5 15q-50 0 -90 -8v43z" />
    <glyph glyph-name="questiondown" unicode="&#xbf;" horiz-adv-x="371" 
d="M322 -100q-50 -13 -114 -13q-172 0 -172 137v100q0 149 152 153l5 124h50l4 -175h-55q-99 0 -99 -102v-99q0 -43 24.5 -63t89.5 -20q63 0 115 15v-57zM255 530q0 -40 -37 -40t-37 40t37 40t37 -40z" />
    <glyph glyph-name="Agrave" unicode="&#xc0;" horiz-adv-x="429" 
d="M228 710h-40l-56 106h59zM133 244h163l-82 362zM351 0l-43 192h-187l-43 -192h-59l154 668h83l154 -668h-59z" />
    <glyph glyph-name="Aacute" unicode="&#xc1;" horiz-adv-x="429" 
d="M292 816l-56 -106h-40l37 106h59zM133 244h163l-82 362zM351 0l-43 192h-187l-43 -192h-59l154 668h83l154 -668h-59z" />
    <glyph glyph-name="Acircumflex" unicode="&#xc2;" horiz-adv-x="429" 
d="M216 776l-35 -66h-39l49 106h50l49 -106h-39zM133 244h163l-82 362zM351 0l-43 192h-187l-43 -192h-59l154 668h83l154 -668h-59z" />
    <glyph glyph-name="Atilde" unicode="&#xc3;" horiz-adv-x="429" 
d="M147 732v-12h-46v15q0 31 16 50t48 19q25 0 60.5 -20.5t47.5 -20.5q21 0 21 31v12h46v-15q0 -69 -62 -69q-24 0 -58.5 20.5t-50.5 20.5q-22 0 -22 -31zM133 244h163l-82 362zM351 0l-43 192h-187l-43 -192h-59l154 668h83l154 -668h-59z" />
    <glyph glyph-name="Adieresis" unicode="&#xc4;" horiz-adv-x="429" 
d="M278 727q-35 0 -35 34q0 35 35 35t35 -35q0 -34 -35 -34zM149 727q-35 0 -35 34q0 35 35 35t35 -35q0 -34 -35 -34zM133 244h163l-82 362zM351 0l-43 192h-187l-43 -192h-59l154 668h83l154 -668h-59z" />
    <glyph glyph-name="Aring" unicode="&#xc5;" horiz-adv-x="429" 
d="M214 799q-36 0 -36 -36q0 -17 9.5 -27t26.5 -10t26.5 10t9.5 27q0 36 -36 36zM214 691q-33 0 -53 21t-20 51q0 31 19.5 51t53.5 20t53.5 -20t19.5 -51t-19.5 -51.5t-53.5 -20.5zM133 244h163l-82 362zM351 0l-43 192h-187l-43 -192h-59l154 668h83l154 -668h-59z" />
    <glyph glyph-name="AE" unicode="&#xc6;" horiz-adv-x="648" 
d="M182 244h172v380zM635 617h-224v-255h195v-51h-195v-260h224v-51h-281v192h-196l-87 -192h-62l310 668h316v-51z" />
    <glyph glyph-name="Ccedilla" unicode="&#xc7;" horiz-adv-x="391" 
d="M352 65v-54q-50 -16 -114 -16l-8 -35q31 -2 50 -19t19 -48q0 -35 -24.5 -54t-62.5 -19q-30 0 -50 7v36q18 -8 44 -8q55 0 55 38q0 39 -56 39h-14l13 64q-141 13 -141 137v402q0 138 173 138q58 0 114 -16v-54q-57 17 -114 17q-64 0 -90 -21.5t-26 -64.5v-400
q0 -43 26 -64.5t90 -21.5q59 0 116 17z" />
    <glyph glyph-name="Egrave" unicode="&#xc8;" horiz-adv-x="393" 
d="M73 668h281v-51h-224v-255h196v-51h-196v-260h224v-51h-281v668zM138 816h59l37 -106h-40z" />
    <glyph glyph-name="Eacute" unicode="&#xc9;" horiz-adv-x="393" 
d="M233 816h59l-56 -106h-40zM73 668h281v-51h-224v-255h196v-51h-196v-260h224v-51h-281v668z" />
    <glyph glyph-name="Ecircumflex" unicode="&#xca;" horiz-adv-x="393" 
d="M208 776l-35 -66h-39l49 106h50l49 -106h-39zM354 617h-224v-255h196v-51h-196v-260h224v-51h-281v668h281v-51z" />
    <glyph glyph-name="Edieresis" unicode="&#xcb;" horiz-adv-x="393" 
d="M116 761q0 35 35 35t35 -35q0 -34 -35 -34t-35 34zM245 761q0 35 35 35t35 -35q0 -34 -35 -34t-35 34zM73 668h281v-51h-224v-255h196v-51h-196v-260h224v-51h-281v668z" />
    <glyph glyph-name="Igrave" unicode="&#xcc;" horiz-adv-x="203" 
d="M73 668h57v-668h-57v668zM28 816h59l37 -106h-40z" />
    <glyph glyph-name="Iacute" unicode="&#xcd;" horiz-adv-x="203" 
d="M73 668h57v-668h-57v668zM116 816h59l-56 -106h-40z" />
    <glyph glyph-name="Icircumflex" unicode="&#xce;" horiz-adv-x="203" 
d="M73 0v668h57v-668h-57zM132 816l49 -106h-39l-35 66l-35 -66h-39l49 106h50z" />
    <glyph glyph-name="Idieresis" unicode="&#xcf;" horiz-adv-x="203" 
d="M73 668h57v-668h-57v668zM1 761q0 35 35 35t35 -35q0 -34 -35 -34t-35 34zM130 761q0 35 35 35t35 -35q0 -34 -35 -34t-35 34z" />
    <glyph glyph-name="Eth" unicode="&#xd0;" horiz-adv-x="461" 
d="M341 152v365q0 100 -103 100h-107v-264h117v-51h-117v-251h107q103 0 103 101zM74 668h165q79 0 119.5 -41t40.5 -109v-367q0 -69 -40 -110t-119 -41h-166v302h-76v51h76v315z" />
    <glyph glyph-name="Ntilde" unicode="&#xd1;" horiz-adv-x="494" 
d="M364 668h57v-668h-72l-144 366q-66 172 -80 206q0 -23 1.5 -94t2.5 -115v-363h-56v668h71l145 -368q15 -40 42 -109t37 -96q0 23 -1.5 94t-2.5 115v364zM329 806h46v-15q0 -69 -62 -69q-24 0 -58.5 20.5t-50.5 20.5q-22 0 -22 -31v-12h-46v15q0 31 16 50t48 19
q25 0 60.5 -20.5t47.5 -20.5q21 0 21 31v12z" />
    <glyph glyph-name="Ograve" unicode="&#xd2;" horiz-adv-x="451" 
d="M63 523q0 70 41 112.5t122 42.5t121.5 -42.5t40.5 -112.5v-378q0 -70 -40.5 -112.5t-121.5 -42.5t-122 42.5t-41 112.5v378zM331 522q0 104 -105 104q-106 0 -106 -104v-376q0 -104 106 -104q105 0 105 104v376zM142 816h59l37 -106h-40z" />
    <glyph glyph-name="Oacute" unicode="&#xd3;" horiz-adv-x="451" 
d="M242 816h59l-56 -106h-40zM63 523q0 70 41 112.5t122 42.5t121.5 -42.5t40.5 -112.5v-378q0 -70 -40.5 -112.5t-121.5 -42.5t-122 42.5t-41 112.5v378zM331 522q0 104 -105 104q-106 0 -106 -104v-376q0 -104 106 -104q105 0 105 104v376z" />
    <glyph glyph-name="Ocircumflex" unicode="&#xd4;" horiz-adv-x="451" 
d="M225 776l-35 -66h-39l49 106h50l49 -106h-39zM331 146v376q0 104 -105 104q-106 0 -106 -104v-376q0 -104 106 -104q105 0 105 104zM63 145v378q0 70 41 112.5t122 42.5t121.5 -42.5t40.5 -112.5v-378q0 -70 -40.5 -112.5t-121.5 -42.5t-122 42.5t-41 112.5z" />
    <glyph glyph-name="Otilde" unicode="&#xd5;" horiz-adv-x="451" 
d="M63 523q0 70 41 112.5t122 42.5t121.5 -42.5t40.5 -112.5v-378q0 -70 -40.5 -112.5t-121.5 -42.5t-122 42.5t-41 112.5v378zM331 522q0 104 -105 104q-106 0 -106 -104v-376q0 -104 106 -104q105 0 105 104v376zM300 806h46v-15q0 -69 -62 -69q-24 0 -58.5 20.5
t-50.5 20.5q-22 0 -22 -31v-12h-46v15q0 31 16 50t48 19q25 0 60.5 -20.5t47.5 -20.5q21 0 21 31v12z" />
    <glyph glyph-name="Odieresis" unicode="&#xd6;" horiz-adv-x="451" 
d="M126 761q0 35 35 35t35 -35q0 -34 -35 -34t-35 34zM255 761q0 35 35 35t35 -35q0 -34 -35 -34t-35 34zM63 523q0 70 41 112.5t122 42.5t121.5 -42.5t40.5 -112.5v-378q0 -70 -40.5 -112.5t-121.5 -42.5t-122 42.5t-41 112.5v378zM331 522q0 104 -105 104
q-106 0 -106 -104v-376q0 -104 106 -104q105 0 105 104v376z" />
    <glyph glyph-name="multiply" unicode="&#xd7;" horiz-adv-x="354" 
d="M326 439l-116 -116l116 -116l-33 -33l-116 116l-116 -116l-33 33l116 116l-116 116l33 33l116 -116l116 116z" />
    <glyph glyph-name="Oslash" unicode="&#xd8;" horiz-adv-x="451" 
d="M331 522v7l-190 -455q27 -32 85 -32q105 0 105 104v376zM120 146v-7l190 455q-27 32 -84 32q-106 0 -106 -104v-376zM389 668l-23 -56q22 -37 22 -89v-378q0 -70 -40.5 -112.5t-121.5 -42.5q-67 0 -108 30l-8 -20h-48l23 56q-22 37 -22 89v378q0 70 41 112.5t122 42.5
q66 0 107 -30l8 20h48z" />
    <glyph glyph-name="Ugrave" unicode="&#xd9;" horiz-adv-x="461" 
d="M335 668h58v-523q0 -70 -41 -112.5t-122 -42.5t-121.5 42.5t-40.5 112.5v523h57v-522q0 -104 105 -104t105 104v522zM154 816h59l37 -106h-40z" />
    <glyph glyph-name="Uacute" unicode="&#xda;" horiz-adv-x="461" 
d="M248 816h59l-56 -106h-40zM335 668h58v-523q0 -70 -41 -112.5t-122 -42.5t-121.5 42.5t-40.5 112.5v523h57v-522q0 -104 105 -104t105 104v522z" />
    <glyph glyph-name="Ucircumflex" unicode="&#xdb;" horiz-adv-x="461" 
d="M230 776l-35 -66h-39l49 106h50l49 -106h-39zM335 668h58v-523q0 -70 -41 -112.5t-122 -42.5t-121.5 42.5t-40.5 112.5v523h57v-522q0 -104 105 -104t105 104v522z" />
    <glyph glyph-name="Udieresis" unicode="&#xdc;" horiz-adv-x="461" 
d="M130 761q0 35 35 35t35 -35q0 -34 -35 -34t-35 34zM259 761q0 35 35 35t35 -35q0 -34 -35 -34t-35 34zM335 668h58v-523q0 -70 -41 -112.5t-122 -42.5t-121.5 42.5t-40.5 112.5v523h57v-522q0 -104 105 -104t105 104v522z" />
    <glyph glyph-name="Yacute" unicode="&#xdd;" horiz-adv-x="397" 
d="M333 668h59l-165 -439v-229h-57v229l-165 439h59l74 -195q10 -26 30.5 -84.5t31.5 -88.5q6 19 60 172zM213 816h59l-56 -106h-40z" />
    <glyph glyph-name="Thorn" unicode="&#xde;" horiz-adv-x="425" 
d="M338 276v116q0 100 -104 100h-94v-315h94q104 0 104 99zM140 544h95q80 0 120 -41t40 -110v-118q0 -69 -40 -110t-120 -41h-95v-124h-57v668h57v-124z" />
    <glyph glyph-name="germandbls" unicode="&#xdf;" horiz-adv-x="531" 
d="M73 554q0 160 180 160q77 0 122 -39t45 -107q0 -35 -14.5 -64.5t-32 -46t-32 -37t-14.5 -39.5v-10q0 -24 15.5 -43t68.5 -46q52 -27 75 -54t23 -69v-25q0 -65 -43.5 -102t-130.5 -37q-63 0 -116 17v56q52 -19 115 -19q118 0 118 86v20q0 30 -13.5 47.5t-52.5 37.5
q-68 35 -92 60t-24 67v12q0 29 14.5 53.5t31.5 40t31.5 40.5t14.5 55q0 94 -109 94q-64 0 -93.5 -26.5t-29.5 -82.5v-553h-57v554z" />
    <glyph glyph-name="agrave" unicode="&#xe0;" horiz-adv-x="423" 
d="M60 552q56 18 129 18q166 0 166 -139v-431h-56v40q-17 -14 -30.5 -22.5t-38.5 -15t-57 -6.5q-139 0 -139 135v32q0 101 120 135l145 41v92q0 44 -23.5 64.5t-87.5 20.5q-68 0 -128 -20v56zM299 89v197l-125 -35q-48 -14 -66 -34.5t-18 -55.5v-31q0 -43 20.5 -64t69.5 -21
q69 0 119 44zM130 716h59l37 -106h-40z" />
    <glyph glyph-name="aacute" unicode="&#xe1;" horiz-adv-x="423" 
d="M60 552q56 18 129 18q166 0 166 -139v-431h-56v40q-17 -14 -30.5 -22.5t-38.5 -15t-57 -6.5q-139 0 -139 135v32q0 101 120 135l145 41v92q0 44 -23.5 64.5t-87.5 20.5q-68 0 -128 -20v56zM299 89v197l-125 -35q-48 -14 -66 -34.5t-18 -55.5v-31q0 -43 20.5 -64t69.5 -21
q69 0 119 44zM223 716h59l-56 -106h-40z" />
    <glyph glyph-name="acircumflex" unicode="&#xe2;" horiz-adv-x="423" 
d="M215 676l-35 -66h-39l49 106h50l49 -106h-39zM299 89v197l-125 -35q-48 -14 -66 -34.5t-18 -55.5v-31q0 -43 20.5 -64t69.5 -21q69 0 119 44zM60 496v56q56 18 129 18q166 0 166 -139v-431h-56v40q-17 -14 -30.5 -22.5t-38.5 -15t-57 -6.5q-139 0 -139 135v32
q0 101 120 135l145 41v92q0 44 -23.5 64.5t-87.5 20.5q-68 0 -128 -20z" />
    <glyph glyph-name="atilde" unicode="&#xe3;" horiz-adv-x="423" 
d="M60 552q56 18 129 18q166 0 166 -139v-431h-56v40q-17 -14 -30.5 -22.5t-38.5 -15t-57 -6.5q-139 0 -139 135v32q0 101 120 135l145 41v92q0 44 -23.5 64.5t-87.5 20.5q-68 0 -128 -20v56zM299 89v197l-125 -35q-48 -14 -66 -34.5t-18 -55.5v-31q0 -43 20.5 -64t69.5 -21
q69 0 119 44zM285 706h46v-15q0 -69 -62 -69q-24 0 -58.5 20.5t-50.5 20.5q-22 0 -22 -31v-12h-46v15q0 31 16 50t48 19q25 0 60.5 -20.5t47.5 -20.5q21 0 21 31v12z" />
    <glyph glyph-name="adieresis" unicode="&#xe4;" horiz-adv-x="423" 
d="M60 552q56 18 129 18q166 0 166 -139v-431h-56v40q-17 -14 -30.5 -22.5t-38.5 -15t-57 -6.5q-139 0 -139 135v32q0 101 120 135l145 41v92q0 44 -23.5 64.5t-87.5 20.5q-68 0 -128 -20v56zM299 89v197l-125 -35q-48 -14 -66 -34.5t-18 -55.5v-31q0 -43 20.5 -64t69.5 -21
q69 0 119 44zM110 661q0 35 35 35t35 -35q0 -34 -35 -34t-35 34zM239 661q0 35 35 35t35 -35q0 -34 -35 -34t-35 34z" />
    <glyph glyph-name="aring" unicode="&#xe5;" horiz-adv-x="423" 
d="M60 552q56 18 129 18q166 0 166 -139v-431h-56v40q-17 -14 -30.5 -22.5t-38.5 -15t-57 -6.5q-139 0 -139 135v32q0 101 120 135l145 41v92q0 44 -23.5 64.5t-87.5 20.5q-68 0 -128 -20v56zM299 89v197l-125 -35q-48 -14 -66 -34.5t-18 -55.5v-31q0 -43 20.5 -64t69.5 -21
q69 0 119 44zM136 663q0 31 19.5 51t53.5 20t53.5 -20t19.5 -51t-19.5 -51.5t-53.5 -20.5q-33 0 -53 21t-20 51zM245 663q0 36 -36 36t-36 -36q0 -17 9.5 -27t26.5 -10t26.5 10t9.5 27z" />
    <glyph glyph-name="ae" unicode="&#xe6;" horiz-adv-x="649" 
d="M330 517q44 58 130 58q80 0 119 -42.5t39 -111.5v-170h-262v-109q0 -94 132 -94q53 0 113 18v-56q-53 -15 -114 -15q-111 0 -155 51q-58 -50 -157 -50q-141 0 -141 135v32q0 101 120 135l145 41v93q0 43 -23.5 63.5t-87.5 20.5q-68 0 -128 -20v56q56 18 129 18
q102 0 141 -53zM299 84v202l-125 -35q-48 -14 -66 -34.5t-18 -55.5v-31q0 -43 21 -64t69 -21q75 0 119 39zM562 420q0 104 -102 104q-104 0 -104 -104v-119h206v119z" />
    <glyph glyph-name="ccedilla" unicode="&#xe7;" horiz-adv-x="370" 
d="M226 -5h-2l-8 -35q31 -2 50 -19t19 -48q0 -35 -24.5 -54t-62.5 -19q-30 0 -50 7v36q18 -8 44 -8q55 0 55 38q0 39 -56 39h-14l13 65q-127 13 -127 135v300q0 138 163 138q58 0 103 -13v-53q-44 13 -101 13q-63 0 -85.5 -21t-22.5 -65v-298q0 -44 22.5 -64.5t85.5 -20.5
q60 0 103 15v-54q-52 -14 -105 -14z" />
    <glyph glyph-name="egrave" unicode="&#xe8;" horiz-adv-x="437" 
d="M249 610h-40l-56 106h59zM120 301h203v119q0 104 -102 104q-101 0 -101 -104v-119zM63 141v280q0 69 39.5 111.5t118.5 42.5q80 0 119 -42.5t39 -111.5v-170h-259v-109q0 -47 30.5 -70.5t98.5 -23.5q53 0 113 18v-56q-52 -15 -114 -15q-185 0 -185 146z" />
    <glyph glyph-name="eacute" unicode="&#xe9;" horiz-adv-x="437" 
d="M304 716l-56 -106h-40l37 106h59zM120 301h203v119q0 104 -102 104q-101 0 -101 -104v-119zM63 141v280q0 69 39.5 111.5t118.5 42.5q80 0 119 -42.5t39 -111.5v-170h-259v-109q0 -47 30.5 -70.5t98.5 -23.5q53 0 113 18v-56q-52 -15 -114 -15q-185 0 -185 146z" />
    <glyph glyph-name="ecircumflex" unicode="&#xea;" horiz-adv-x="437" 
d="M229 676l-35 -66h-39l49 106h50l49 -106h-39zM120 301h203v119q0 104 -102 104q-101 0 -101 -104v-119zM63 141v280q0 69 39.5 111.5t118.5 42.5q80 0 119 -42.5t39 -111.5v-170h-259v-109q0 -47 30.5 -70.5t98.5 -23.5q53 0 113 18v-56q-52 -15 -114 -15
q-185 0 -185 146z" />
    <glyph glyph-name="edieresis" unicode="&#xeb;" horiz-adv-x="437" 
d="M289 627q-35 0 -35 34q0 35 35 35t35 -35q0 -34 -35 -34zM160 627q-35 0 -35 34q0 35 35 35t35 -35q0 -34 -35 -34zM120 301h203v119q0 104 -102 104q-101 0 -101 -104v-119zM63 141v280q0 69 39.5 111.5t118.5 42.5q80 0 119 -42.5t39 -111.5v-170h-259v-109
q0 -47 30.5 -70.5t98.5 -23.5q53 0 113 18v-56q-52 -15 -114 -15q-185 0 -185 146z" />
    <glyph glyph-name="igrave" unicode="&#xec;" horiz-adv-x="203" 
d="M73 564h57v-564h-57v564zM25 716h59l37 -106h-40z" />
    <glyph glyph-name="iacute" unicode="&#xed;" horiz-adv-x="203" 
d="M73 564h57v-564h-57v564zM119 716h59l-56 -106h-40z" />
    <glyph glyph-name="icircumflex" unicode="&#xee;" horiz-adv-x="203" 
d="M73 0v564h57v-564h-57zM128 716l49 -106h-39l-35 66l-35 -66h-39l49 106h50z" />
    <glyph glyph-name="idieresis" unicode="&#xef;" horiz-adv-x="203" 
d="M73 564h57v-564h-57v564zM2 661q0 35 35 35t35 -35q0 -34 -35 -34t-35 34zM131 661q0 35 35 35t35 -35q0 -34 -35 -34t-35 34z" />
    <glyph glyph-name="eth" unicode="&#xf0;" horiz-adv-x="453" 
d="M326 145v207q-36 38 -101 38q-100 0 -100 -103v-142q0 -103 100 -103q101 0 101 103zM382 625l-79 -41q80 -138 80 -278v-162q0 -70 -39 -112t-119 -42q-79 0 -118 42.5t-39 111.5v144q0 69 37.5 110.5t116.5 41.5q57 0 90 -29q-17 71 -60 146l-109 -57v47l86 45
q-27 41 -64 76h77q14 -14 39 -49l101 52v-46z" />
    <glyph glyph-name="ntilde" unicode="&#xf1;" horiz-adv-x="449" 
d="M129 539q67 28 117 28q62 0 98.5 -34.5t36.5 -97.5v-435h-57v432q0 82 -82 82q-51 0 -112 -29v-485h-57v565h56v-26zM303 706h46v-15q0 -69 -62 -69q-24 0 -58.5 20.5t-50.5 20.5q-22 0 -22 -31v-12h-46v15q0 31 16 50t48 19q25 0 60.5 -20.5t47.5 -20.5q21 0 21 31v12z
" />
    <glyph glyph-name="ograve" unicode="&#xf2;" horiz-adv-x="441" 
d="M63 421q0 69 39 111.5t118 42.5q80 0 119 -42t39 -112v-277q0 -70 -39 -112t-119 -42q-79 0 -118 42.5t-39 111.5v277zM321 421q0 103 -101 103q-100 0 -100 -103v-277q0 -103 100 -103q101 0 101 103v277zM147 716h59l37 -106h-40z" />
    <glyph glyph-name="oacute" unicode="&#xf3;" horiz-adv-x="441" 
d="M242 716h59l-56 -106h-40zM63 421q0 69 39 111.5t118 42.5q80 0 119 -42t39 -112v-277q0 -70 -39 -112t-119 -42q-79 0 -118 42.5t-39 111.5v277zM321 421q0 103 -101 103q-100 0 -100 -103v-277q0 -103 100 -103q101 0 101 103v277z" />
    <glyph glyph-name="ocircumflex" unicode="&#xf4;" horiz-adv-x="441" 
d="M224 676l-35 -66h-39l49 106h50l49 -106h-39zM321 144v277q0 103 -101 103q-100 0 -100 -103v-277q0 -103 100 -103q101 0 101 103zM63 144v277q0 69 39 111.5t118 42.5q80 0 119 -42t39 -112v-277q0 -70 -39 -112t-119 -42q-79 0 -118 42.5t-39 111.5z" />
    <glyph glyph-name="otilde" unicode="&#xf5;" horiz-adv-x="441" 
d="M63 421q0 69 39 111.5t118 42.5q80 0 119 -42t39 -112v-277q0 -70 -39 -112t-119 -42q-79 0 -118 42.5t-39 111.5v277zM321 421q0 103 -101 103q-100 0 -100 -103v-277q0 -103 100 -103q101 0 101 103v277zM299 706h46v-15q0 -69 -62 -69q-24 0 -58.5 20.5t-50.5 20.5
q-22 0 -22 -31v-12h-46v15q0 31 16 50t48 19q25 0 60.5 -20.5t47.5 -20.5q21 0 21 31v12z" />
    <glyph glyph-name="odieresis" unicode="&#xf6;" horiz-adv-x="441" 
d="M128 661q0 35 35 35t35 -35q0 -34 -35 -34t-35 34zM257 661q0 35 35 35t35 -35q0 -34 -35 -34t-35 34zM63 421q0 69 39 111.5t118 42.5q80 0 119 -42t39 -112v-277q0 -70 -39 -112t-119 -42q-79 0 -118 42.5t-39 111.5v277zM321 421q0 103 -101 103q-100 0 -100 -103
v-277q0 -103 100 -103q101 0 101 103v277z" />
    <glyph glyph-name="divide" unicode="&#xf7;" horiz-adv-x="427" 
d="M40 345h347v-47h-347v47zM180 149q0 36 37 36q36 0 36 -36t-36 -36q-37 0 -37 36zM180 492q0 36 37 36q36 0 36 -36t-36 -36q-37 0 -37 36z" />
    <glyph glyph-name="oslash" unicode="&#xf8;" horiz-adv-x="441" 
d="M321 144v277q0 11 -1 16l-174 -372q26 -24 74 -24q101 0 101 103zM120 421v-277q0 -18 3 -31l177 380q-23 31 -80 31q-100 0 -100 -103zM380 565l-25 -53q23 -36 23 -91v-277q0 -70 -39 -112t-119 -42q-60 0 -97 25l-7 -15h-46l21 45q-28 40 -28 99v277q0 69 39 111.5
t118 42.5q66 0 105 -30l9 20h46z" />
    <glyph glyph-name="ugrave" unicode="&#xf9;" horiz-adv-x="449" 
d="M319 565h58v-565h-56v27q-60 -30 -110 -30q-71 0 -107 37t-36 107v424h58v-421q0 -96 89 -96q13 0 25.5 2t22.5 5t19 6.5t15.5 7t11.5 6.5t7 5l3 2v483zM144 716h59l37 -106h-40z" />
    <glyph glyph-name="uacute" unicode="&#xfa;" horiz-adv-x="449" 
d="M239 716h59l-56 -106h-40zM319 565h58v-565h-56v27q-60 -30 -110 -30q-71 0 -107 37t-36 107v424h58v-421q0 -96 89 -96q13 0 25.5 2t22.5 5t19 6.5t15.5 7t11.5 6.5t7 5l3 2v483z" />
    <glyph glyph-name="ucircumflex" unicode="&#xfb;" horiz-adv-x="449" 
d="M224 676l-35 -66h-39l49 106h50l49 -106h-39zM319 565h58v-565h-56v27q-60 -30 -110 -30q-71 0 -107 37t-36 107v424h58v-421q0 -96 89 -96q13 0 25.5 2t22.5 5t19 6.5t15.5 7t11.5 6.5t7 5l3 2v483z" />
    <glyph glyph-name="udieresis" unicode="&#xfc;" horiz-adv-x="449" 
d="M125 661q0 35 35 35t35 -35q0 -34 -35 -34t-35 34zM254 661q0 35 35 35t35 -35q0 -34 -35 -34t-35 34zM319 565h58v-565h-56v27q-60 -30 -110 -30q-71 0 -107 37t-36 107v424h58v-421q0 -96 89 -96q13 0 25.5 2t22.5 5t19 6.5t15.5 7t11.5 6.5t7 5l3 2v483z" />
    <glyph glyph-name="yacute" unicode="&#xfd;" horiz-adv-x="378" 
d="M299 565h60l-159 -714h-55l31 149h-31l-126 565h60l64 -299l45 -227q23 117 46 226zM205 716h59l-56 -106h-40z" />
    <glyph glyph-name="thorn" unicode="&#xfe;" horiz-adv-x="454" 
d="M73 716h56v-177q70 28 118 28q62 0 98.5 -34.5t36.5 -97.5v-285q0 -70 -40 -110t-107 -40h-105v-177h-57v893zM324 432q0 82 -82 82q-53 0 -112 -28v-434h92q102 0 102 99v281z" />
    <glyph glyph-name="ydieresis" unicode="&#xff;" horiz-adv-x="378" 
d="M87 661q0 35 35 35t35 -35q0 -34 -35 -34t-35 34zM216 661q0 35 35 35t35 -35q0 -34 -35 -34t-35 34zM299 565h60l-159 -714h-55l31 149h-31l-126 565h60l64 -299l45 -227q23 117 46 226z" />
    <glyph glyph-name="Amacron" unicode="&#x100;" horiz-adv-x="429" 
d="M320 784v-42h-214v42h214zM133 244h163l-82 362zM351 0l-43 192h-187l-43 -192h-59l154 668h83l154 -668h-59z" />
    <glyph glyph-name="amacron" unicode="&#x101;" horiz-adv-x="423" 
d="M60 552q56 18 129 18q166 0 166 -139v-431h-56v40q-17 -14 -30.5 -22.5t-38.5 -15t-57 -6.5q-139 0 -139 135v32q0 101 120 135l145 41v92q0 44 -23.5 64.5t-87.5 20.5q-68 0 -128 -20v56zM299 89v197l-125 -35q-48 -14 -66 -34.5t-18 -55.5v-31q0 -43 20.5 -64t69.5 -21
q69 0 119 44zM98 684h214v-42h-214v42z" />
    <glyph glyph-name="Abreve" unicode="&#x102;" horiz-adv-x="429" 
d="M276 816h46q-2 -46 -30 -76t-78 -30t-78 30t-30 76h46q1 -30 17 -47t45 -17t45 17t17 47zM133 244h163l-82 362zM351 0l-43 192h-187l-43 -192h-59l154 668h83l154 -668h-59z" />
    <glyph glyph-name="abreve" unicode="&#x103;" horiz-adv-x="423" 
d="M60 552q56 18 129 18q166 0 166 -139v-431h-56v40q-17 -14 -30.5 -22.5t-38.5 -15t-57 -6.5q-139 0 -139 135v32q0 101 120 135l145 41v92q0 44 -23.5 64.5t-87.5 20.5q-68 0 -128 -20v56zM299 89v197l-125 -35q-48 -14 -66 -34.5t-18 -55.5v-31q0 -43 20.5 -64t69.5 -21
q69 0 119 44zM274 716h46q-2 -46 -30 -76t-78 -30t-78 30t-30 76h46q1 -30 17 -47t45 -17t45 17t17 47z" />
    <glyph glyph-name="Aogonek" unicode="&#x104;" horiz-adv-x="429" 
d="M133 244h163l-82 362zM410 0h-2q-50 -39 -50 -92q0 -36 38 -36h12v-44h-13q-79 0 -79 66q0 62 59 106h-24l-43 192h-187l-43 -192h-59l154 668h83z" />
    <glyph glyph-name="aogonek" unicode="&#x105;" horiz-adv-x="423" 
d="M299 89v197l-125 -35q-48 -14 -66 -34.5t-18 -55.5v-31q0 -43 20.5 -64t69.5 -21q69 0 119 44zM60 496v56q56 18 129 18q166 0 166 -139v-431h-1q-50 -39 -50 -92q0 -36 38 -36h12v-44h-13q-79 0 -79 66q0 62 59 106h-22v40q-17 -14 -30.5 -22.5t-38.5 -15t-57 -6.5
q-139 0 -139 135v32q0 101 120 135l145 41v92q0 44 -23.5 64.5t-87.5 20.5q-68 0 -128 -20z" />
    <glyph glyph-name="Cacute" unicode="&#x106;" horiz-adv-x="391" 
d="M239 816h59l-56 -106h-40zM63 535q0 138 173 138q58 0 114 -16v-54q-57 17 -114 17q-64 0 -90 -21.5t-26 -64.5v-400q0 -43 26 -64.5t90 -21.5q59 0 116 17v-54q-50 -16 -116 -16q-173 0 -173 138v402z" />
    <glyph glyph-name="cacute" unicode="&#x107;" horiz-adv-x="370" 
d="M242 716h59l-56 -106h-40zM63 432q0 138 163 138q58 0 103 -13v-53q-44 13 -101 13q-63 0 -85.5 -21t-22.5 -65v-298q0 -44 22.5 -64.5t85.5 -20.5q60 0 103 15v-54q-52 -14 -105 -14q-163 0 -163 137v300z" />
    <glyph glyph-name="Ccaron" unicode="&#x10c;" horiz-adv-x="391" 
d="M199 710l-49 106h39l35 -66l35 66h39l-49 -106h-50zM120 534v-400q0 -43 26 -64.5t90 -21.5q59 0 116 17v-54q-50 -16 -116 -16q-173 0 -173 138v402q0 138 173 138q58 0 114 -16v-54q-57 17 -114 17q-64 0 -90 -21.5t-26 -64.5z" />
    <glyph glyph-name="ccaron" unicode="&#x10d;" horiz-adv-x="370" 
d="M194 610l-49 106h39l35 -66l35 66h39l-49 -106h-50zM120 431v-298q0 -44 22.5 -64.5t85.5 -20.5q60 0 103 15v-54q-52 -14 -105 -14q-163 0 -163 137v300q0 138 163 138q58 0 103 -13v-53q-44 13 -101 13q-63 0 -85.5 -21t-22.5 -65z" />
    <glyph glyph-name="Dcaron" unicode="&#x10e;" horiz-adv-x="461" 
d="M199 710l-49 106h39l35 -66l35 66h39l-49 -106h-50zM340 152v365q0 100 -103 100h-107v-566h107q103 0 103 101zM73 668h165q79 0 119.5 -41t40.5 -109v-367q0 -69 -40 -110t-119 -41h-166v668z" />
    <glyph glyph-name="dcaron" unicode="&#x10f;" horiz-adv-x="447" 
d="M314 716h58v-716h-57v32q-43 -35 -109 -35q-71 0 -107 37t-36 107v279q0 69 41 107t108 38h102v151zM314 87v425h-90q-104 0 -104 -92v-278q0 -93 90 -93q66 0 104 38zM439 714h25q26 0 26 -25q0 -22 -45 -91h-33z" />
    <glyph glyph-name="Dcroat" unicode="&#x110;" horiz-adv-x="461" 
d="M341 152v365q0 100 -103 100h-107v-257h109v-51h-109v-258h107q103 0 103 101zM74 668h165q79 0 119.5 -41t40.5 -109v-367q0 -69 -40 -110t-119 -41h-166v309h-61v51h61v308z" />
    <glyph glyph-name="dcroat" unicode="&#x111;" horiz-adv-x="445" 
d="M314 87v425h-90q-104 0 -104 -92v-278q0 -93 90 -93q66 0 104 38zM412 669v-43h-40v-626h-57v32q-43 -35 -109 -35q-71 0 -107 37t-36 107v279q0 69 41 107t108 38h102v61h-123v43h123v47h58v-47h40z" />
    <glyph glyph-name="Emacron" unicode="&#x112;" horiz-adv-x="393" 
d="M73 668h281v-51h-224v-255h196v-51h-196v-260h224v-51h-281v668zM108 784h214v-42h-214v42z" />
    <glyph glyph-name="emacron" unicode="&#x113;" horiz-adv-x="437" 
d="M329 684v-42h-214v42h214zM120 301h203v119q0 104 -102 104q-101 0 -101 -104v-119zM63 141v280q0 69 39.5 111.5t118.5 42.5q80 0 119 -42.5t39 -111.5v-170h-259v-109q0 -47 30.5 -70.5t98.5 -23.5q53 0 113 18v-56q-52 -15 -114 -15q-185 0 -185 146z" />
    <glyph glyph-name="Edotaccent" unicode="&#x116;" horiz-adv-x="393" 
d="M73 668h281v-51h-224v-255h196v-51h-196v-260h224v-51h-281v668zM184 788q0 35 35 35t35 -35t-35 -35t-35 35z" />
    <glyph glyph-name="edotaccent" unicode="&#x117;" horiz-adv-x="437" 
d="M224 653q-35 0 -35 35t35 35t35 -35t-35 -35zM120 301h203v119q0 104 -102 104q-101 0 -101 -104v-119zM63 141v280q0 69 39.5 111.5t118.5 42.5q80 0 119 -42.5t39 -111.5v-170h-259v-109q0 -47 30.5 -70.5t98.5 -23.5q53 0 113 18v-56q-52 -15 -114 -15
q-185 0 -185 146z" />
    <glyph glyph-name="Eogonek" unicode="&#x118;" horiz-adv-x="393" 
d="M354 617h-224v-255h196v-51h-196v-260h224v-51h-1q-50 -39 -50 -92q0 -36 38 -36h12v-44h-13q-79 0 -79 66q0 62 59 106h-247v668h281v-51z" />
    <glyph glyph-name="eogonek" unicode="&#x119;" horiz-adv-x="437" 
d="M120 301h203v119q0 104 -102 104q-101 0 -101 -104v-119zM63 141v280q0 69 39.5 111.5t118.5 42.5q80 0 119 -42.5t39 -111.5v-170h-259v-109q0 -47 30.5 -70.5t98.5 -23.5q53 0 113 18v-56h-2q-49 -39 -49 -92q0 -36 38 -36h12v-44h-13q-79 0 -79 66q0 52 47 96
q-33 -5 -68 -5q-185 0 -185 146z" />
    <glyph glyph-name="Ecaron" unicode="&#x11a;" horiz-adv-x="393" 
d="M191 710l-49 106h39l35 -66l35 66h39l-49 -106h-50zM354 617h-224v-255h196v-51h-196v-260h224v-51h-281v668h281v-51z" />
    <glyph glyph-name="ecaron" unicode="&#x11b;" horiz-adv-x="437" 
d="M200 610l-49 106h39l35 -66l35 66h39l-49 -106h-50zM120 301h203v119q0 104 -102 104q-101 0 -101 -104v-119zM63 141v280q0 69 39.5 111.5t118.5 42.5q80 0 119 -42.5t39 -111.5v-170h-259v-109q0 -47 30.5 -70.5t98.5 -23.5q53 0 113 18v-56q-52 -15 -114 -15
q-185 0 -185 146z" />
    <glyph glyph-name="Gbreve" unicode="&#x11e;" horiz-adv-x="445" 
d="M63 530q0 143 178 143q62 0 118 -16v-56q-59 19 -117 19q-66 0 -94 -23t-28 -69v-394q0 -87 101 -87q67 0 100 23v253h57v-289q-68 -39 -157 -39q-71 0 -114.5 32.5t-43.5 105.5v397zM287 816h46q-2 -46 -30 -76t-78 -30t-78 30t-30 76h46q1 -30 17 -47t45 -17t45 17
t17 47z" />
    <glyph glyph-name="gbreve" unicode="&#x11f;" horiz-adv-x="445" 
d="M275 716h46q-2 -46 -30 -76t-78 -30t-78 30t-30 76h46q1 -30 17 -47t45 -17t45 17t17 47zM315 352v79q0 47 -25 70t-80 23q-56 0 -80.5 -23t-24.5 -70v-79q0 -47 24.5 -70t80.5 -23q55 0 80 23t25 70zM421 546h-33q-30 0 -49 -17q33 -36 33 -98v-79q0 -68 -40.5 -106
t-121.5 -38q-62 0 -62 -58q0 -26 16 -38t54 -12h59q135 0 135 -114v-12q0 -123 -177 -123h-40q-98 0 -152 29v57q61 -35 151 -35h39q122 0 122 72v10q0 33 -15.5 49.5t-63.5 16.5h-60q-58 0 -89 22t-31 63v16q0 50 49 65q-98 26 -98 136v79q0 68 40.5 106t122.5 38
q69 0 109 -28q18 57 87 57h15v-58z" />
    <glyph glyph-name="uni0122" unicode="&#x122;" horiz-adv-x="445" 
d="M63 530q0 143 178 143q62 0 118 -16v-56q-59 19 -117 19q-66 0 -94 -23t-28 -69v-394q0 -87 101 -87q67 0 100 23v253h57v-289q-68 -39 -157 -39q-71 0 -114.5 32.5t-43.5 105.5v397zM213 -61h25q25 0 25 -25q0 -27 -45 -91h-32z" />
    <glyph glyph-name="uni0123" unicode="&#x123;" horiz-adv-x="445" 
d="M235 610h-25q-26 0 -26 24q0 23 45 92h32zM315 352v79q0 47 -25 70t-80 23q-56 0 -80.5 -23t-24.5 -70v-79q0 -47 24.5 -70t80.5 -23q55 0 80 23t25 70zM421 546h-33q-30 0 -49 -17q33 -36 33 -98v-79q0 -68 -40.5 -106t-121.5 -38q-62 0 -62 -58q0 -26 16 -38t54 -12h59
q135 0 135 -114v-12q0 -123 -177 -123h-40q-98 0 -152 29v57q61 -35 151 -35h39q122 0 122 72v10q0 33 -15.5 49.5t-63.5 16.5h-60q-58 0 -89 22t-31 63v16q0 50 49 65q-98 26 -98 136v79q0 68 40.5 106t122.5 38q69 0 109 -28q18 57 87 57h15v-58z" />
    <glyph glyph-name="Imacron" unicode="&#x12a;" horiz-adv-x="203" 
d="M73 668h57v-668h-57v668zM-4 784h214v-42h-214v42z" />
    <glyph glyph-name="imacron" unicode="&#x12b;" horiz-adv-x="203" 
d="M73 564h57v-564h-57v564zM-5 684h214v-42h-214v42z" />
    <glyph glyph-name="Iogonek" unicode="&#x12e;" horiz-adv-x="203" 
d="M130 668v-668q-50 -39 -50 -92q0 -36 38 -36h12v-44h-13q-79 0 -79 66q0 62 59 106h-24v668h57z" />
    <glyph glyph-name="iogonek" unicode="&#x12f;" horiz-adv-x="203" 
d="M102 637q-37 0 -37 41q0 40 37 40q36 0 36 -40q0 -41 -36 -41zM73 0v564h57v-564q-50 -39 -50 -92q0 -36 38 -36h12v-44h-13q-79 0 -79 66q0 62 59 106h-24z" />
    <glyph glyph-name="Idotaccent" unicode="&#x130;" horiz-adv-x="203" 
d="M73 668h57v-668h-57v668zM64 788q0 35 35 35t35 -35t-35 -35t-35 35z" />
    <glyph glyph-name="dotlessi" unicode="&#x131;" horiz-adv-x="203" 
d="M73 564h57v-564h-57v564z" />
    <glyph glyph-name="uni0136" unicode="&#x136;" horiz-adv-x="424" 
d="M335 668h63l-144 -334l151 -334h-64l-149 332zM73 668h57v-668h-57v668zM204 -61h25q26 0 26 -25q0 -22 -45 -91h-32z" />
    <glyph glyph-name="uni0137" unicode="&#x137;" horiz-adv-x="397" 
d="M307 565h63l-132 -272l140 -293h-64l-140 291zM73 716h57v-716h-57v716zM188 -61h24q26 0 26 -25q0 -27 -45 -91h-32z" />
    <glyph glyph-name="Lacute" unicode="&#x139;" horiz-adv-x="343" 
d="M116 816h59l-56 -106h-40zM73 668h57v-617h208v-51h-265v668z" />
    <glyph glyph-name="lacute" unicode="&#x13a;" horiz-adv-x="203" 
d="M117 866h59l-56 -106h-40zM73 716h57v-716h-57v716z" />
    <glyph glyph-name="uni013B" unicode="&#x13b;" horiz-adv-x="343" 
d="M73 668h57v-617h208v-51h-265v668zM182 -61h25q25 0 25 -25q0 -27 -45 -91h-32z" />
    <glyph glyph-name="uni013C" unicode="&#x13c;" horiz-adv-x="203" 
d="M73 716h57v-716h-57v716zM79 -61h25q26 0 26 -25q0 -22 -45 -91h-33z" />
    <glyph glyph-name="Lcaron" unicode="&#x13d;" horiz-adv-x="343" 
d="M199 714h25q25 0 25 -25q0 -27 -45 -91h-32zM73 668h57v-617h208v-51h-265v668z" />
    <glyph glyph-name="lcaron" unicode="&#x13e;" horiz-adv-x="203" 
d="M73 716h57v-716h-57v716zM199 714h25q25 0 25 -25q0 -27 -45 -91h-32z" />
    <glyph glyph-name="Lslash" unicode="&#x141;" horiz-adv-x="343" 
d="M131 51h208v-51h-265v282l-56 -30v49l56 30v337h57v-306l99 54v-49l-99 -54v-262z" />
    <glyph glyph-name="lslash" unicode="&#x142;" horiz-adv-x="203" 
d="M188 565v-49l-58 -35v-481h-57v447l-57 -34v49l57 34v220h57v-186z" />
    <glyph glyph-name="Nacute" unicode="&#x143;" horiz-adv-x="494" 
d="M268 816h59l-56 -106h-40zM364 668h57v-668h-72l-144 366q-66 172 -80 206q0 -23 1.5 -94t2.5 -115v-363h-56v668h71l145 -368q15 -40 42 -109t37 -96q0 23 -1.5 94t-2.5 115v364z" />
    <glyph glyph-name="nacute" unicode="&#x144;" horiz-adv-x="449" 
d="M245 716h59l-56 -106h-40zM129 539q67 28 117 28q62 0 98.5 -34.5t36.5 -97.5v-435h-57v432q0 82 -82 82q-51 0 -112 -29v-485h-57v565h56v-26z" />
    <glyph glyph-name="uni0145" unicode="&#x145;" horiz-adv-x="494" 
d="M364 668h57v-668h-72l-144 366q-66 172 -80 206q0 -23 1.5 -94t2.5 -115v-363h-56v668h71l145 -368q15 -40 42 -109t37 -96q0 23 -1.5 94t-2.5 115v364zM212 -61h25q25 0 25 -25q0 -27 -45 -91h-32z" />
    <glyph glyph-name="uni0146" unicode="&#x146;" horiz-adv-x="449" 
d="M129 539q67 28 117 28q62 0 98.5 -34.5t36.5 -97.5v-435h-57v432q0 82 -82 82q-51 0 -112 -29v-485h-57v565h56v-26zM195 -61h25q26 0 26 -25q0 -22 -45 -91h-33z" />
    <glyph glyph-name="Ncaron" unicode="&#x147;" horiz-adv-x="494" 
d="M225 710l-49 106h39l35 -66l35 66h39l-49 -106h-50zM364 668h57v-668h-72l-144 366q-66 172 -80 206q0 -23 1.5 -94t2.5 -115v-363h-56v668h71l145 -368q15 -40 42 -109t37 -96q0 23 -1.5 94t-2.5 115v364z" />
    <glyph glyph-name="ncaron" unicode="&#x148;" horiz-adv-x="449" 
d="M198 610l-49 106h39l35 -66l35 66h39l-49 -106h-50zM129 565v-26q67 28 117 28q62 0 98.5 -34.5t36.5 -97.5v-435h-57v432q0 82 -82 82q-51 0 -112 -29v-485h-57v565h56z" />
    <glyph glyph-name="Omacron" unicode="&#x14c;" horiz-adv-x="451" 
d="M120 784h214v-42h-214v42zM63 523q0 70 41 112.5t122 42.5t121.5 -42.5t40.5 -112.5v-378q0 -70 -40.5 -112.5t-121.5 -42.5t-122 42.5t-41 112.5v378zM331 522q0 104 -105 104q-106 0 -106 -104v-376q0 -104 106 -104q105 0 105 104v376z" />
    <glyph glyph-name="omacron" unicode="&#x14d;" horiz-adv-x="441" 
d="M112 684h214v-42h-214v42zM63 421q0 69 39 111.5t118 42.5q80 0 119 -42t39 -112v-277q0 -70 -39 -112t-119 -42q-79 0 -118 42.5t-39 111.5v277zM321 421q0 103 -101 103q-100 0 -100 -103v-277q0 -103 100 -103q101 0 101 103v277z" />
    <glyph glyph-name="Ohungarumlaut" unicode="&#x150;" horiz-adv-x="451" 
d="M283 816h57l-57 -106h-38zM203 816h57l-57 -106h-38zM63 523q0 70 41 112.5t122 42.5t121.5 -42.5t40.5 -112.5v-378q0 -70 -40.5 -112.5t-121.5 -42.5t-122 42.5t-41 112.5v378zM331 522q0 104 -105 104q-106 0 -106 -104v-376q0 -104 106 -104q105 0 105 104v376z" />
    <glyph glyph-name="ohungarumlaut" unicode="&#x151;" horiz-adv-x="441" 
d="M284 716h57l-57 -106h-38zM204 716h57l-57 -106h-38zM63 421q0 69 39 111.5t118 42.5q80 0 119 -42t39 -112v-277q0 -70 -39 -112t-119 -42q-79 0 -118 42.5t-39 111.5v277zM321 421q0 103 -101 103q-100 0 -100 -103v-277q0 -103 100 -103q101 0 101 103v277z" />
    <glyph glyph-name="OE" unicode="&#x152;" horiz-adv-x="663" 
d="M244 51h108v566h-108q-104 0 -104 -100v-365q0 -101 104 -101zM633 617h-224v-255h196v-51h-196v-260h224v-51h-391q-80 0 -119.5 41t-39.5 110v367q0 68 40.5 109t119.5 41h390v-51z" />
    <glyph glyph-name="oe" unicode="&#x153;" horiz-adv-x="708" 
d="M387 301h203v119q0 104 -102 104q-101 0 -101 -104v-119zM330 144v277q0 103 -100 103q-101 0 -101 -103v-277q0 -103 101 -103q100 0 100 103zM72 144v277q0 70 39 112t119 42q89 0 129 -55q40 55 129 55q80 0 119 -42.5t39 -111.5v-170h-259v-109q0 -47 30.5 -70.5
t98.5 -23.5q53 0 113 18v-56q-53 -15 -114 -15q-111 0 -155 52q-39 -57 -130 -57q-80 0 -119 42t-39 112z" />
    <glyph glyph-name="Racute" unicode="&#x154;" horiz-adv-x="452" 
d="M304 816l-56 -106h-40l37 106h59zM130 326h94q104 0 104 98v93q0 100 -104 100h-94v-291zM405 0h-63l-99 273h-16h-97v-273h-57v668h153q79 0 119.5 -41t40.5 -109v-94q0 -107 -86 -139z" />
    <glyph glyph-name="racute" unicode="&#x155;" horiz-adv-x="276" 
d="M189 716h59l-56 -106h-40zM245 568h26v-56h-35q-8 0 -15 -1t-12 -1.5t-12.5 -4t-11 -5t-12.5 -7.5l-12 -8t-14.5 -10.5t-16.5 -11.5v-463h-57v565h56v-44q44 33 65 40t51 7z" />
    <glyph glyph-name="uni0156" unicode="&#x156;" horiz-adv-x="452" 
d="M201 -61h25q25 0 25 -25q0 -27 -45 -91h-32zM130 326h94q104 0 104 98v93q0 100 -104 100h-94v-291zM300 285l105 -285h-63l-99 273h-16h-97v-273h-57v668h153q79 0 119.5 -41t40.5 -109v-94q0 -107 -86 -139z" />
    <glyph glyph-name="uni0157" unicode="&#x157;" horiz-adv-x="276" 
d="M245 568h26v-56h-35q-8 0 -15 -1t-12 -1.5t-12.5 -4t-11 -5t-12.5 -7.5l-12 -8t-14.5 -10.5t-16.5 -11.5v-463h-57v565h56v-44q44 33 65 40t51 7zM79 -61h25q26 0 26 -25q0 -22 -45 -91h-33z" />
    <glyph glyph-name="Rcaron" unicode="&#x158;" horiz-adv-x="452" 
d="M198 710l-49 106h39l35 -66l35 66h39l-49 -106h-50zM130 326h94q104 0 104 98v93q0 100 -104 100h-94v-291zM405 0h-63l-99 273h-16h-97v-273h-57v668h153q79 0 119.5 -41t40.5 -109v-94q0 -107 -86 -139z" />
    <glyph glyph-name="rcaron" unicode="&#x159;" horiz-adv-x="276" 
d="M149 610l-49 106h39l35 -66l35 66h39l-49 -106h-50zM245 568h26v-56h-35q-8 0 -15 -1t-12 -1.5t-12.5 -4t-11 -5t-12.5 -7.5l-12 -8t-14.5 -10.5t-16.5 -11.5v-463h-57v565h56v-44q44 33 65 40t51 7z" />
    <glyph glyph-name="Sacute" unicode="&#x15a;" horiz-adv-x="379" 
d="M206 816h59l-56 -106h-40zM29 537q0 64 42.5 100t124.5 36q74 0 125 -15v-56q-47 18 -125 18q-109 0 -109 -83v-54q0 -35 14 -57t46 -40l117 -65q81 -44 81 -132v-53q0 -67 -45 -104t-135 -37q-80 0 -131 19v56q57 -22 130 -22q123 0 123 90v46q0 35 -12 55t-45 37
l-116 64q-85 46 -85 138v59z" />
    <glyph glyph-name="sacute" unicode="&#x15b;" horiz-adv-x="357" 
d="M201 716h59l-56 -106h-40zM29 435q0 68 38.5 101.5t126.5 33.5q56 0 109 -17v-54q-54 18 -108 18q-65 0 -86.5 -19t-21.5 -64v-28q0 -36 13.5 -54.5t48.5 -33.5l86 -40q46 -21 69 -49t23 -72v-26q0 -136 -175 -136q-65 0 -118 17v54q54 -18 116 -18q66 0 93 20.5t27 62.5
v22q0 30 -13.5 46.5t-52.5 33.5l-89 41q-86 37 -86 126v35z" />
    <glyph glyph-name="uni015E" unicode="&#x15e;" horiz-adv-x="379" 
d="M29 537q0 64 42.5 100t124.5 36q74 0 125 -15v-56q-47 18 -125 18q-109 0 -109 -83v-54q0 -35 14 -57t46 -40l117 -65q81 -44 81 -132v-53q0 -67 -45 -104t-135 -37q-80 0 -131 19v56q57 -22 130 -22q123 0 123 90v46q0 35 -12 55t-45 37l-116 64q-85 46 -85 138v59z
M155 -61h24q26 0 26 -25q0 -22 -45 -91h-32z" />
    <glyph glyph-name="uni015F" unicode="&#x15f;" horiz-adv-x="357" 
d="M29 435q0 68 38.5 101.5t126.5 33.5q56 0 109 -17v-54q-54 18 -108 18q-65 0 -86.5 -19t-21.5 -64v-28q0 -36 13.5 -54.5t48.5 -33.5l86 -40q46 -21 69 -49t23 -72v-26q0 -136 -175 -136q-65 0 -118 17v54q54 -18 116 -18q66 0 93 20.5t27 62.5v22q0 30 -13.5 46.5
t-52.5 33.5l-89 41q-86 37 -86 126v35zM149 -61h25q26 0 26 -25q0 -22 -45 -91h-33z" />
    <glyph glyph-name="Scaron" unicode="&#x160;" horiz-adv-x="379" 
d="M172 710l-49 106h39l35 -66l35 66h39l-49 -106h-50zM147 386l117 -65q81 -44 81 -132v-53q0 -67 -45 -104t-135 -37q-80 0 -131 19v56q57 -22 130 -22q123 0 123 90v46q0 35 -12 55t-45 37l-116 64q-85 46 -85 138v59q0 64 42.5 100t124.5 36q74 0 125 -15v-56
q-47 18 -125 18q-109 0 -109 -83v-54q0 -35 14 -57t46 -40z" />
    <glyph glyph-name="scaron" unicode="&#x161;" horiz-adv-x="357" 
d="M154 610l-49 106h39l35 -66l35 66h39l-49 -106h-50zM149 318l86 -40q46 -21 69 -49t23 -72v-26q0 -136 -175 -136q-65 0 -118 17v54q54 -18 116 -18q66 0 93 20.5t27 62.5v22q0 30 -13.5 46.5t-52.5 33.5l-89 41q-86 37 -86 126v35q0 68 38.5 101.5t126.5 33.5
q56 0 109 -17v-54q-54 18 -108 18q-65 0 -86.5 -19t-21.5 -64v-28q0 -36 13.5 -54.5t48.5 -33.5z" />
    <glyph glyph-name="uni0162" unicode="&#x162;" horiz-adv-x="340" 
d="M149 -61h24q26 0 26 -25q0 -22 -45 -91h-32zM330 668v-51h-131v-617h-58v617h-131v51h320z" />
    <glyph glyph-name="uni0163" unicode="&#x163;" horiz-adv-x="286" 
d="M87 669h40v-104h133v-51h-133v-394q0 -39 18.5 -55.5t55.5 -16.5q43 0 70 11v-53q-30 -9 -73 -9q-63 0 -96 31t-33 90v396h-64v51h66zM149 -61h25q26 0 26 -25q0 -22 -45 -91h-33z" />
    <glyph glyph-name="Tcaron" unicode="&#x164;" horiz-adv-x="340" 
d="M144 710l-49 106h39l35 -66l35 66h39l-49 -106h-50zM330 668v-51h-131v-617h-58v617h-131v51h320z" />
    <glyph glyph-name="tcaron" unicode="&#x165;" horiz-adv-x="286" 
d="M250 765h22q23 0 23 -21q0 -24 -49 -129h-26zM87 669h40v-104h133v-51h-133v-394q0 -39 18.5 -55.5t55.5 -16.5q43 0 70 11v-53q-30 -9 -73 -9q-63 0 -96 31t-33 90v396h-64v51h66z" />
    <glyph glyph-name="Umacron" unicode="&#x16a;" horiz-adv-x="461" 
d="M335 668h58v-523q0 -70 -41 -112.5t-122 -42.5t-121.5 42.5t-40.5 112.5v523h57v-522q0 -104 105 -104t105 104v522zM123 784h214v-42h-214v42z" />
    <glyph glyph-name="umacron" unicode="&#x16b;" horiz-adv-x="449" 
d="M319 565h58v-565h-56v27q-60 -30 -110 -30q-71 0 -107 37t-36 107v424h58v-421q0 -96 89 -96q13 0 25.5 2t22.5 5t19 6.5t15.5 7t11.5 6.5t7 5l3 2v483zM113 684h214v-42h-214v42z" />
    <glyph glyph-name="Uring" unicode="&#x16e;" horiz-adv-x="461" 
d="M160 763q0 31 19.5 51t53.5 20t53.5 -20t19.5 -51t-19.5 -51.5t-53.5 -20.5q-33 0 -53 21t-20 51zM269 763q0 36 -36 36t-36 -36q0 -17 9.5 -27t26.5 -10t26.5 10t9.5 27zM335 668h58v-523q0 -70 -41 -112.5t-122 -42.5t-121.5 42.5t-40.5 112.5v523h57v-522
q0 -104 105 -104t105 104v522z" />
    <glyph glyph-name="uring" unicode="&#x16f;" horiz-adv-x="449" 
d="M152 663q0 31 19.5 51t53.5 20t53.5 -20t19.5 -51t-19.5 -51.5t-53.5 -20.5q-33 0 -53 21t-20 51zM261 663q0 36 -36 36t-36 -36q0 -17 9.5 -27t26.5 -10t26.5 10t9.5 27zM319 565h58v-565h-56v27q-60 -30 -110 -30q-71 0 -107 37t-36 107v424h58v-421q0 -96 89 -96
q13 0 25.5 2t22.5 5t19 6.5t15.5 7t11.5 6.5t7 5l3 2v483z" />
    <glyph glyph-name="Uhungarumlaut" unicode="&#x170;" horiz-adv-x="461" 
d="M335 668h58v-523q0 -70 -41 -112.5t-122 -42.5t-121.5 42.5t-40.5 112.5v523h57v-522q0 -104 105 -104t105 104v522zM280 816h57l-57 -106h-38zM200 816h57l-57 -106h-38z" />
    <glyph glyph-name="uhungarumlaut" unicode="&#x171;" horiz-adv-x="449" 
d="M319 565h58v-565h-56v27q-60 -30 -110 -30q-71 0 -107 37t-36 107v424h58v-421q0 -96 89 -96q13 0 25.5 2t22.5 5t19 6.5t15.5 7t11.5 6.5t7 5l3 2v483zM277 716h57l-57 -106h-38zM197 716h57l-57 -106h-38z" />
    <glyph glyph-name="Uogonek" unicode="&#x172;" horiz-adv-x="461" 
d="M335 668h58v-523q0 -102 -78 -138q-46 -38 -46 -89q0 -36 38 -36h12v-44h-13q-79 0 -79 66q0 48 39 89q-16 -3 -36 -3q-81 0 -121.5 42.5t-40.5 112.5v523h57v-522q0 -104 105 -104t105 104v522z" />
    <glyph glyph-name="uogonek" unicode="&#x173;" horiz-adv-x="449" 
d="M319 565h58v-565h-1q-50 -39 -50 -92q0 -36 38 -36h12v-44h-13q-79 0 -79 66q0 62 59 106h-22v27q-60 -30 -110 -30q-71 0 -107 37t-36 107v424h58v-421q0 -96 89 -96q13 0 25.5 2t22.5 5t19 6.5t15.5 7t11.5 6.5t7 5l3 2v483z" />
    <glyph glyph-name="Ydieresis" unicode="&#x178;" horiz-adv-x="397" 
d="M93 761q0 35 35 35t35 -35q0 -34 -35 -34t-35 34zM222 761q0 35 35 35t35 -35q0 -34 -35 -34t-35 34zM333 668h59l-165 -439v-229h-57v229l-165 439h59l74 -195q10 -26 30.5 -84.5t31.5 -88.5q6 19 60 172z" />
    <glyph glyph-name="Zacute" unicode="&#x179;" horiz-adv-x="375" 
d="M203 816h59l-56 -106h-40zM35 668h311v-51l-256 -566h250v-51h-311v51l255 566h-249v51z" />
    <glyph glyph-name="zacute" unicode="&#x17a;" horiz-adv-x="313" 
d="M174 716h59l-56 -106h-40zM26 565h267v-48l-217 -466h216v-51h-272v49l213 465h-207v51z" />
    <glyph glyph-name="Zdotaccent" unicode="&#x17b;" horiz-adv-x="375" 
d="M35 668h311v-51l-256 -566h250v-51h-311v51l255 566h-249v51zM150 788q0 35 35 35t35 -35t-35 -35t-35 35z" />
    <glyph glyph-name="zdotaccent" unicode="&#x17c;" horiz-adv-x="313" 
d="M26 565h267v-48l-217 -466h216v-51h-272v49l213 465h-207v51zM132 688q0 35 35 35t35 -35t-35 -35t-35 35z" />
    <glyph glyph-name="Zcaron" unicode="&#x17d;" horiz-adv-x="375" 
d="M167 710l-49 106h39l35 -66l35 66h39l-49 -106h-50zM346 668v-51l-256 -566h250v-51h-311v51l255 566h-249v51h311z" />
    <glyph glyph-name="zcaron" unicode="&#x17e;" horiz-adv-x="313" 
d="M140 610l-49 106h39l35 -66l35 66h39l-49 -106h-50zM293 565v-48l-217 -466h216v-51h-272v49l213 465h-207v51h267z" />
    <glyph glyph-name="florin" unicode="&#x192;" horiz-adv-x="291" 
d="M125 477l19 110q11 66 40.5 98t91.5 32q18 0 27 -1v-50q-8 1 -25 1q-35 0 -51.5 -18.5t-24.5 -61.5l-19 -110h76v-50h-84l-51 -301q-11 -66 -40.5 -98t-91.5 -32q-4 0 -11 0.5t-11 0.5v51q4 0 10 -0.5t10 -0.5q35 0 52 18t24 61l51 301h-79v50h87z" />
    <glyph glyph-name="uni0218" unicode="&#x218;" horiz-adv-x="379" 
d="M29 537q0 64 42.5 100t124.5 36q74 0 125 -15v-56q-47 18 -125 18q-109 0 -109 -83v-54q0 -35 14 -57t46 -40l117 -65q81 -44 81 -132v-53q0 -67 -45 -104t-135 -37q-80 0 -131 19v56q57 -22 130 -22q123 0 123 90v46q0 35 -12 55t-45 37l-116 64q-85 46 -85 138v59z
M156 -61h25q26 0 26 -25q0 -22 -45 -91h-33z" />
    <glyph glyph-name="uni0219" unicode="&#x219;" horiz-adv-x="357" 
d="M29 435q0 68 38.5 101.5t126.5 33.5q56 0 109 -17v-54q-54 18 -108 18q-65 0 -86.5 -19t-21.5 -64v-28q0 -36 13.5 -54.5t48.5 -33.5l86 -40q46 -21 69 -49t23 -72v-26q0 -136 -175 -136q-65 0 -118 17v54q54 -18 116 -18q66 0 93 20.5t27 62.5v22q0 30 -13.5 46.5
t-52.5 33.5l-89 41q-86 37 -86 126v35zM158 -61h25q26 0 26 -25q0 -22 -45 -91h-33z" />
    <glyph glyph-name="uni021A" unicode="&#x21a;" horiz-adv-x="340" 
d="M144 -61h25q26 0 26 -25t-46 -91h-32zM330 668v-51h-131v-617h-58v617h-131v51h320z" />
    <glyph glyph-name="uni021B" unicode="&#x21b;" horiz-adv-x="286" 
d="M87 669h40v-104h133v-51h-133v-394q0 -39 18.5 -55.5t55.5 -16.5q43 0 70 11v-53q-30 -9 -73 -9q-63 0 -96 31t-33 90v396h-64v51h66zM152 -61h25q26 0 26 -25t-46 -91h-32z" />
    <glyph glyph-name="apostrophemod" unicode="&#x2bc;" horiz-adv-x="151" 
d="M70 710h22q30 0 30 -29q0 -41 -58 -164h-34z" />
    <glyph glyph-name="circumflex" unicode="&#x2c6;" horiz-adv-x="350" 
d="M249 610h-39l-35 66l-35 -66h-39l49 106h50z" />
    <glyph glyph-name="caron" unicode="&#x2c7;" horiz-adv-x="350" 
d="M210 716h39l-49 -106h-50l-49 106h39l35 -66z" />
    <glyph glyph-name="uni02C9" unicode="&#x2c9;" horiz-adv-x="350" 
d="M68 684h214v-42h-214v42z" />
    <glyph glyph-name="breve" unicode="&#x2d8;" horiz-adv-x="350" 
d="M237 716h46q-2 -46 -30 -76t-78 -30t-78 30t-30 76h46q1 -30 17 -47t45 -17t45 17t17 47z" />
    <glyph glyph-name="dotaccent" unicode="&#x2d9;" horiz-adv-x="350" 
d="M138 688q0 35 35 35t35 -35t-35 -35t-35 35z" />
    <glyph glyph-name="ring" unicode="&#x2da;" horiz-adv-x="350" 
d="M102 663q0 31 19.5 51t53.5 20t53.5 -20t19.5 -51t-19.5 -51.5t-53.5 -20.5q-33 0 -53 21t-20 51zM211 663q0 36 -36 36t-36 -36q0 -17 9.5 -27t26.5 -10t26.5 10t9.5 27z" />
    <glyph glyph-name="ogonek" unicode="&#x2db;" horiz-adv-x="350" 
d="M188 0h33q-50 -39 -50 -92q0 -36 38 -36h12v-44h-13q-79 0 -79 66q0 62 59 106z" />
    <glyph glyph-name="tilde" unicode="&#x2dc;" horiz-adv-x="350" 
d="M248 706h46v-15q0 -69 -62 -69q-24 0 -58.5 20.5t-50.5 20.5q-22 0 -22 -31v-12h-46v15q0 31 16 50t48 19q25 0 60.5 -20.5t47.5 -20.5q21 0 21 31v12z" />
    <glyph glyph-name="hungarumlaut" unicode="&#x2dd;" horiz-adv-x="350" 
d="M205 716h57l-57 -106h-38zM125 716h57l-57 -106h-38z" />
    <glyph glyph-name="pi" unicode="&#x3c0;" horiz-adv-x="444" 
d="M-2 565h448v-51h-70v-514h-57v514h-194v-514h-57v514h-70v51z" />
    <glyph glyph-name="dvCandrabindu" unicode="&#x901;" horiz-adv-x="0" 
d="M-139 856q0 36 35 36q36 0 36 -36t-36 -36q-35 0 -35 36zM-1 826h49v-2q0 -62 -37.5 -87.5t-114.5 -25.5t-114 25.5t-37 87.5v2h49q0 -40 23 -54.5t79 -14.5t79.5 14.5t23.5 54.5z" />
    <glyph glyph-name="dvAnusvara" unicode="&#x902;" horiz-adv-x="0" 
d="M-140 763q0 36 36 36t36 -36t-36 -36t-36 36z" />
    <glyph glyph-name="dvVisarga" unicode="&#x903;" horiz-adv-x="193" 
d="M43 379q0 36 36 36t36 -36t-36 -36t-36 36zM43 36q0 36 36 36t36 -36t-36 -36t-36 36z" />
    <glyph glyph-name="dvA" unicode="&#x905;" horiz-adv-x="554" 
d="M425 646h151v-46h-99v-600h-52v213h-125v-49q0 -61 -39 -95.5t-112 -34.5q-56 0 -113 15v50q57 -16 113 -16q99 0 99 81v77q0 39 -17.5 60t-70.5 22h-61v49h61q53 1 70.5 22t17.5 60v67q0 82 -99 82q-50 0 -103 -19v52q47 15 103 15q73 0 112 -34t39 -95v-68
q0 -87 -54 -106q49 -20 53 -89h126v387z" />
    <glyph glyph-name="dvAA" unicode="&#x906;" horiz-adv-x="788" 
d="M810 646v-46h-99v-600h-52v600h-154v-600h-52v213h-125v-49q0 -61 -39 -95.5t-112 -34.5q-56 0 -113 15v50q57 -16 113 -16q99 0 99 81v77q0 39 -17.5 60t-70.5 22h-61v49h61q53 1 70.5 22t17.5 60v67q0 82 -99 82q-50 0 -103 -19v52q47 15 103 15q73 0 112 -34t39 -95
v-68q0 -87 -54 -106q49 -20 53 -89h126v387h357z" />
    <glyph glyph-name="dvI" unicode="&#x907;" horiz-adv-x="395" 
d="M103 171v-83q36 -8 94 -8q102 0 102 71v41q0 35 -20 53t-71 18h-22q-142 0 -142 118v6q0 117 142 117h84v96h-292v46h438v-46h-94v-144h-136q-51 0 -70.5 -17t-19.5 -52v-6q0 -35 20 -53t70 -18h22q143 0 143 -118v-41q0 -61 -37 -90t-116 -29q-56 0 -95 9v-104h-50v234
h50z" />
    <glyph glyph-name="dvII" unicode="&#x908;" horiz-adv-x="395" 
d="M322 456h-136q-51 0 -70.5 -17t-19.5 -52v-6q0 -35 20 -53t70 -18h22q143 0 143 -118v-41q0 -61 -37 -90t-116 -29q-56 0 -95 9v-104h-50v234h50v-83q36 -8 94 -8q102 0 102 71v41q0 35 -20 53t-71 18h-22q-142 0 -142 118v6q0 117 142 117h84v96h-292v46h286
q-36 66 -36 116q0 60 36.5 88.5t91.5 28.5q19 0 45 -4v-46q-18 3 -37 3q-83 0 -83 -72q0 -40 36 -114h99v-46h-94v-144z" />
    <glyph glyph-name="dvU" unicode="&#x909;" horiz-adv-x="399" 
d="M326 232v-106q0 -129 -172 -129q-51 0 -105 16v52q57 -20 105 -20q120 0 120 82v104q0 39 -17.5 60t-70.5 22h-61v49h62q53 1 70 22t17 59v85q0 21 -3.5 39t-6.5 25l-4 8h-282v46h443v-46h-106q11 -20 11 -71v-86q0 -90 -53 -106q53 -17 53 -105z" />
    <glyph glyph-name="dvUU" unicode="&#x90a;" horiz-adv-x="560" 
d="M582 646v-46h-267q11 -20 11 -71v-86q0 -88 -50 -105q58 10 105 10q69 0 105 -34.5t36 -93.5v-101q0 -56 -31.5 -88t-92.5 -32h-19v49h7q47 0 65.5 18t18.5 53v99q0 81 -91 81h-65q12 -25 12 -67v-106q0 -129 -172 -129q-51 0 -105 16v52q57 -20 105 -20q120 0 120 82
v104q0 39 -17.5 60t-70.5 22h-61v49h62q53 1 70 22t17 59v85q0 21 -3.5 39t-6.5 25l-4 8h-282v46h604z" />
    <glyph glyph-name="dvvR" unicode="&#x90b;" horiz-adv-x="665" 
d="M687 600h-322v-172q49 -10 96 -10q101 0 101 79v9h50v-268h-41q-41 0 -60 -22t-19 -74q0 -49 27 -69.5t67 -20.5q30 0 56 6v-47q-27 -6 -57 -6q-63 0 -104 34t-41 102q0 138 122 140v122q-29 -34 -102 -34q-47 0 -95 9v-378h-52v105q0 155 5 170h-4q-4 -13 -67 -77
l-139 -143h-66v4l271 279v97q-45 14 -101 14q-114 0 -114 -88v-58h-52v59q0 66 42 101t122 35q55 0 103 -15v117h-335v46h709v-46z" />
    <glyph glyph-name="dvvL" unicode="&#x90c;" horiz-adv-x="613" 
d="M536 600v-454q-3 1 -50 1q-43 0 -60 -18.5t-17 -63.5t20 -60.5t58 -15.5q15 0 27 2t18.5 4t7.5 2v-50q-1 0 -8 -2t-19.5 -4t-25.5 -2q-130 0 -130 126q0 129 123 129h4v220q-35 15 -77 15q-86 0 -86 -74v-148h-53v148q0 74 -81 74q-47 0 -64.5 -20.5t-17.5 -56.5v-203
q0 -49 23 -75.5t84 -26.5q22 0 55 5v-47q-25 -5 -56 -5q-158 0 -158 149v203q0 59 33 92t100 33q75 0 108 -44q33 44 112 44q43 0 78 -15v138h-506v46h656v-46h-98z" />
    <glyph glyph-name="dvEcandra" unicode="&#x90d;" horiz-adv-x="424" 
d="M322 837h49v-1q0 -62 -37.5 -87.5t-114.5 -25.5t-114 25.5t-37 87.5v1h49q0 -39 23 -53.5t79 -14.5t79.5 14.5t23.5 53.5zM344 63v-48q-46 -20 -122 -20q-74 0 -112 31.5t-38 90.5v483h-94v46h468v-46h-87v-204q0 -54 -29 -87t-90 -33q-16 0 -24 1v48q6 -1 19 -1
q72 0 72 72v204h-182v-482q0 -74 98 -74q64 0 121 19z" />
    <glyph glyph-name="dvE" unicode="&#x90f;" horiz-adv-x="424" 
d="M349 63v-48q-46 -20 -121 -20q-156 0 -156 129v476h-94v46h468v-46h-87v-204q0 -54 -29 -87t-90 -33q-16 0 -24 1v48q6 -1 19 -1q72 0 72 72v204h-182v-477q0 -39 23.5 -59t79.5 -20q62 0 121 19z" />
    <glyph glyph-name="dvAI" unicode="&#x910;" horiz-adv-x="424" 
d="M357 646h89v-46h-87v-204q0 -54 -29 -87t-90 -33q-16 0 -24 1v48q6 -1 19 -1q72 0 72 72v204h-182v-482q0 -74 98 -74q64 0 121 19v-48q-46 -20 -122 -20q-74 0 -112 31.5t-38 90.5v483h-94v46h325l-164 229h59z" />
    <glyph glyph-name="dvOcandra" unicode="&#x911;" horiz-adv-x="789" 
d="M736 831v-2q0 -63 -36.5 -88t-114.5 -25t-115 25t-37 88v2h49q0 -40 23 -54.5t80 -14.5q56 0 79 14.5t23 54.5h49zM810 646v-46h-98v-600h-53v600h-154v-600h-52v213h-125v-49q0 -61 -39 -95.5t-112 -34.5q-56 0 -113 15v50q57 -16 113 -16q99 0 99 81v77q0 39 -17.5 60
t-70.5 22h-61v49h61q53 1 70.5 22t17.5 60v67q0 82 -99 82q-50 0 -103 -19v52q47 15 103 15q73 0 112 -34t39 -95v-68q0 -87 -54 -106q49 -20 53 -89h126v387h357z" />
    <glyph glyph-name="dvO" unicode="&#x913;" horiz-adv-x="789" 
d="M710 646h100v-46h-99v-600h-52v600h-154v-600h-52v213h-125v-49q0 -61 -39 -95.5t-112 -34.5q-56 0 -113 15v50q57 -16 113 -16q99 0 99 81v77q0 39 -17.5 60t-70.5 22h-61v49h61q53 1 70.5 22t17.5 60v67q0 82 -99 82q-50 0 -103 -19v52q47 15 103 15q73 0 112 -34
t39 -95v-68q0 -87 -54 -106q49 -20 53 -89h126v387h202l-91 143q-25 39 -66 39q-19 0 -26 -1v46q14 2 28 2q35 0 58 -14t45 -47z" />
    <glyph glyph-name="dvAU" unicode="&#x914;" horiz-adv-x="789" 
d="M709 646h101v-46h-99v-600h-52v600h-154v-600h-52v213h-125v-49q0 -61 -39 -95.5t-112 -34.5q-56 0 -113 15v50q57 -16 113 -16q99 0 99 81v77q0 39 -17.5 60t-70.5 22h-61v49h61q53 1 70.5 22t17.5 60v67q0 82 -99 82q-50 0 -103 -19v52q47 15 103 15q73 0 112 -34
t39 -95v-68q0 -87 -54 -106q49 -20 53 -89h126v387h115l-93 143q-25 39 -65 39q-19 0 -26 -1v46q14 2 28 2q34 0 57 -14t45 -48l108 -167h38l-41 134q-7 26 -17 37t-30 11q-11 0 -25 -2v47q16 2 28 2q66 0 87 -71z" />
    <glyph glyph-name="dvKA" unicode="&#x915;" horiz-adv-x="574" 
d="M264 129v471h-286v46h617v-46h-279v-106q30 11 71 11q68 0 103 -31t35 -89v-189q0 -54 -29 -87t-90 -33q-16 0 -23 1v48q3 0 9.5 -0.5t9.5 -0.5q71 1 71 73v188q0 72 -88 72q-39 0 -69 -10v-447h-52v81q-48 -10 -77 -10q-68 0 -103.5 31t-35.5 89v193q0 58 35.5 89
t103.5 31q18 0 30 -3v-47q-16 2 -29 2q-88 0 -88 -72v-193q0 -72 88 -72q44 0 76 10z" />
    <glyph glyph-name="dvKHA" unicode="&#x916;" horiz-adv-x="720" 
d="M591 189v257q-41 9 -82 9q-47 0 -64.5 -18t-17.5 -54v-132q0 -36 17.5 -54t64.5 -18q57 0 82 10zM741 646v-46h-98v-600h-52v141q-40 -10 -83 -10q-132 0 -132 120v132q0 120 132 120q36 0 83 -9v106h-289q12 -24 12 -73v-122q0 -141 -143 -141q-38 0 -71 7v-97
q0 -129 175 -129q77 0 141 17v-51q-73 -15 -141 -15q-226 0 -226 178v267h51v-122q44 -7 70 -7q50 0 71.5 24t21.5 70v121q0 20 -3.5 38.5t-6.5 26.5l-3 8h-272v46h763z" />
    <glyph glyph-name="dvGA" unicode="&#x917;" horiz-adv-x="477" 
d="M499 646v-46h-99v-600h-52v600h-163v-283q0 -54 -30 -87.5t-90 -33.5q-21 0 -33 3v48q16 -2 28 -2q73 0 73 72v283h-155v46h521z" />
    <glyph glyph-name="dvGHA" unicode="&#x918;" horiz-adv-x="490" 
d="M512 646v-46h-99v-600h-52v79q-60 -15 -114 -15q-83 0 -131.5 35t-48.5 110v51q0 79 63 95q-57 20 -57 97v75q0 22 2 40t4 25l2 8h-103v46h534zM361 600h-227q-8 -27 -8 -73v-75q0 -36 18 -53.5t69 -18.5h33v-48h-34q-52 0 -72 -18.5t-20 -54.5v-49q0 -53 32.5 -75.5
t96.5 -22.5q62 0 112 14v474z" />
    <glyph glyph-name="dvNGA" unicode="&#x919;" horiz-adv-x="430" 
d="M356 169v-50q0 -124 -163 -124q-72 0 -137 15v48q60 -15 137 -15q111 0 111 76v49q0 35 -20 53t-71 18h-17q-143 0 -143 118v31q0 117 143 117h79v95h-297v46h474v-46h-125v-143h-131q-50 0 -70 -17.5t-20 -52.5v-29q0 -35 20 -53t70 -18h17q143 0 143 -118zM362 361
q0 36 36 36t36 -36q0 -37 -36 -37t-36 37z" />
    <glyph glyph-name="dvCA" unicode="&#x91a;" horiz-adv-x="458" 
d="M145 342v-152q0 -40 21.5 -59.5t72.5 -19.5q47 0 89 15v474h-350v46h501v-46h-99v-600h-52v78q-40 -15 -91 -15q-144 0 -144 126v153q0 27 2.5 49.5t4.5 32.5l3 9h-91v47h259v-46h-116q-10 -32 -10 -92z" />
    <glyph glyph-name="dvCHA" unicode="&#x91b;" horiz-adv-x="499" 
d="M69 395v132q0 22 2.5 40t4.5 25l3 8h-101v46h542v-46h-156v-113q76 -17 76 -113v-206q0 -78 -43 -110.5t-145 -32.5t-145.5 32.5t-43.5 108.5v37q0 79 62 95q-56 19 -56 97zM121 527v-132q0 -36 18 -53.5t69 -18.5h49v-48h-49q-51 0 -72 -18.5t-21 -54.5v-35
q0 -55 28 -74.5t109 -19.5t108.5 20t27.5 75v204q0 38 -15.5 56t-62.5 18q-13 0 -27 -2t-21 -4l-8 -2v47q27 9 62 9v106h-185q-10 -27 -10 -73z" />
    <glyph glyph-name="dvJA" unicode="&#x91c;" horiz-adv-x="544" 
d="M271 361v-190q0 -62 -37.5 -95.5t-110.5 -33.5q-54 0 -93 11v50q45 -13 93 -13q95 0 95 82v188q0 20 -2 38.5t-4 26.5l-2 8h-112v47h317v120h-437v46h588v-46h-99v-600h-52v434h-152q8 -25 8 -73z" />
    <glyph glyph-name="dvJHA" unicode="&#x91d;" horiz-adv-x="593" 
d="M197 263h-5q-141 0 -141 118v7q0 117 142 117h85v95h-300v46h636v-46h-99v-600h-52v264h-157q31 -19 31 -73v-48q0 -60 -34.5 -90t-111.5 -30q-51 0 -88 9v-89h-49v212h49v-74q37 -10 86 -10q96 0 96 73v47q0 35 -19.5 53.5t-68.5 18.5zM191 310h272v290h-133v-143h-137
q-51 0 -70.5 -17t-19.5 -52v-7q0 -35 19 -52.5t69 -18.5z" />
    <glyph glyph-name="dvNYA" unicode="&#x91e;" horiz-adv-x="569" 
d="M247 181v198q0 39 -20 60.5t-70 21.5q-47 0 -92 -17v49q37 16 92 16q142 0 142 -129v-78h141v298h-462v46h612v-46h-98v-600h-52v256h-141v-76q0 -130 -143 -130q-53 0 -100 17v49q51 -17 100 -17q50 0 70.5 21.5t20.5 60.5z" />
    <glyph glyph-name="dvTTA" unicode="&#x91f;" horiz-adv-x="388" 
d="M110 381v-248q0 -89 111 -89q57 0 116 18v-49q-53 -17 -117 -17q-75 0 -118.5 36t-43.5 101v249q0 121 144 121h65v97h-289v46h431v-46h-90v-145h-116q-93 0 -93 -74z" />
    <glyph glyph-name="dvTTHA" unicode="&#x920;" horiz-adv-x="402" 
d="M344 384v-264q0 -59 -36 -92t-107 -33t-107 33t-36 92v264q0 111 116 123v93h-196v46h446v-46h-197v-93q117 -12 117 -123zM292 120v263q0 77 -91 77t-91 -77v-263q0 -77 91 -77t91 77z" />
    <glyph glyph-name="dvDDA" unicode="&#x921;" horiz-adv-x="409" 
d="M356 159v-40q0 -124 -163 -124q-73 0 -135 14v51q59 -17 135 -17q111 0 111 76v40q0 35 -20 53t-71 18h-17q-143 0 -143 118v40q0 117 143 117h79v95h-297v46h452v-46h-103v-143h-131q-50 0 -70 -17.5t-20 -52.5v-38q0 -35 20 -53t70 -18h17q143 0 143 -119z" />
    <glyph glyph-name="dvDDHA" unicode="&#x922;" horiz-adv-x="403" 
d="M201 504h67v96h-290v46h446v-46h-104v-145h-119q-51 0 -71 -18.5t-20 -53.5v-257q0 -39 21 -60.5t75 -21.5t75 21.5t21 60.5v51q0 71 -66 71q-10 0 -21 -2t-17 -4l-6 -1v47q18 8 46 8q51 0 83.5 -30.5t32.5 -88.5v-52q0 -130 -148 -130q-75 0 -111.5 34t-36.5 96v258
q0 121 143 121z" />
    <glyph glyph-name="dvNNA" unicode="&#x923;" horiz-adv-x="604" 
d="M332 247q0 -126 -138 -126q-139 0 -139 126v353h-77v46h647v-46h-98v-600h-52v600h-143v-353zM280 600h-172v-353q0 -37 18 -57t68 -20q49 0 67.5 20t18.5 57v353z" />
    <glyph glyph-name="dvTA" unicode="&#x924;" horiz-adv-x="430" 
d="M55 378q0 60 38 93t110 33q47 0 97 -14v110h-322v46h473v-46h-98v-600h-53v442q-54 14 -96 14q-96 0 -96 -78v-259q0 -36 20 -54t71 -17v-49h-19q-62 0 -93.5 31.5t-31.5 87.5v260z" />
    <glyph glyph-name="dvTHA" unicode="&#x925;" horiz-adv-x="540" 
d="M411 646h150v-46h-98v-600h-52v105q-63 -17 -150 -17q-109 0 -160.5 44.5t-51.5 140.5v96h81q69 0 98.5 20t29.5 79v55q0 43 -12 61.5t-55 18.5t-57 -19t-14 -60l5 -51h-52q-5 29 -5 50q0 65 28.5 96.5t93.5 31.5t91 -31.5t26 -96.5v-56q0 -80 -42.5 -113t-132.5 -33h-31
v-48q0 -75 36.5 -106t124.5 -31q78 0 149 18v492z" />
    <glyph glyph-name="dvDA" unicode="&#x926;" horiz-adv-x="400" 
d="M46 204v179q0 120 143 120h81v97h-292v46h443v-46h-99v-145h-133q-51 0 -71 -18.5t-20 -53.5v-179q0 -80 102 -80q46 0 89 10v98h49v-241h-49v94q-42 -9 -91 -9q-72 0 -112 33.5t-40 94.5z" />
    <glyph glyph-name="dvDHA" unicode="&#x927;" horiz-adv-x="490" 
d="M82 600h-104v46h262v-46h-105q-9 -27 -9 -73v-70q0 -36 18 -53.5t69 -18.5h33v-49h-34q-52 0 -72 -18.5t-20 -53.5v-56q0 -52 32 -74t95 -22q58 0 114 14v520h151v-46h-99v-600h-52v78q-50 -15 -115 -15q-82 0 -130.5 35.5t-48.5 108.5v57q0 79 63 96q-57 20 -57 97v70
q0 22 2.5 40t4.5 25z" />
    <glyph glyph-name="dvNA" unicode="&#x928;" horiz-adv-x="566" 
d="M437 430h-148q12 -25 12 -73v-179q0 -116 -126 -116q-127 0 -127 116v185q0 114 127 114h262v123h-459v46h610v-46h-99v-600h-52v430zM237 430h-62q-42 0 -58.5 -16.5t-16.5 -50.5v-185q0 -34 17 -51t58 -17q42 0 58.5 17t16.5 51v178q0 21 -3 39t-6 26.5t-4 8.5z" />
    <glyph glyph-name="dvPA" unicode="&#x92a;" horiz-adv-x="422" 
d="M293 0v144q-39 -14 -90 -14q-72 0 -110 32.5t-38 91.5v346h-77v46h465v-46h-98v-600h-52zM293 600h-185v-346q0 -76 96 -76q51 0 89 14v408z" />
    <glyph glyph-name="dvPHA" unicode="&#x92b;" horiz-adv-x="594" 
d="M280 0v132q-41 -11 -77 -11q-72 0 -109.5 32.5t-37.5 91.5v355h-78v46h638v-46h-286v-112q38 12 79 12q67 0 102 -32.5t35 -87.5v-195q0 -55 -32 -87t-93 -32l-18 1v48q50 -1 70 17.5t20 53.5v193q0 36 -18.5 54t-66.5 18q-19 0 -38.5 -2.5t-29.5 -5.5l-10 -3v-440h-50z
M280 179v421h-172v-354q0 -77 97 -77q40 0 75 10z" />
    <glyph glyph-name="dvBA" unicode="&#x92c;" horiz-adv-x="412" 
d="M100 343v-146q0 -77 99 -77q55 0 87 13v66zM286 249v195q-35 14 -87 14q-91 0 -98 -65zM-22 646h455v-46h-98v-600h-49v86q-35 -14 -88 -14q-72 0 -111 32.5t-39 92.5v184q0 60 38.5 92t111.5 32q53 0 88 -14v109h-308v46z" />
    <glyph glyph-name="dvBHA" unicode="&#x92d;" horiz-adv-x="577" 
d="M258 178v166h-79q-47 0 -62.5 -16t-15.5 -52v-98q0 -36 15.5 -52t62.5 -16q48 0 63.5 16t15.5 52zM258 390v140q0 37 -15.5 54.5t-60.5 17.5q-44 0 -59.5 -18t-15.5 -54l4 -54h-53q-4 30 -4 55q0 120 128 120t128 -120v-141h138v256h150v-46h-98v-600h-52v344h-138v-167
q0 -58 -31 -86.5t-100 -28.5q-68 0 -99 28.5t-31 86.5v99q0 58 31 86t99 28h79z" />
    <glyph glyph-name="dvMA" unicode="&#x92e;" horiz-adv-x="561" 
d="M243 178v204h-78q-47 0 -63 -16.5t-16 -51.5v-136q0 -35 16 -51.5t63 -16.5t62.5 16t15.5 52zM295 428h137v172h-137v-172zM432 0v382h-137v-204q0 -59 -31 -87.5t-99 -28.5q-69 0 -100 28.5t-31 87.5v136q0 59 31 86.5t100 27.5h78v172h-265v46h605v-46h-99v-600h-52z
" />
    <glyph glyph-name="dvYA" unicode="&#x92f;" horiz-adv-x="494" 
d="M242 527v-73q0 -117 -132 -117v-81q0 -63 33.5 -92.5t106.5 -29.5q59 0 114 11v455h-130q8 -24 8 -73zM182 600h-204v46h537v-46h-98v-600h-53v97q-55 -12 -115 -12q-191 0 -191 169v128h20q65 0 88.5 15t23.5 59v71q0 20 -2 38.5t-4 26.5z" />
    <glyph glyph-name="dvRA" unicode="&#x930;" horiz-adv-x="412" 
d="M354 60v-49q-61 -16 -125 -16q-77 0 -121.5 35.5t-44.5 105.5v314h52v-127q53 -15 91 -15q91 0 91 77v142q0 20 -2 38.5t-4 26.5l-2 8h-311v46h456v-46h-93q8 -24 8 -73v-143q0 -59 -35.5 -91.5t-105.5 -32.5q-45 0 -93 15v-139q0 -93 115 -93q49 0 124 17z" />
    <glyph glyph-name="dvRxA" unicode="&#x931;" horiz-adv-x="413" 
d="M-19 -54q0 36 36 36t36 -36q0 -37 -36 -37t-36 37zM116 450v-127q52 -15 91 -15q50 0 70 20t20 57v142q0 20 -2 38.5t-4 26.5l-2 8h-311v46h456v-46h-92q8 -24 8 -73v-143q0 -59 -35.5 -91.5t-106.5 -32.5q-44 0 -92 15v-139q0 -93 115 -93q46 0 124 17v-49
q-61 -16 -126 -16q-76 0 -120.5 35.5t-44.5 105.5v314h52z" />
    <glyph glyph-name="dvLA" unicode="&#x932;" horiz-adv-x="613" 
d="M53 149v203q0 59 33.5 92t100.5 33q76 0 107 -44q33 44 112 44q40 0 78 -15v138h-506v46h657v-46h-99v-600h-52v414q-33 15 -77 15q-86 0 -86 -74v-149h-52v149q0 74 -82 74q-46 0 -63.5 -20t-17.5 -57v-203q0 -49 23 -75.5t84 -26.5q25 0 57 5v-47q-27 -5 -58 -5
q-159 0 -159 149z" />
    <glyph glyph-name="dvLLA" unicode="&#x933;" horiz-adv-x="588" 
d="M534 362v-243q0 -124 -129 -124q-85 0 -111 53q-26 -53 -110 -53q-131 0 -131 124v243q0 124 132 124q82 0 109 -54q22 44 82 51v117h-398v46h631v-46h-181v-116q106 -11 106 -122zM104 361v-242q0 -37 17 -58t63 -21q85 0 85 79v242q0 79 -84 79q-46 0 -63.5 -20.5
t-17.5 -58.5zM319 361v-242q0 -79 85 -79q47 0 63.5 20.5t16.5 58.5v242q0 38 -17 58.5t-63 20.5q-85 0 -85 -79z" />
    <glyph glyph-name="dvVA" unicode="&#x935;" horiz-adv-x="422" 
d="M293 492v108h-315v46h466v-46h-99v-600h-52v86q-35 -14 -97 -14q-72 0 -109.5 33.5t-37.5 94.5v178q0 59 38 93t109 34q64 0 97 -13zM293 134v310q-29 13 -95 13q-97 0 -97 -80v-177q0 -80 97 -80q64 0 95 14z" />
    <glyph glyph-name="dvSHA" unicode="&#x936;" horiz-adv-x="591" 
d="M462 646h151v-46h-99v-600h-52v646zM354 526v-144q0 -59 -35.5 -91.5t-106.5 -32.5q-49 0 -92 15v-135q0 -46 31.5 -70t87.5 -24q53 0 113 17v-49q-53 -16 -115 -16q-76 0 -122.5 37t-46.5 104v267h52v-83q47 -15 91 -15q90 0 90 77v143q0 76 -90 76q-91 0 -91 -77
q0 -5 0.5 -10.5t1 -10t0.5 -8v-6.5l1 -2h-52l-1 2v7t-0.5 8.5t-1 10t-0.5 10.5q0 59 36 92t107 33t107 -33t36 -92z" />
    <glyph glyph-name="dvSSA" unicode="&#x937;" horiz-adv-x="431" 
d="M108 453v-214q0 -35 24.5 -55.5t75.5 -20.5q45 0 96 17v89zM304 600h-196v-89l196 -185v274zM-22 646h475v-46h-99v-600h-50v131q-44 -16 -98 -16q-72 0 -111.5 33t-39.5 91v361h-77v46z" />
    <glyph glyph-name="dvSA" unicode="&#x938;" horiz-adv-x="594" 
d="M465 340v260h-144q8 -24 8 -73v-144q0 -21 -5 -43h141zM615 646v-46h-98v-600h-52v294h-168q-36 -36 -109 -36q-36 0 -73 10v-132q0 -93 115 -93q48 0 123 17v-49q-61 -16 -125 -16q-76 0 -120.5 35.5t-44.5 105.5v314h52v-134q35 -10 72 -10q90 0 90 77v144
q0 20 -2 38.5t-4 26.5l-2 8h-291v46h637z" />
    <glyph glyph-name="dvHA" unicode="&#x939;" horiz-adv-x="415" 
d="M50 128v61q0 69 56 93q-53 24 -53 93v13q0 116 139 116h94v96h-308v46h458v-46h-98v-144h-146q-50 0 -68.5 -17t-18.5 -52v-12q0 -35 19.5 -52t70.5 -17h43q65 0 95 -28.5t30 -86.5v-31h-51v30q0 36 -14 52.5t-61 16.5h-39q-52 0 -74 -17.5t-22 -52.5v-61q0 -85 124 -85
q73 0 122 15v-47q-40 -16 -123 -16q-85 0 -130 35t-45 98z" />
    <glyph glyph-name="dvNukta" unicode="&#x93c;" horiz-adv-x="0" 
d="M-240 -85q0 36 36 36t36 -36t-36 -36t-36 36z" />
    <glyph glyph-name="dvAvagraha" unicode="&#x93d;" horiz-adv-x="420" 
d="M381 202v-72q0 -135 -158 -135h-4q-158 0 -158 135v69h52v-69q0 -41 22 -63.5t85 -22.5h2q63 0 85 22.5t22 63.5v72q0 32 -11 53.5t-42 38.5l-136 73q-82 44 -82 136v27q0 58 32 87t108 29h160v-49h-159q-55 0 -72 -16.5t-17 -50.5v-26q0 -32 11 -53.5t42 -37.5l136 -74
q46 -24 64 -56.5t18 -80.5z" />
    <glyph glyph-name="dvmAA" unicode="&#x93e;" 
d="M77 600h-99v46h250v-46h-99v-600h-52v600z" />
    <glyph glyph-name="dvmI" unicode="&#x93f;" 
d="M77 646v44q0 100 57.5 142.5t163.5 42.5q64 0 127.5 -14.5t94.5 -29.5l31 -15v-48q-13 7 -36 16.5t-90 26t-127 16.5q-89 0 -128.5 -34t-39.5 -103v-44h98v-46h-99v-600h-52v600h-99v46h99z" />
    <glyph glyph-name="dvmII" unicode="&#x940;" 
d="M77 646v113q0 35 -15.5 51.5t-56.5 16.5q-42 0 -57.5 -16.5t-15.5 -51.5v-45h-52v46q0 116 125 116q124 0 124 -116v-114h99v-46h-99v-600h-52v600h-99v46h99z" />
    <glyph glyph-name="dvmU" unicode="&#x941;" horiz-adv-x="0" 
d="M-373 -63h72l64 -66q38 -37 80 -37h76q43 0 55 14.5t12 47.5q0 31 -14 46t-54 15q-25 0 -50 -3.5t-38 -7.5l-13 -3v47q44 14 102 14q62 0 90 -26t28 -82q0 -57 -26.5 -83t-89.5 -26h-79q-67 0 -114 48z" />
    <glyph glyph-name="dvmUU" unicode="&#x942;" horiz-adv-x="0" 
d="M-32 -152v-47l-4 -1q-5 -2 -13 -4l-18 -4.5t-24.5 -4t-29.5 -1.5q-62 0 -89 26t-27 83t27 83t90 26h30q49 0 78 -14.5t55 -45.5l128 -156h-66l-92 112q-28 33 -47.5 45t-56.5 12h-27q-43 0 -55.5 -14.5t-12.5 -47.5q0 -32 13 -47t53 -15q14 0 28.5 1.5t24.5 3.5t18 4.5
t13 3.5z" />
    <glyph glyph-name="dvmvR" unicode="&#x943;" horiz-adv-x="0" 
d="M-154 -9q-19 0 -31 -2t-23.5 -9.5t-17 -23.5t-5.5 -42q0 -50 19.5 -65.5t57.5 -15.5q19 0 38.5 2.5t29.5 4.5l11 2v-47q-34 -9 -79 -9q-62 0 -94.5 29.5t-32.5 98.5t32 96.5t95 27.5q18 0 36.5 -2t27.5 -4l10 -3v-47q-34 9 -74 9z" />
    <glyph glyph-name="dvmvRR" unicode="&#x944;" horiz-adv-x="0" 
d="M-229 -265v-4q0 -38 16.5 -50.5t52.5 -12.5q62 0 93 6v-47q-31 -6 -93 -6q-121 0 -121 113q0 65 39 95q-39 25 -39 91q0 117 122 117q11 0 22.5 -1t21 -2t17.5 -2t13 -2l5 -1v-46q-1 0 -12.5 2t-29 4t-31.5 2q-42 0 -59 -16.5t-17 -54.5v-4q1 -37 17 -49.5t52 -12.5h63
v-49h-56q-42 0 -59 -16.5t-17 -53.5z" />
    <glyph glyph-name="dvmEcandra" unicode="&#x945;" horiz-adv-x="0" 
d="M-1 826h49v-2q0 -62 -37.5 -87.5t-114.5 -25.5t-114 25.5t-37 87.5v2h49q0 -40 23 -54.5t79 -14.5t79.5 14.5t23.5 54.5z" />
    <glyph glyph-name="dvmE" unicode="&#x947;" horiz-adv-x="0" 
d="M-316 827v46q16 2 29 2q34 0 57.5 -14t44.5 -47l108 -168h-55l-92 143q-24 39 -66 39q-19 0 -26 -1z" />
    <glyph glyph-name="dvmAI" unicode="&#x948;" horiz-adv-x="0" 
d="M-403 827v46q16 2 29 2q34 0 57 -14t45 -48l108 -167h-54l-93 143q-25 39 -66 39q-18 0 -26 -1zM-239 826v47q14 2 28 2q66 0 86 -71l48 -158h-49l-41 134q-7 26 -17 37t-30 11q-11 0 -25 -2z" />
    <glyph glyph-name="dvmOcandra" unicode="&#x949;" 
d="M77 600h-99v46h250v-46h-99v-600h-52v600zM206 831h50v-2q0 -63 -37 -88t-115 -25q-77 0 -114.5 25t-37.5 88v2h50q0 -40 23 -54.5t79 -14.5t79 14.5t23 54.5z" />
    <glyph glyph-name="dvmO" unicode="&#x94b;" 
d="M128 646h100v-46h-99v-600h-52v600h-99v46h95l-91 143q-25 39 -66 39q-19 0 -26 -1v46q14 2 28 2q35 0 58 -14t45 -47z" />
    <glyph glyph-name="dvmAU" unicode="&#x94c;" 
d="M127 646h101v-46h-99v-600h-52v600h-134v46h43l-93 143q-25 39 -65 39q-19 0 -26 -1v46q14 2 28 2q34 0 57 -14t45 -48l108 -167h38l-41 134q-7 26 -17 37t-30 11q-11 0 -25 -2v47q16 2 28 2q66 0 87 -71z" />
    <glyph glyph-name="dvVirama" unicode="&#x94d;" horiz-adv-x="0" 
d="M25 -204h-59l-92 146h49z" />
    <glyph glyph-name="dvOm" unicode="&#x950;" horiz-adv-x="763" 
d="M380 800q-36 0 -36 36t36 36q35 0 35 -36t-35 -36zM531 806v-2q0 -62 -37.5 -87.5t-113.5 -25.5q-78 0 -115 25.5t-37 87.5v2h49q0 -40 23 -54.5t80 -14.5q56 0 79 15t23 54h49zM438 239v287q0 59 35 92t106 33q140 0 140 -125v-382q0 -73 -41.5 -111t-136.5 -38
q-18 0 -38 1.5t-31 3.5l-11 2v50q41 -7 80 -7q74 0 100 25t26 75v381q0 36 -19 56t-69 20t-69.5 -20t-19.5 -56v-313q0 -20 -25 -20h-152v-69q-1 -61 -39.5 -95t-111.5 -34q-56 0 -114 15v50q62 -17 114 -17q99 0 99 82v97q0 39 -18 60t-71 22h-60v49h60q53 1 71 22t18 60
v86q0 82 -99 82q-50 0 -103 -19v52q47 15 103 15q73 0 112 -34t39 -95v-87q0 -87 -54 -106q49 -20 53 -90h126z" />
    <glyph glyph-name="dvKxA" unicode="&#x958;" horiz-adv-x="578" 
d="M269 129v471h-286v46h617v-46h-279v-106q30 11 71 11q68 0 103 -31t35 -89v-189q0 -54 -29 -87t-90 -33q-16 0 -23 1v48q3 0 9.5 -0.5t9.5 -0.5q71 1 71 73v188q0 72 -88 72q-39 0 -69 -10v-447h-52v81q-47 -10 -77 -10q-68 0 -103.5 31t-35.5 89v193q0 58 35.5 89
t103.5 31q18 0 30 -3v-47q-16 2 -29 2q-88 0 -88 -72v-193q0 -72 88 -72q44 0 76 10zM75 -7q0 36 36 36t36 -36t-36 -36t-36 36z" />
    <glyph glyph-name="dvKHxA" unicode="&#x959;" horiz-adv-x="720" 
d="M33 -27q37 0 37 -37q0 -36 -37 -36q-36 0 -36 36q0 37 36 37zM591 189v257q-41 9 -81 9q-48 0 -65 -18t-17 -54v-132q0 -36 17 -54t65 -18q56 0 81 10zM742 646v-46h-99v-600h-52v141q-40 -10 -82 -10q-132 0 -132 120v132q0 120 131 120q36 0 83 -9v106h-289
q13 -24 13 -73v-122q0 -141 -143 -141q-38 0 -71 7v-97q0 -129 174 -129q77 0 141 17v-51q-73 -15 -141 -15q-226 0 -226 178v267h52v-122q44 -7 70 -7q50 0 71 23.5t21 70.5v121q0 20 -3 38.5t-6 26.5l-3 8h-273v46h764z" />
    <glyph glyph-name="dvGxA" unicode="&#x95a;" horiz-adv-x="478" 
d="M101 103q36 0 36 -36t-36 -36t-36 36t36 36zM500 646v-46h-99v-600h-52v600h-163v-283q0 -54 -30 -87.5t-90 -33.5q-21 0 -33 3v48q16 -2 28 -2q73 0 73 72v283h-155v46h521z" />
    <glyph glyph-name="dvJxA" unicode="&#x95b;" horiz-adv-x="544" 
d="M-2 -45q0 37 37 37q36 0 36 -37q0 -36 -37 -36q-36 0 -36 36zM271 361v-190q0 -62 -37.5 -95.5t-110.5 -33.5q-54 0 -93 11v50q45 -13 93 -13q95 0 95 82v188q0 20 -2 38.5t-4 26.5l-2 8h-112v47h317v120h-437v46h588v-46h-99v-600h-52v434h-152q8 -25 8 -73z" />
    <glyph glyph-name="dvDDxA" unicode="&#x95c;" horiz-adv-x="409" 
d="M168 -131q0 36 37 36q36 0 36 -36q0 -37 -36 -37q-37 0 -37 37zM356 159v-40q0 -124 -163 -124q-73 0 -135 14v51q59 -17 135 -17q111 0 111 76v40q0 35 -20 53t-71 18h-17q-143 0 -143 118v40q0 117 143 117h79v95h-297v46h452v-46h-103v-143h-131q-50 0 -70 -17.5
t-20 -52.5v-38q0 -35 20 -53t70 -18h17q143 0 143 -119z" />
    <glyph glyph-name="dvDDHxA" unicode="&#x95d;" horiz-adv-x="403" 
d="M201 504h67v96h-290v46h446v-46h-104v-145h-119q-51 0 -71 -18.5t-20 -53.5v-257q0 -39 21 -60.5t75 -21.5t75 21.5t21 60.5v51q0 71 -66 71q-13 0 -24 -2t-16 -4l-4 -2v48q20 8 49 8q51 0 82 -30t31 -89v-52q0 -130 -148 -130q-75 0 -111.5 34t-36.5 96v258
q0 121 143 121zM169 -131q0 36 36 36t36 -36t-36 -36t-36 36z" />
    <glyph glyph-name="dvPHxA" unicode="&#x95e;" horiz-adv-x="594" 
d="M40 15q0 36 37 36q36 0 36 -36t-36 -36q-37 0 -37 36zM280 0v132q-41 -11 -77 -11q-72 0 -109.5 32.5t-37.5 91.5v355h-78v46h638v-46h-286v-112q38 12 79 12q67 0 102 -32.5t35 -87.5v-195q0 -55 -32 -87t-93 -32l-18 1v48q50 -1 70 17.5t20 53.5v193q0 36 -18.5 54
t-66.5 18q-19 0 -38.5 -2.5t-29.5 -5.5l-10 -3v-440h-50zM280 179v421h-172v-354q0 -77 97 -77q40 0 75 10z" />
    <glyph glyph-name="dvvRR" unicode="&#x960;" horiz-adv-x="667" 
d="M688 600h-323v-182h121q52 0 73.5 20t21.5 59v9h51v-240h-42q-42 0 -60.5 -16.5t-18.5 -60.5q0 -71 91 -71h16v-47h-33q-19 0 -30 -2t-22.5 -8t-16.5 -20.5t-5 -36.5q0 -43 18 -55.5t57 -12.5h77v-46h-78q-63 0 -94.5 25.5t-31.5 86.5q0 70 42 96q-42 29 -42 90
q0 67 29.5 93.5t93.5 27.5v94q-29 -34 -97 -34h-120v-369h-52v134l1 134v1q-2 -6 -67 -71l-139 -143h-70l2 3l273 280v22q0 45 -24.5 67t-82.5 22q-60 0 -84 -22.5t-24 -65.5v-58h-52v59q0 136 157 136q79 0 110 -36v138h-335v46h710v-46z" />
    <glyph glyph-name="dvvLL" unicode="&#x961;" horiz-adv-x="613" 
d="M536 206h-51q-42 0 -59 -16.5t-17 -54.5q0 -40 16.5 -53t52.5 -13h41v-49h-34q-42 0 -59 -16.5t-17 -54.5q0 -40 17 -53.5t53 -13.5q67 0 70 1v-47h-71q-121 0 -121 112q0 66 39 95q-39 25 -39 92q0 117 123 117h4v102q0 36 -17.5 55.5t-63.5 19.5q-82 0 -82 -74v-89h-52
v89q0 74 -82 74q-46 0 -63.5 -20t-17.5 -57v-203q0 -49 23 -75.5t84 -26.5h36v-47h-37q-159 0 -159 149v203q0 59 33.5 92t100.5 33q76 0 107 -44q33 44 108 44q58 0 82 -27v150h-506v46h657v-46h-99v-394z" />
    <glyph glyph-name="dvmvL" unicode="&#x962;" horiz-adv-x="0" 
d="M134 -249h-49q-42 0 -59 -18t-17 -63t20 -60.5t58 -15.5q15 0 26.5 2t18.5 4l6 2v-49l-7 -2q-7 -2 -19 -4t-25 -2q-129 0 -129 125q0 124 116 127l-5 39q0 35 -17 55.5t-62 20.5q-43 1 -61 -17t-20 -51q-3 0 -3 -68l-41 -5q0 62 4 62q2 71 -76 71q-79 0 -79 -82t-2 -82
q-8 -46 11 -69t77 -17q8 0 18.5 2t20.5 4.5l14 3.5q0 2 1 0v-3q5 -23 10 -23q-35 -7 -45 -8q-143 3 -135 139q4 1 12 70q0 106 120 106q60 0 89 -40q35 46 99 46q61 1 90.5 -27.5t27.5 -82.5q-2 0 -2 -45h14v-45z" />
    <glyph glyph-name="dvmvLL" unicode="&#x963;" horiz-adv-x="0" 
d="M138 -418h-49q-42 0 -59.5 -16t-17.5 -47q0 -57 79 -57q12 0 24 2t19 3.5t8 1.5v-48l-7 -2q-7 -2 -19.5 -4t-25.5 -2q-61 0 -95 27.5t-34 78.5q0 57 38 86q-41 28 -41 84q0 105 116 108l-5 39q0 35 -17 55.5t-62 20.5q-43 1 -61 -17t-20 -51q-3 0 -3 -68l-41 -5
q0 62 4 62q2 71 -76 71q-79 0 -79 -82t-2 -82q-8 -46 11 -69t77 -17q8 0 18.5 2t20.5 4.5l14 3.5q0 2 1 0v-3q5 -23 10 -23q-35 -7 -45 -8q-143 3 -135 139q4 1 12 70q0 106 120 106q60 0 89 -40q35 46 99 46q61 1 90.5 -27.5t27.5 -82.5q-2 0 -2 -45h14v-45h-49
q-41 0 -58.5 -15.5t-17.5 -46.5q0 -33 20.5 -45.5t57.5 -12.5h50v-3h1v-46z" />
    <glyph glyph-name="danda" unicode="&#x964;" horiz-adv-x="279" 
d="M149 0v646h52v-646h-52z" />
    <glyph glyph-name="doubledanda" unicode="&#x965;" horiz-adv-x="447" 
d="M123 0v646h53v-646h-53zM317 0v646h53v-646h-53z" />
    <glyph glyph-name="dvZero" unicode="&#x966;" horiz-adv-x="442" 
d="M63 523q0 70 39 112.5t119 42.5t119 -42.5t39 -112.5v-378q0 -70 -39 -112.5t-119 -42.5t-119 42.5t-39 112.5v378zM322 523q0 103 -101 103t-101 -103v-378q0 -103 101 -103t101 103v378z" />
    <glyph glyph-name="dvOne" unicode="&#x967;" horiz-adv-x="270" 
d="M125 668h72v-668h-57v614l-130 -94v66z" />
    <glyph glyph-name="dvTwo" unicode="&#x968;" horiz-adv-x="394" 
d="M55 657q48 16 120 16q170 0 170 -137v-58q-1 -58 -17.5 -91t-61.5 -62l-75 -52q-51 -34 -70 -59.5t-19 -72.5v-87h247v-54h-305v142q0 64 26.5 100t85.5 75l76 52q32 20 43.5 45t11.5 66v54q0 43 -23 64.5t-89 21.5q-65 0 -120 -20v57z" />
    <glyph glyph-name="dvThree" unicode="&#x969;" horiz-adv-x="388" 
d="M38 659q46 14 114 14q169 0 169 -140v-69q0 -98 -74 -129q78 -28 78 -125v-74q0 -67 -43 -104t-130 -37q-77 0 -126 18v57q60 -22 126 -22q64 0 89.5 22.5t25.5 66.5v69q0 102 -101 102h-66v53h66q54 0 75.5 26.5t21.5 76.5v68q0 44 -24 66t-87 22q-64 0 -114 -16v55z
" />
    <glyph glyph-name="dvFour" unicode="&#x96a;" horiz-adv-x="396" 
d="M265 625l-198 -446h198v446zM391 179v-52h-69v-127h-57v127h-255v52l217 489h95v-489h69z" />
    <glyph glyph-name="dvFive" unicode="&#x96b;" horiz-adv-x="415" 
d="M64 668h280v-53h-222v-228q48 6 87 6q150 0 150 -150v-108q0 -66 -44 -103t-131 -37q-64 0 -124 20v58q67 -25 123 -25q64 0 91 22.5t27 65.5v106q0 49 -21 72.5t-75 23.5q-30 0 -141 -12v342z" />
    <glyph glyph-name="dvSix" unicode="&#x96c;" horiz-adv-x="428" 
d="M63 520q0 69 42 111t130 42q71 0 122 -17v-55q-54 19 -122 19q-115 0 -115 -101v-129q48 23 111 23q70 0 109 -35.5t39 -104.5v-128q0 -70 -39 -112.5t-119 -42.5t-119 42.5t-39 112.5v375zM322 272q0 89 -94 89q-62 0 -108 -27v-189q0 -103 101 -103t101 103v127z" />
    <glyph glyph-name="dvSeven" unicode="&#x96d;" horiz-adv-x="319" 
d="M5 668h289v-45l-63 -201q-32 -104 -45.5 -172t-13.5 -152v-98h-59v99q0 86 14 154t47 171l60 192h-229v52z" />
    <glyph glyph-name="dvEight" unicode="&#x96e;" horiz-adv-x="452" 
d="M332 141v63q0 103 -106 103t-106 -103v-63q0 -100 106 -100t106 100zM123 527v-66q0 -103 103 -103t103 103v66q0 100 -103 100t-103 -100zM386 527v-65q0 -97 -76 -129q79 -32 79 -130v-62q0 -69 -41 -110t-122 -41t-122 41t-41 110v62q0 98 79 130q-77 32 -77 129v65
q0 69 40 110t121 41t120.5 -41t39.5 -110z" />
    <glyph glyph-name="dvNine" unicode="&#x96f;" horiz-adv-x="428" 
d="M48 523q0 70 39.5 112.5t119.5 42.5t119 -42.5t39 -112.5v-378q0 -68 -43.5 -109t-130.5 -41q-68 0 -125 19v56q62 -22 125 -22q117 0 117 99v122q-43 -22 -110 -22q-70 0 -110 38.5t-40 107.5v130zM308 523q0 103 -101 103t-101 -103v-129q0 -94 96 -94q66 0 106 25v198
z" />
    <glyph glyph-name="dvAbbreviationsign" unicode="&#x970;" horiz-adv-x="359" 
d="M54 334q0 138 128 138q129 0 129 -138q0 -137 -129 -137q-128 0 -128 137zM100 333q0 -44 17 -67.5t65 -23.5q49 0 66 23.5t17 67.5q0 45 -17 69t-66 24q-48 0 -65 -24t-17 -69z" />
    <glyph glyph-name="dvAcandra" unicode="&#x972;" horiz-adv-x="554" 
d="M425 259v387h151v-46h-99v-600h-52v213h-125v-49q0 -61 -39 -95.5t-112 -34.5q-56 0 -113 15v50q57 -16 113 -16q99 0 99 81v77q0 39 -17.5 60t-70.5 22h-61v49h61q53 1 70.5 22t17.5 60v67q0 82 -99 82q-50 0 -103 -19v52q47 15 103 15q73 0 112 -34t39 -95v-68
q0 -87 -54 -106q49 -20 53 -89h126zM554 826h49v-2q0 -62 -37.5 -87.5t-114.5 -25.5t-114 25.5t-37 87.5v2h49q0 -40 23 -54.5t79 -14.5t79.5 14.5t23.5 54.5z" />
    <glyph glyph-name="zerowidthspace" unicode="&#x200b;" horiz-adv-x="0" 
 />
    <glyph glyph-name="zerowidthnonjoiner" unicode="&#x200c;" horiz-adv-x="0" 
d="M24 -230h-47v1041h47v-1041z" />
    <glyph glyph-name="zerowidthjoiner" unicode="&#x200d;" horiz-adv-x="0" 
d="M129 593l-33 -33l-72 75v-865h-47v865l-69 -73l-33 33l93 93l-95 95l33 33l95 -95l96 95l32 -32l-96 -96z" />
    <glyph glyph-name="endash" unicode="&#x2013;" horiz-adv-x="366" 
d="M40 346h281v-47h-281v47z" />
    <glyph glyph-name="emdash" unicode="&#x2014;" horiz-adv-x="596" 
d="M40 347h503v-47h-503v47z" />
    <glyph glyph-name="quoteleft" unicode="&#x2018;" horiz-adv-x="151" 
d="M87 710h35l-40 -193h-23q-29 0 -29 30q0 42 57 163z" />
    <glyph glyph-name="quoteright" unicode="&#x2019;" horiz-adv-x="151" 
d="M70 710h22q30 0 30 -29q0 -41 -58 -164h-34z" />
    <glyph glyph-name="quotesinglbase" unicode="&#x201a;" horiz-adv-x="151" 
d="M70 75h22q30 0 30 -30q0 -40 -58 -163h-34z" />
    <glyph glyph-name="quotedblleft" unicode="&#x201c;" horiz-adv-x="254" 
d="M193 710h32l-40 -193h-20q-30 0 -30 30q0 40 58 163zM87 710h32l-40 -193h-20q-29 0 -29 30q0 42 57 163z" />
    <glyph glyph-name="quotedblright" unicode="&#x201d;" horiz-adv-x="254" 
d="M175 710h20q30 0 30 -29q0 -41 -58 -164h-32zM70 710h20q29 0 29 -29q0 -43 -57 -164h-32z" />
    <glyph glyph-name="quotedblbase" unicode="&#x201e;" horiz-adv-x="254" 
d="M175 75h20q30 0 30 -30q0 -40 -58 -163h-32zM70 75h20q29 0 29 -30q0 -42 -57 -163h-32z" />
    <glyph glyph-name="dagger" unicode="&#x2020;" horiz-adv-x="347" 
d="M148 769h51l-5 -127q47 4 100 4v-46l-100 5q5 -66 5 -129v-505h-51v505l5 129q-41 -5 -100 -5v46l100 -4q-5 67 -5 127z" />
    <glyph glyph-name="daggerdbl" unicode="&#x2021;" horiz-adv-x="347" 
d="M148 769h51l-5 -127q41 4 100 4v-46l-100 5q3 -235 0 -469q41 4 100 4v-46l-100 5q5 -52 5 -128h-51l5 128q-41 -5 -100 -5v46l100 -4q-3 234 0 469q-41 -5 -100 -5v46l100 -4q-5 67 -5 127z" />
    <glyph glyph-name="bullet" unicode="&#x2022;" horiz-adv-x="272" 
d="M68 323q0 68 68 68t68 -68q0 -67 -68 -67t-68 67z" />
    <glyph glyph-name="ellipsis" unicode="&#x2026;" horiz-adv-x="535" 
d="M396 36q0 36 37 36q36 0 36 -36t-36 -36q-37 0 -37 36zM63 36q0 36 37 36q36 0 36 -36t-36 -36q-37 0 -37 36zM230 36q0 36 36 36t36 -36t-36 -36t-36 36z" />
    <glyph glyph-name="perthousand" unicode="&#x2030;" horiz-adv-x="791" 
d="M378 668h46l-260 -668h-46zM196 540q0 92 -56 92t-56 -92t56 -92t56 92zM35 540q0 66 27 102t78 36t78 -36t27 -102t-27 -102t-78 -36t-78 36t-27 102zM456 128q0 92 -55 92q-56 0 -56 -92t56 -92q55 0 55 92zM295 128q0 66 27.5 102t78.5 36t78 -36t27 -102t-27 -102
t-78 -36t-78.5 36t-27.5 102zM711 128q0 92 -56 92t-56 -92t56 -92t56 92zM550 128q0 66 27 102t78 36t78 -36t27 -102t-27 -102t-78 -36t-78 36t-27 102z" />
    <glyph glyph-name="guilsinglleft" unicode="&#x2039;" horiz-adv-x="333" 
d="M186 505h60l-122 -183l122 -183h-60l-121 183z" />
    <glyph glyph-name="guilsinglright" unicode="&#x203a;" horiz-adv-x="320" 
d="M65 505h60l121 -183l-121 -183h-60l122 183z" />
    <glyph glyph-name="fraction" unicode="&#x2044;" horiz-adv-x="227" 
d="M251 668h46l-322 -668h-46z" />
    <glyph glyph-name="rupee" unicode="&#x20a8;" horiz-adv-x="790" 
d="M130 326h94q104 0 104 98v93q0 100 -104 100h-94v-291zM386 518v-94q0 -107 -86 -139l105 -285h-63l-99 273h-16h-97v-273h-57v668h153q79 0 119.5 -41t40.5 -109zM564 318l86 -40q46 -21 69 -49t23 -72v-26q0 -136 -175 -136q-65 0 -118 17v54q54 -18 116 -18
q66 0 93 20.5t27 62.5v22q0 30 -13.5 46.5t-52.5 33.5l-89 41q-86 37 -86 126v35q0 68 38.5 101.5t126.5 33.5q56 0 109 -17v-54q-54 18 -108 18q-65 0 -86.5 -19t-21.5 -64v-28q0 -36 13.5 -54.5t48.5 -33.5z" />
    <glyph glyph-name="Euro" unicode="&#x20ac;" horiz-adv-x="395" 
d="M123 251v-117q0 -43 26 -64.5t90 -21.5q59 0 116 17v-54q-50 -16 -116 -16q-173 0 -173 138v118h-52v45h52v88h-52v44h52v107q0 138 173 138q58 0 114 -16v-54q-57 17 -114 17q-64 0 -90 -21.5t-26 -64.5v-106h164v-44h-164v-88h164v-45h-164z" />
    <glyph glyph-name="indianrupee" unicode="&#x20b9;" horiz-adv-x="450" 
d="M406 646v-46h-130q39 -24 39 -77v-30h91v-45h-91v-18q0 -79 -37.5 -113t-126.5 -34h-40l211 -283h-62l-210 284v48h101q69 0 92 21.5t23 76.5v18h-215v45h215v30q0 77 -100 77h-115v46h355z" />
    <glyph glyph-name="uni20BA" unicode="&#x20ba;" horiz-adv-x="478" 
d="M358 356h58v-212q0 -69 -36.5 -106.5t-106.5 -37.5h-206v307l-52 -13v44l52 13v88l-52 -13v44l52 13v185h57v-170l166 42v-45l-166 -42v-88l166 42v-44l-166 -42v-269h144q90 0 90 94v210z" />
    <glyph glyph-name="uni20BD" unicode="&#x20bd;" horiz-adv-x="426" 
d="M321 409v107q0 101 -104 101h-94v-309h94q104 0 104 101zM65 668h153q79 0 119.5 -41t40.5 -109v-104q0 -68 -40.5 -109t-119.5 -41h-95v-88h170v-44h-170v-132h-58v132h-52v44h52v88h-52v44h52v360z" />
    <glyph glyph-name="uni2113" unicode="&#x2113;" horiz-adv-x="350" 
d="M135 581v-301q128 143 128 287q0 52 -16 74.5t-48 22.5q-64 0 -64 -83zM135 199v-80q0 -38 17.5 -54t54.5 -16q41 0 69 11v-54q-27 -9 -71 -9q-128 0 -128 121v27q-33 -28 -62 -50v73q28 22 62 53v360q0 69 32.5 104t89.5 35q59 0 90.5 -39.5t31.5 -113.5
q0 -184 -186 -368z" />
    <glyph glyph-name="trademark" unicode="&#x2122;" horiz-adv-x="537" 
d="M72 663v33h165v-33h-64v-194h-37v194h-64zM460 696v-227h-36v111l9 95l-59 -206h-29l-59 205l10 -94v-111h-37v227h52l39 -133l10 -46l9 46l39 133h52z" />
    <glyph glyph-name="uni2126" unicode="&#x2126;" horiz-adv-x="460" 
d="M67 523q0 70 41 112.5t122 42.5t122 -42.5t41 -112.5v-376q0 -69 -43 -96h75v-51h-157v52q67 8 67 94v376q0 104 -105 104t-105 -104v-376q0 -86 67 -94v-52h-157v51h75q-43 27 -43 96v376z" />
    <glyph glyph-name="estimated" unicode="&#x212e;" horiz-adv-x="663" 
d="M57 271q0 123 79 201.5t206 78.5t197.5 -75t70.5 -199q0 -3 -0.5 -10t-0.5 -11h-415v-184q64 -44 153 -44q71 0 127.5 29t84.5 81l33 -18q-35 -63 -99 -96.5t-147 -33.5q-130 0 -209.5 77.5t-79.5 203.5zM481 474q-58 39 -137 39q-91 0 -150 -45v-174h287v180z" />
    <glyph glyph-name="partialdiff" unicode="&#x2202;" horiz-adv-x="453" 
d="M165 668h77q48 -51 94.5 -149.5t46.5 -212.5v-162q0 -70 -39 -112t-119 -42q-79 0 -118 42.5t-39 111.5v144q0 69 37.5 110.5t116.5 41.5q57 0 90 -29q-18 76 -59 144t-88 113zM326 352q-36 38 -101 38q-100 0 -100 -103v-142q0 -103 100 -103q101 0 101 103v207z" />
    <glyph glyph-name="uni2206" unicode="&#x2206;" horiz-adv-x="467" 
d="M234 592l-106 -540h212zM267 668l134 -668h-334l135 668h65z" />
    <glyph glyph-name="product" unicode="&#x220f;" horiz-adv-x="469" 
d="M73 668h323v-768h-59v716h-207v-716h-57v768z" />
    <glyph glyph-name="summation" unicode="&#x2211;" horiz-adv-x="375" 
d="M30 668h310v-51h-249l156 -333l-156 -333h249v-51h-310v51l156 333l-156 333v51z" />
    <glyph glyph-name="minus" unicode="&#x2212;" horiz-adv-x="427" 
d="M40 347h347v-47h-347v47z" />
    <glyph glyph-name="uni2215" unicode="&#x2215;" horiz-adv-x="227" 
d="M220 668h47l-261 -668h-46z" />
    <glyph glyph-name="uni2219" unicode="&#x2219;" horiz-adv-x="135" 
d="M31 334q0 40 36 40q37 0 37 -40t-37 -40q-36 0 -36 40z" />
    <glyph glyph-name="radical" unicode="&#x221a;" horiz-adv-x="408" 
d="M326 668h59l-140 -668h-82l-74 260h-52v53h94l73 -253z" />
    <glyph glyph-name="infinity" unicode="&#x221e;" horiz-adv-x="607" 
d="M436 245q25 0 40 6t21.5 20t8 27t1.5 36t-1.5 36t-8 27t-21.5 20.5t-40 6.5q-30 0 -53 -22.5t-51 -66.5q28 -44 51 -67t53 -23zM171 245q29 0 52 22.5t52 67.5q-20 30 -32 45.5t-31.5 29.5t-40.5 14q-25 0 -40 -6t-21 -21t-7.5 -27t-1.5 -36q0 -23 1.5 -35.5t8 -27
t21 -20.5t39.5 -6zM436 477q69 0 96 -37.5t27 -104.5t-27 -105t-96 -38q-71 0 -133 98q-30 -45 -61 -70.5t-72 -25.5q-69 0 -95.5 37t-26.5 104t26.5 104.5t95.5 37.5q41 0 71.5 -26t61.5 -72q30 46 61 72t72 26z" />
    <glyph glyph-name="integral" unicode="&#x222b;" horiz-adv-x="269" 
d="M94 668q0 63 34.5 97t99.5 33v-51q-76 0 -76 -79v-668q0 -63 -34.5 -96.5t-99.5 -33.5v51q76 0 76 79v668z" />
    <glyph glyph-name="approxequal" unicode="&#x2248;" horiz-adv-x="437" 
d="M346 315h44q3 -11 3 -24q0 -56 -44.5 -75t-93.5 6l-79 37q-38 20 -64.5 9t-19.5 -53h-44q-3 12 -3 24q0 55 44.5 75t93.5 -5l79 -37q41 -22 66 -10.5t18 53.5zM346 453h44q3 -12 3 -24q0 -56 -44.5 -75.5t-93.5 5.5l-79 37q-38 21 -64.5 10t-19.5 -53h-44q-3 11 -3 24
q0 55 44.5 74.5t93.5 -5.5l79 -37q41 -21 66 -9.5t18 53.5z" />
    <glyph glyph-name="notequal" unicode="&#x2260;" horiz-adv-x="444" 
d="M395 387h-119l-56 -128h175v-47h-195l-42 -96h-46l42 96h-105v47h125l56 128h-181v46h201l44 100h45l-43 -100h99v-46z" />
    <glyph glyph-name="lessequal" unicode="&#x2264;" horiz-adv-x="453" 
d="M48 90v47h347v-47h-347zM395 501v-52l-305 -119l305 -119v-52l-347 137v67z" />
    <glyph glyph-name="greaterequal" unicode="&#x2265;" horiz-adv-x="453" 
d="M58 90v47h346v-47h-346zM58 501l346 -138v-67l-346 -137v52l304 119l-304 119v52z" />
    <glyph glyph-name="lozenge" unicode="&#x25ca;" horiz-adv-x="414" 
d="M164 565h87l126 -283l-126 -282h-87l-126 282zM318 282l-110 255l-110 -255l110 -255z" />
    <glyph glyph-name="dottedcircle" unicode="&#x25cc;" horiz-adv-x="660" 
d="M139 517q0 19 12.5 31.5t31.5 12.5t31.5 -12.5t12.5 -31.5q0 -20 -12.5 -32.5t-31.5 -12.5t-31.5 12.5t-12.5 32.5zM57 407q0 19 13 31.5t33 12.5q18 0 31 -12.5t13 -31.5t-13 -31.5t-31 -12.5q-20 0 -33 12.5t-13 31.5zM44 281q0 19 12.5 32t31.5 13t31.5 -12.5
t12.5 -32.5q0 -19 -12.5 -31t-31.5 -12t-31.5 12t-12.5 31zM96 165q0 19 12.5 31.5t31.5 12.5t31.5 -12.5t12.5 -31.5t-12.5 -31.5t-31.5 -12.5q-20 0 -32 12.5t-12 31.5zM197 90q0 18 13 31t32 13t31.5 -13t12.5 -31q0 -20 -12.5 -33t-31.5 -13t-32 13t-13 33zM324 74
q0 20 12 32t32 12t32.5 -12.5t12.5 -31.5t-12.5 -31.5t-32.5 -12.5t-32 12t-12 32zM445 127q0 19 12.5 31.5t31.5 12.5t32 -12.5t13 -31.5t-13 -31.5t-32 -12.5t-31.5 12.5t-12.5 31.5zM518 225q0 19 13 32t32 13q18 0 30.5 -13t12.5 -32t-12.5 -31.5t-30.5 -12.5
q-19 0 -32 12.5t-13 31.5zM528 359q0 19 12 31.5t32 12.5q19 0 31.5 -12.5t12.5 -31.5t-12.5 -31.5t-31.5 -12.5q-20 0 -32 12.5t-12 31.5zM478 477q0 19 12.5 32t31.5 13t31.5 -12.5t12.5 -32.5q0 -19 -12.5 -31.5t-31.5 -12.5t-31.5 12.5t-12.5 31.5zM383 545
q0 19 12.5 32t32.5 13q19 0 31 -12.5t12 -32.5q0 -18 -12.5 -31t-30.5 -13q-19 0 -32 13t-13 31zM257 560q0 20 12.5 32t31.5 12t31.5 -12t12.5 -32t-12.5 -32t-31.5 -12t-31.5 12t-12.5 32z" />
    <glyph glyph-name="dvK_SSA" horiz-adv-x="593" 
d="M341 531v-71q0 -51 -22 -74h145v260h150v-46h-98v-600h-52v340h-263q-45 0 -61 -18.5t-16 -54.5v-96q0 -72 82 -72q42 0 71 9v121h49v-229h-49v60q-34 -9 -73 -9q-132 0 -132 121v96q0 77 59 99q-44 23 -44 93v71q0 120 127 120t127 -120zM290 459v72q0 36 -15.5 54
t-60.5 18q-44 0 -59.5 -18.5t-15.5 -53.5v-72q0 -36 15.5 -54.5t59.5 -18.5q45 0 60.5 18.5t15.5 54.5z" />
    <glyph glyph-name="dvJ_NYA" horiz-adv-x="598" 
d="M-22 646h641v-46h-98v-600h-53v434h-153q9 -38 9 -82v-134q0 -123 -131 -123q-41 0 -84 10v-105h-52v283h52v-130q42 -9 82 -9q47 0 64 19t17 56v134q0 49 -10 81h-120v46h326v120h-490v46z" />
    <glyph glyph-name="dvK" horiz-adv-x="397" 
d="M473 358v25q0 37 -16 55t-63 18t-78 -9v-447h-52v81q-48 -10 -77 -10q-68 0 -103.5 31t-35.5 89v193q0 58 35.5 89t103.5 31q18 0 30 -3v-47q-16 2 -29 2q-88 0 -88 -72v-193q0 -72 88 -72q44 0 76 10v471h-286v46h562v-46h-224v-106q33 10 79 10q72 0 100.5 -31.5
t28.5 -89.5v-25h-51z" />
    <glyph glyph-name="dvKH" horiz-adv-x="516" 
d="M100 271v-97q0 -129 175 -129q77 0 141 17v-51q-73 -15 -141 -15q-226 0 -226 178v267h51v-122q44 -7 70 -7q50 0 71.5 24t21.5 70v121q0 20 -3.5 38.5t-6.5 26.5l-3 8h-272v46h661v-46h-337q12 -24 12 -73v-122q0 -141 -143 -141q-38 0 -71 7zM591 251v132q0 36 -17 54
t-65 18q-47 0 -64.5 -18t-17.5 -54v-132q0 -36 17.5 -54t64.5 -18q48 0 65 18t17 54zM376 251v132q0 120 133 120t133 -120v-132q0 -64 -31.5 -92t-101.5 -28t-101.5 28t-31.5 92z" />
    <glyph glyph-name="dvG" horiz-adv-x="253" 
d="M185 600v-283q0 -54 -30 -87.5t-90 -33.5q-21 0 -33 3v48q16 -2 28 -2q73 0 73 72v283h-155v46h296v-46h-89z" />
    <glyph glyph-name="dvGH" horiz-adv-x="284" 
d="M380 130v-47q-76 -19 -133 -19q-83 0 -131.5 35t-48.5 110v51q0 79 63 95q-57 20 -57 97v75q0 22 2 40t4 25l2 8h-103v46h384v-46h-228q-8 -27 -8 -73v-75q0 -36 18 -53.5t69 -18.5h33v-48h-34q-52 0 -72 -18.5t-20 -54.5v-49q0 -53 32.5 -75.5t96.5 -22.5q66 0 131 18z
" />
    <glyph glyph-name="dvNG" horiz-adv-x="430" 
d="M332 -204h-59l-92 146h49zM355 169v-50q0 -124 -163 -124q-72 0 -137 15v48q60 -15 137 -15q111 0 111 76v49q0 35 -20 53t-71 18h-17q-143 0 -143 118v31q0 117 143 117h79v95h-297v46h474v-46h-125v-143h-131q-50 0 -70 -17.5t-20 -52.5v-29q0 -35 20 -53t70 -18h17
q143 0 143 -118zM361 361q0 36 36 36t36 -36q0 -37 -36 -37t-36 37z" />
    <glyph glyph-name="dvC" horiz-adv-x="241" 
d="M327 646v-46h-358v46h358zM339 128v-48q-53 -17 -111 -17q-144 0 -144 126v153q0 27 2 49.5t4 32.5l3 9h-90v47h259v-46h-116q-10 -32 -10 -92v-152q0 -40 21.5 -59.5t72.5 -19.5q55 0 109 17z" />
    <glyph glyph-name="dvCH" horiz-adv-x="498" 
d="M317 494q124 0 124 -120v-206q0 -78 -43 -110.5t-146 -32.5q-102 0 -145.5 32.5t-43.5 108.5v37q0 79 63 95q-57 19 -57 97v132q0 57 31 73h-122v46h541v-46h-323q-38 0 -56.5 -17t-18.5 -57v-131q0 -36 18 -53.5t69 -18.5h50v-48h-49q-52 0 -73 -18.5t-21 -54.5v-35
q0 -55 28 -74.5t109 -19.5q82 0 109.5 20t27.5 75v204q0 38 -16 56t-63 18q-14 0 -28 -3t-21 -5l-7 -3v50q3 1 9 2.5t22.5 4t31.5 2.5z" />
    <glyph glyph-name="dvJ" horiz-adv-x="337" 
d="M422 646v-46h-444v46h444zM423 480v-46h-160q8 -25 8 -73v-190q0 -62 -37.5 -95.5t-110.5 -33.5q-54 0 -93 11v50q45 -13 93 -13q95 0 95 82v188q0 20 -2 38.5t-4 26.5l-2 8h-112v47h325z" />
    <glyph glyph-name="dvJH" horiz-adv-x="391" 
d="M196 23q-51 0 -87 9v-89h-50v212h50v-74q36 -10 85 -10q51 0 71 18t20 53v50q0 34 -19.5 52.5t-67.5 18.5h-5q-142 0 -142 118v7q0 117 143 117h91v95h-307v46h509v-46h-150v-143h-143q-51 0 -71 -17t-20 -52v-7q0 -35 19 -53t68 -18h297v-46h-181q31 -21 31 -73v-50
q0 -60 -32 -89t-109 -29z" />
    <glyph glyph-name="dvNY" horiz-adv-x="361" 
d="M441 302v-46h-142v-76q0 -130 -143 -130q-53 0 -100 17v49q51 -17 100 -17q50 0 70.5 21.5t20.5 60.5v198q0 39 -20 60.5t-70 21.5q-47 0 -92 -17v49q37 16 92 16q142 0 142 -129v-78h142zM441 646v-46h-463v46h463z" />
    <glyph glyph-name="dvTT" horiz-adv-x="388" 
d="M330 -204h-59l-92 146h49zM110 381v-248q0 -89 111 -89q57 0 116 18v-49q-53 -17 -117 -17q-75 0 -118.5 36t-43.5 101v249q0 121 144 121h65v97h-289v46h431v-46h-90v-145h-116q-93 0 -93 -74z" />
    <glyph glyph-name="dvTTH" horiz-adv-x="402" 
d="M333 -204h-59l-92 146h49zM344 384v-264q0 -59 -36 -92t-107 -33t-107 33t-36 92v264q0 111 116 123v93h-196v46h446v-46h-197v-93q117 -12 117 -123zM292 120v263q0 77 -91 77t-91 -77v-263q0 -77 91 -77t91 77z" />
    <glyph glyph-name="dvDD" horiz-adv-x="409" 
d="M328 -204h-59l-92 146h49zM356 159v-40q0 -124 -163 -124q-73 0 -135 14v51q59 -17 135 -17q111 0 111 76v40q0 35 -20 53t-71 18h-17q-143 0 -143 118v40q0 117 143 117h79v95h-297v46h452v-46h-103v-143h-131q-50 0 -70 -17.5t-20 -52.5v-38q0 -35 20 -53t70 -18h17
q143 0 143 -119z" />
    <glyph glyph-name="dvDDH" horiz-adv-x="403" 
d="M334 -204h-59l-92 146h49zM201 504h67v96h-290v46h446v-46h-104v-145h-119q-51 0 -71 -18.5t-20 -53.5v-257q0 -39 21 -60.5t75 -21.5t75 21.5t21 60.5v51q0 71 -66 71q-10 0 -21 -2t-17 -4l-6 -1v47q18 8 46 8q51 0 83.5 -30.5t32.5 -88.5v-52q0 -130 -148 -130
q-75 0 -111.5 34t-36.5 96v258q0 121 143 121z" />
    <glyph glyph-name="dvNN" horiz-adv-x="385" 
d="M407 646v-46h-75v-353q0 -126 -138 -126q-139 0 -139 126v353h-77v46h429zM194 170q49 0 67.5 20t18.5 57v353h-172v-353q0 -37 18 -57t68 -20z" />
    <glyph glyph-name="dvT" horiz-adv-x="229" 
d="M343 646v-46h-365v46h365zM343 482v-48q-69 12 -133 12q-102 0 -102 -77v-250q0 -36 20 -54t71 -17v-48q-13 -1 -19 -1q-62 -2 -93.5 30t-31.5 89v251q0 59 39.5 92.5t113.5 33.5q50 0 135 -13z" />
    <glyph glyph-name="dvTH" horiz-adv-x="333" 
d="M262 136q82 0 159 20v-49q-67 -19 -160 -19q-109 0 -160.5 44.5t-51.5 140.5v96h81q68 0 97.5 20t29.5 79v55q0 43 -11.5 61.5t-54.5 18.5t-57 -19t-14 -60l4 -51h-51q-5 30 -5 50q0 65 28.5 96.5t93.5 31.5t91 -31.5t26 -96.5v-56q0 -80 -42.5 -113t-132.5 -33h-31v-48
q0 -75 36 -106t125 -31z" />
    <glyph glyph-name="dvD" horiz-adv-x="400" 
d="M444 -204h-59l-92 146h49zM46 204v179q0 120 143 120h81v97h-292v46h443v-46h-99v-145h-133q-51 0 -71 -18.5t-20 -53.5v-179q0 -80 102 -80q46 0 89 10v98h49v-241h-49v94q-42 -9 -91 -9q-72 0 -112 33.5t-40 94.5z" />
    <glyph glyph-name="dvDH" horiz-adv-x="297" 
d="M380 132v-48q-72 -21 -134 -21q-82 0 -130.5 35.5t-48.5 108.5v57q0 79 63 96q-57 20 -57 97v70q0 22 2.5 40t4.5 25l2 8h-104v46h233v-46h-76q-9 -27 -9 -73v-70q0 -36 18 -53.5t69 -18.5h33v-49h-34q-52 0 -72 -18.5t-20 -53.5v-56q0 -52 32 -74t95 -22t133 20z" />
    <glyph glyph-name="dvN" horiz-adv-x="363" 
d="M465 477v-47h-176q12 -25 12 -73v-179q0 -116 -126 -116q-127 0 -127 116v185q0 114 127 114h290zM463 646v-46h-485v46h485zM237 430h-62q-42 0 -58.5 -16.5t-16.5 -50.5v-185q0 -34 17 -51t58 -17q42 0 58.5 17t16.5 51v178q0 21 -3 39t-6 26.5t-4 8.5z" />
    <glyph glyph-name="dvP" horiz-adv-x="217" 
d="M304 195v-48q-43 -17 -101 -17q-72 0 -110 32.5t-38 91.5v346h-77v46h324v-46h-194v-346q0 -76 97 -76q59 0 99 17z" />
    <glyph glyph-name="dvPH" horiz-adv-x="425" 
d="M330 600v-112q33 11 91 11q71 0 100.5 -31.5t29.5 -89.5v-6h-51v6q0 37 -16.5 55t-63.5 18q-59 0 -90 -10v-441h-50v132q-41 -11 -77 -11q-72 0 -109.5 32.5t-37.5 91.5v355h-78v46h577v-46h-225zM280 179v421h-172v-354q0 -77 97 -77q40 0 75 10z" />
    <glyph glyph-name="dvB" horiz-adv-x="214" 
d="M-22 646h361v-46h-361v46zM48 383q0 122 145 122q75 0 109.5 -30.5t34.5 -91.5v-189q0 -122 -144 -122q-145 0 -145 122v189zM287 208v174q0 76 -94 76q-59 0 -82 -33zM100 375v-181q0 -36 20.5 -55t72.5 -19q67 0 85 35z" />
    <glyph glyph-name="dvBH" horiz-adv-x="399" 
d="M258 178v166h-79q-47 0 -62.5 -16t-15.5 -52v-98q0 -36 15.5 -52t62.5 -16q48 0 63.5 16t15.5 52zM484 390v-46h-174v-167q0 -58 -31 -86.5t-100 -28.5q-68 0 -99 28.5t-31 86.5v99q0 58 31 86t99 28h79v140q0 37 -15.5 54.5t-60.5 17.5q-44 0 -59.5 -18t-15.5 -54l5 -54
h-53q-5 31 -5 55q0 120 128 120t128 -120v-141h174z" />
    <glyph glyph-name="dvM" horiz-adv-x="364" 
d="M243 178v204h-78q-47 0 -63 -16.5t-16 -51.5v-136q0 -35 16 -51.5t63 -16.5t62.5 16t15.5 52zM456 428v-46h-161v-204q0 -59 -31 -87.5t-99 -28.5q-69 0 -100 28.5t-31 87.5v136q0 59 31 86.5t100 27.5h78v172h-265v46h478v-46h-161v-172h161z" />
    <glyph glyph-name="dvY" horiz-adv-x="287" 
d="M385 149v-49q-72 -15 -136 -15q-191 0 -191 169v128h20q65 0 88.5 15t23.5 59v71q0 20 -2 38.5t-4 26.5l-2 8h-204v46h401v-46h-145q8 -24 8 -73v-73q0 -117 -132 -117v-81q0 -63 33.5 -92.5t106.5 -29.5q70 0 135 15z" />
    <glyph glyph-name="dvR" horiz-adv-x="411" 
d="M334 -204h-59l-92 146h49zM354 60v-49q-61 -16 -125 -16q-77 0 -121.5 35.5t-44.5 105.5v314h52v-127q53 -15 91 -15q91 0 91 77v142q0 20 -2 38.5t-4 26.5l-2 8h-311v46h456v-46h-93q8 -24 8 -73v-143q0 -59 -35.5 -91.5t-105.5 -32.5q-45 0 -93 15v-139q0 -93 115 -93
q49 0 124 17z" />
    <glyph glyph-name="dvL" horiz-adv-x="405" 
d="M506 646v-46h-528v46h528zM505 457v-48q-48 20 -97 20q-87 0 -87 -74v-149h-52v149q0 74 -82 74q-46 0 -63.5 -20t-17.5 -57v-203q0 -49 23 -75.5t84 -26.5q25 0 57 5v-47q-27 -5 -58 -5q-159 0 -159 149v203q0 59 33.5 92t100.5 33q76 0 107 -44q33 44 113 44
q49 0 98 -20z" />
    <glyph glyph-name="dvV" horiz-adv-x="218" 
d="M322 646v-46h-344v46h344zM316 143v-48q-53 -23 -117 -23q-72 0 -111 33.5t-39 94.5v178q0 59 38 93t110 34q24 0 34 -1v-48q-11 1 -33 1q-97 0 -97 -80v-177q0 -80 100 -80q61 0 115 23z" />
    <glyph glyph-name="dvSH" horiz-adv-x="389" 
d="M354 526v-144q0 -59 -35.5 -91.5t-106.5 -32.5q-49 0 -92 15v-135q0 -46 31.5 -70t87.5 -24q53 0 113 17v-49q-53 -16 -115 -16q-76 0 -122.5 37t-46.5 104v267h52v-83q47 -15 91 -15q90 0 90 77v143q0 76 -90 76q-91 0 -91 -77q0 -5 0.5 -10.5t1 -10t0.5 -8v-6.5l1 -2
h-52l-1 2v7t-0.5 8.5t-1 10t-0.5 10.5q0 59 36 92t107 33t107 -33t36 -92z" />
    <glyph glyph-name="dvSS" horiz-adv-x="258" 
d="M357 223v-57q-51 -51 -151 -51q-76 0 -113.5 34.5t-37.5 94.5v356h-77v46h386v-46h-256v-87zM207 163q84 0 117 37l-216 252v-207q0 -82 99 -82z" />
    <glyph glyph-name="dvS" horiz-adv-x="379" 
d="M460 646v-46h-139q8 -24 8 -73v-144q0 -21 -5 -43h135v-46h-162q-36 -36 -109 -36q-36 0 -73 10v-132q0 -93 115 -93q48 0 123 17v-49q-61 -16 -125 -16q-76 0 -120.5 35.5t-44.5 105.5v314h52v-134q35 -10 72 -10q90 0 90 77v144q0 20 -2 38.5t-4 26.5l-2 8h-291v46h482
z" />
    <glyph glyph-name="dvH" horiz-adv-x="415" 
d="M347 -204h-59l-92 146h49zM50 128v61q0 69 56 93q-53 24 -53 93v13q0 116 139 116h94v96h-308v46h458v-46h-98v-144h-146q-50 0 -68.5 -17t-18.5 -52v-12q0 -35 19.5 -52t70.5 -17h43q65 0 95 -28.5t30 -86.5v-31h-51v30q0 36 -14 52.5t-61 16.5h-39q-52 0 -74 -17.5
t-22 -52.5v-61q0 -85 124 -85q73 0 122 15v-47q-40 -16 -123 -16q-85 0 -130 35t-45 98z" />
    <glyph glyph-name="dvLL" horiz-adv-x="411" 
d="M485 119v242q0 38 -17.5 58.5t-63.5 20.5q-84 0 -84 -79v-242q0 -79 85 -79q46 0 63 21t17 58zM269 119v243q0 78 -84 78q-46 0 -63.5 -20.5t-17.5 -57.5v-243q0 -37 17 -58t63 -21q85 0 85 79zM54 119v243q0 124 131 124q82 0 110 -53q27 53 109 53q131 0 131 -124v-243
q0 -124 -130 -124q-83 0 -110 53q-28 -53 -111 -53q-130 0 -130 124zM-22 646h578v-46h-578v46z" />
    <glyph glyph-name="dvK_SS" horiz-adv-x="383" 
d="M500 386v-46h-299q-45 0 -61 -18.5t-16 -54.5v-96q0 -72 82 -72q42 0 71 9v121h49v-229h-49v60q-34 -9 -73 -9q-132 0 -132 121v96q0 77 59 99q-44 23 -44 93v71q0 120 127 120t127 -120v-71q0 -51 -22 -74h181zM290 459v72q0 36 -15.5 54t-60.5 18q-44 0 -59.5 -18.5
t-15.5 -53.5v-72q0 -36 15.5 -54.5t59.5 -18.5q45 0 60.5 18.5t15.5 54.5z" />
    <glyph glyph-name="dvJ_NY" horiz-adv-x="386" 
d="M142 434v46h346v-46h-173q9 -38 9 -82v-134q0 -123 -131 -123q-41 0 -84 10v-105h-52v283h52v-130q42 -9 82 -9q47 0 64 19t17 56v134q0 49 -10 81h-120zM-22 646h510v-46h-510v46z" />
    <glyph glyph-name="dvKx" horiz-adv-x="396" 
d="M473 358v25q0 37 -16 55t-63 18t-78 -9v-447h-52v81q-48 -10 -77 -10q-68 0 -103.5 31t-35.5 89v193q0 58 35.5 89t103.5 31q18 0 30 -3v-47q-16 2 -29 2q-88 0 -88 -72v-193q0 -72 88 -72q44 0 76 10v471h-286v46h562v-46h-224v-106q33 10 79 10q72 0 100.5 -31.5
t28.5 -89.5v-25h-51zM84 -25q0 36 36 36q37 0 37 -36q0 -37 -37 -37q-36 0 -36 37z" />
    <glyph glyph-name="dvKHx" horiz-adv-x="518" 
d="M33 -27q36 0 36 -37q0 -36 -36 -36t-36 36q0 37 36 37zM100 271v-97q0 -129 175 -129q77 0 141 17v-51q-73 -15 -141 -15q-226 0 -226 178v267h51v-122q44 -7 70 -7q50 0 71.5 24t21.5 70v121q0 20 -3.5 38.5t-6.5 26.5l-3 8h-272v46h661v-46h-337q12 -24 12 -73v-122
q0 -141 -143 -141q-38 0 -71 7zM591 251v132q0 36 -17 54t-65 18q-47 0 -64.5 -18t-17.5 -54v-132q0 -36 17.5 -54t64.5 -18q48 0 65 18t17 54zM376 251v132q0 120 133 120t133 -120v-132q0 -64 -31.5 -92t-101.5 -28t-101.5 28t-31.5 92z" />
    <glyph glyph-name="dvGx" horiz-adv-x="253" 
d="M185 600v-283q0 -54 -30 -87.5t-90 -33.5q-21 0 -33 3v48q16 -2 28 -2q73 0 73 72v283h-155v46h296v-46h-89zM45 73q0 36 36 36t36 -36t-36 -36t-36 36z" />
    <glyph glyph-name="dvJx" horiz-adv-x="337" 
d="M44 -64q0 36 36 36t36 -36t-36 -36t-36 36zM422 646v-46h-444v46h444zM423 480v-46h-160q8 -25 8 -73v-190q0 -62 -37.5 -95.5t-110.5 -33.5q-54 0 -93 11v50q45 -13 93 -13q95 0 95 82v188q0 20 -2 38.5t-4 26.5l-2 8h-112v47h325z" />
    <glyph glyph-name="dvPHx" horiz-adv-x="422" 
d="M32 15q0 36 36 36t36 -36t-36 -36t-36 36zM330 600v-112q33 11 91 11q71 0 100.5 -31.5t29.5 -89.5v-6h-51v6q0 37 -16.5 55t-63.5 18q-59 0 -90 -10v-441h-50v132q-41 -11 -77 -11q-72 0 -109.5 32.5t-37.5 91.5v355h-78v46h577v-46h-225zM280 179v421h-172v-354
q0 -77 97 -77q40 0 75 10z" />
    <glyph glyph-name="itfLogo" horiz-adv-x="1648" 
d="M147 0v634h196v-634h-196zM383 449v185h196v-185h-196zM619 0v634h196v-634h-196zM855 449v185h196v-185h-196zM1091 0v634h196v-634h-196zM1327 449v185h196v-185h-196zM1327 224v185h196v-185h-196z" />
    <glyph glyph-name="dvReph" horiz-adv-x="0" 
d="M-81 646h-51q-4 4 -10.5 12t-17.5 34t-11 54q0 119 140 119l11 -1v-48h-6q-94 0 -94 -79q0 -25 10 -48t20 -33z" />
    <glyph glyph-name="dvEyelash" horiz-adv-x="242" 
d="M-22 600v46h365v-46h-365zM343 325v-46h-161q-85 0 -123.5 17.5t-38.5 76.5v2h49q0 -15 5 -24.5t10.5 -15t21.5 -7.5t26.5 -2.5t35.5 -0.5h14h161z" />
    <glyph glyph-name="dvRashtrasign" horiz-adv-x="0" 
d="M-76 -151h-56l-83 157l-83 -157h-56l87 159h104z" />
    <glyph glyph-name="dvK_RA" horiz-adv-x="605" 
d="M627 600h-289v-106q30 11 71 11q68 0 103 -31t35 -89v-189q0 -54 -29 -87t-89 -33q-17 0 -24 1v48q3 0 9.5 -0.5t9.5 -0.5q72 1 72 73v188q0 72 -89 72q-39 0 -69 -10v-447h-52v113l-168 -161h-72l162 151q-67 0 -102 30.5t-35 88.5v162q0 58 35 89t103 31q18 0 30 -3
v-47q-16 2 -28 2q-89 0 -89 -72v-161q0 -73 89 -73q37 0 75 10v440h-308v46h649v-46z" />
    <glyph glyph-name="dvKH_RA" horiz-adv-x="720" 
d="M591 189v257q-41 9 -82 9q-47 0 -64.5 -18t-17.5 -54v-132q0 -36 17.5 -54t64.5 -18q57 0 82 10zM741 646v-46h-98v-600h-52v141q-40 -10 -83 -10q-132 0 -132 120v132q0 120 132 120q36 0 83 -9v106h-289q12 -24 12 -73v-122q0 -141 -143 -141q-38 0 -71 7v-97
q0 -129 175 -129q37 0 69 4v-48l-157 -108l-75 10v4l146 90q-209 7 -209 177v267h51v-122q44 -7 70 -7q50 0 71.5 24t21.5 70v121q0 20 -3.5 38.5t-6.5 26.5l-3 8h-272v46h763z" />
    <glyph glyph-name="dvG_RA" horiz-adv-x="473" 
d="M494 646v-46h-98v-600h-52v89v40.5t0.5 32.5t1 22.5t0.5 15.5v5q-2 -5 -102 -107l-95 -98h-69l263 273v327h-158v-244q0 -54 -30 -87.5t-90 -33.5q-21 0 -33 3v48q16 -2 28 -2q73 0 73 73v243h-155v46h516z" />
    <glyph glyph-name="dvGH_RA" horiz-adv-x="491" 
d="M120 260v-30q0 -53 32.5 -75.5t96.5 -22.5q62 0 112 14v454h-227q-8 -27 -8 -73v-74q0 -36 18 -53.5t69 -18.5h34v-49h-35q-51 0 -71.5 -18.5t-20.5 -53.5zM-22 646h534v-46h-99v-600h-52v101h-1l-158 -149h-74l148 135q-9 -1 -28 -1q-83 0 -131.5 35t-48.5 110v29
q0 80 62 96q-56 19 -56 97v74q0 22 2 40t4 25l1 8h-103v46z" />
    <glyph glyph-name="dvNG_RA" horiz-adv-x="430" 
d="M397 397q36 0 36 -36q0 -37 -36 -37t-36 37q0 36 36 36zM-23 646h474v-46h-125v-143h-131q-50 0 -70 -17.5t-20 -52.5v-29q0 -35 20 -53t70 -18h17q143 0 143 -118v-50q0 -96 -97 -117l83 -153h-56l-77 146h-12l-77 -146h-56l81 148q-42 3 -89 13v48q60 -15 137 -15
q111 0 111 76v49q0 35 -20 53t-71 18h-17q-143 0 -143 118v31q0 117 143 117h79v95h-297v46z" />
    <glyph glyph-name="dvC_RA" horiz-adv-x="458" 
d="M-22 646h501v-46h-98v-600h-53v114l-2 -1l-172 -168h-69l157 154h-5q-144 0 -144 127v116q0 27 2.5 49.5t4.5 32.5l3 9h-90v47h258v-46h-116q-10 -32 -10 -92v-117q0 -40 21.5 -59t72.5 -19q46 0 89 14v439h-350v46z" />
    <glyph glyph-name="dvCH_RA" horiz-adv-x="499" 
d="M388 168v204q0 38 -15.5 56t-62.5 18q-13 0 -27 -2t-21 -4l-8 -2v47q27 9 62 9v106h-185q-10 -27 -10 -73v-132q0 -36 18 -53.5t69 -18.5h49v-48h-49q-51 0 -72 -18.5t-21 -54.5v-35q0 -55 28 -74.5t109 -19.5t108.5 20t27.5 75zM520 600h-156v-113q76 -17 76 -113v-206
q0 -67 -31 -100t-101 -40l86 -158h-56l-82 155h-2l-82 -155h-56l86 157q-74 7 -106.5 40t-32.5 99v37q0 79 62 95q-56 19 -56 97v132q0 22 2.5 40t4.5 25l3 8h-101v46h542v-46z" />
    <glyph glyph-name="dvJ_RA" horiz-adv-x="547" 
d="M420 434h-157q8 -25 8 -73v-107q0 -62 -37.5 -96t-110.5 -34q-50 0 -93 12v49q45 -13 93 -13q95 0 95 82v106q0 20 -2 38.5t-4 26.5l-2 8h-112v47h322v120h-442v46h591v-46h-99v-600h-50v28v130v1q-3 -8 -110 -100l-126 -109h-74l1 1l309 270v213z" />
    <glyph glyph-name="dvJH_RA" horiz-adv-x="623" 
d="M341 191v-48q0 -60 -35 -90t-112 -30q-51 0 -86 10v-90h-50v212h50v-74q36 -10 84 -10q97 0 97 73v48q0 34 -19.5 52.5t-68.5 18.5h-3q-141 0 -141 118v7q0 117 142 117h125v95h-346v46h666v-46h-99v-601h-51v57q0 34 4 54l-1 1q-1 -3 -8 -13.5t-22 -29.5t-32 -37
l-113 -119h-62l231 247v105h-182q32 -21 32 -73zM199 457q-51 0 -70.5 -17t-19.5 -52v-7q0 -35 19 -52.5t68 -18.5h297v290h-116v-143h-178z" />
    <glyph glyph-name="dvNY_RA" horiz-adv-x="563" 
d="M437 150h-4q-15 -32 -58 -77l-146 -153h-63l268 284v82h-140v-67q0 -128 -142 -128q-56 0 -98 16v49q49 -17 98 -17q90 0 90 82v159q0 39 -20 60t-69 21t-90 -17v50q42 16 90 16q141 0 141 -128v-51h140v269h-456v46h607v-46h-99v-601h-52v100q0 30 3 51z" />
    <glyph glyph-name="dvTT_RA" horiz-adv-x="388" 
d="M319 455h-116q-93 0 -93 -74v-248q0 -89 111 -89q57 0 116 18v-49q-37 -11 -77 -15l81 -149h-56l-78 147l-10 1l-78 -148h-56l86 157q-91 30 -91 127v249q0 121 144 121h65v97h-289v46h431v-46h-90v-145z" />
    <glyph glyph-name="dvTTH_RA" horiz-adv-x="402" 
d="M292 120v263q0 77 -91 77t-91 -77v-263q0 -77 91 -77t91 77zM424 600h-197v-93q117 -12 117 -123v-264q0 -94 -86 -118l84 -153h-56l-77 146h-8h-4l-77 -146h-56l83 152q-89 22 -89 119v264q0 111 116 123v93h-196v46h446v-46z" />
    <glyph glyph-name="dvDD_RA" horiz-adv-x="409" 
d="M327 457h-131q-50 0 -70 -17.5t-20 -52.5v-38q0 -35 20 -53t70 -18h17q143 0 143 -119v-40q0 -95 -96 -117l84 -153h-56l-77 146h-12l-77 -146h-56l81 147q-46 3 -89 13v51q59 -17 135 -17q111 0 111 76v40q0 35 -20 53t-71 18h-17q-143 0 -143 118v40q0 117 143 117h79
v95h-297v46h452v-46h-103v-143z" />
    <glyph glyph-name="dvDDH_RA" horiz-adv-x="403" 
d="M320 455h-119q-51 0 -71 -18.5t-20 -53.5v-257q0 -39 21 -60.5t75 -21.5t75 21.5t21 60.5v51q0 71 -66 71q-10 0 -21 -2t-17 -4l-6 -1v47q18 8 46 8q51 0 83.5 -30.5t32.5 -88.5v-52q0 -101 -91 -124l83 -152h-56l-77 146h-7h-5l-77 -146h-56l83 152q-93 22 -93 124v258
q0 121 143 121h67v96h-290v46h446v-46h-104v-145z" />
    <glyph glyph-name="dvNN_RA" horiz-adv-x="604" 
d="M108 600v-255q0 -37 18 -57t68 -20t68 20t18 57v255h-172zM371 124l-140 -124h-74l319 286v314h-144v-255q0 -125 -138 -125t-138 125v255h-78v46h648v-46h-99v-600h-51v93q0 99 2 133q-10 -14 -107 -102z" />
    <glyph glyph-name="dvT_RA" horiz-adv-x="442" 
d="M317 272h-4q-3 -8 -66 -74l-139 -143h-70l275 283v97q-45 14 -101 14q-114 0 -114 -88v-58h-52v59q0 66 42 101t122 35q55 0 103 -15v117h-335v46h485v-46h-98v-600h-52v157q0 103 4 115z" />
    <glyph glyph-name="dvTH_RA" horiz-adv-x="540" 
d="M412 646h150v-46h-99v-600h-51v124l-210 -159h-83v4l194 139q-36 -2 -53 -2q-109 0 -160 43.5t-51 139.5v80h82q68 0 97.5 20t29.5 79v55q0 22 -1.5 34t-8 24t-20.5 17t-37 5q-42 0 -56.5 -19t-14.5 -60l5 -51h-52q-4 31 -4 50q0 65 28.5 96.5t93.5 31.5t90.5 -31.5
t25.5 -96.5v-56q0 -80 -42.5 -113t-132.5 -33h-30v-31q0 -76 36 -106.5t124 -30.5q76 0 150 17v476z" />
    <glyph glyph-name="dvD_RA" horiz-adv-x="398" 
d="M323 455h-134q-51 0 -70.5 -18.5t-19.5 -53.5v-150q0 -81 102 -81q45 0 89 10v70h49v-241h-49v124h-2l-172 -184h-65l163 175h-15q-72 0 -112.5 33t-40.5 94v150q0 120 143 120h81v97h-292v46h444v-46h-99v-145z" />
    <glyph glyph-name="dvDH_RA" horiz-adv-x="491" 
d="M361 646h151v-46h-99v-600h-52v101h-1l-158 -149h-75l148 135q-8 -1 -27 -1q-83 0 -131.5 35t-48.5 110v29q0 80 62 96q-56 19 -56 97v74q0 22 2 40t4 25l1 8h-103v46h262v-46h-106q-8 -27 -8 -73v-74q0 -36 18 -53.5t69 -18.5h34v-49h-35q-51 0 -71.5 -18.5t-20.5 -53.5
v-30q0 -53 32.5 -75.5t96.5 -22.5q62 0 112 14v500z" />
    <glyph glyph-name="dvN_RA" horiz-adv-x="559" 
d="M429 430h-149q12 -24 12 -72v-107q0 -116 -126 -116q-127 0 -127 116v112q0 114 127 114h263v123h-451v46h602v-46h-98v-600h-52v40q0 102 3 141l-1 1q0 -1 -14.5 -19t-40 -46.5t-49.5 -53.5l-93 -98h-69l263 278v187zM228 430h-62q-42 0 -58.5 -16.5t-16.5 -50.5v-112
q0 -34 16.5 -51t58.5 -17t58.5 17t16.5 51v107q0 20 -3.5 38t-6.5 26z" />
    <glyph glyph-name="dvP_RA" horiz-adv-x="430" 
d="M115 600v-275q0 -76 97 -76q52 0 88 14v337h-185zM-22 646h473v-46h-98v-600h-53v215l-202 -215h-68l188 201h-8q-71 0 -109 33t-38 91v275h-85v46z" />
    <glyph glyph-name="dvPH_RA" horiz-adv-x="603" 
d="M117 600v-302q0 -76 96 -76q39 0 76 10v368h-172zM625 600h-286v-112q38 12 79 12q67 0 101.5 -32.5t34.5 -87.5v-195q0 -56 -31.5 -87.5t-92.5 -31.5l-18 1v48q50 -1 70 17.5t20 53.5v193q0 36 -18.5 54t-66.5 18q-19 0 -38.5 -2.5t-29.5 -5.5l-10 -3v-440h-50v186
l-172 -207h-63l166 197h-8q-72 0 -110 32.5t-38 90.5v301h-86v46h647v-46z" />
    <glyph glyph-name="dvB_RA" horiz-adv-x="416" 
d="M105 343v-121q0 -77 99 -77q57 0 86 13v42zM290 250v194q-31 14 -86 14q-91 0 -98 -65zM-22 646h460v-46h-99v-600h-49v112l-3 -1l-174 -166h-71l164 154h-3q-73 0 -111.5 32t-38.5 91v159q0 60 38.5 92t110.5 32q56 0 88 -14v109h-312v46z" />
    <glyph glyph-name="dvBH_RA" horiz-adv-x="586" 
d="M265 248v125h-79q-47 0 -63 -16t-16 -52v-57q0 -35 16 -51.5t63 -16.5t63 16t16 52zM457 235v138h-141v-126q0 -58 -31 -86.5t-99 -28.5q-69 0 -100 28.5t-31 86.5v59q0 58 31 85.5t100 27.5h79v111q0 36 -16 54t-60 18q-45 0 -60.5 -18t-15.5 -54l4 -53h-52q-4 25 -4 54
q0 120 128 120t128 -120v-112h140v227h151v-46h-99v-601h-51v34q0 35 1 69t1 53l1 19q-5 -13 -93 -106l-106 -113h-71z" />
    <glyph glyph-name="dvM_RA" horiz-adv-x="558" 
d="M429 457v143h-140v-143h140zM238 264v147h-75q-47 0 -62 -16.5t-15 -53.5v-79q0 -37 14.5 -55t61.5 -18q46 0 61 19t15 56zM-22 646h602v-46h-99v-601h-52v74q0 49 3 106v1q-5 -13 -93 -105l-106 -113h-70l266 280v169h-140v-147q0 -123 -127 -123q-68 0 -98 30.5
t-30 90.5v80q0 58 30.5 86.5t98.5 28.5h75v143h-260v46z" />
    <glyph glyph-name="dvY_RA" horiz-adv-x="494" 
d="M110 348v-43q0 -63 33.5 -92.5t106.5 -29.5q59 0 114 11v406h-130q8 -24 8 -73v-62q0 -117 -132 -117zM-22 646h537v-46h-98v-600h-53v147h-2l-220 -174h-79l210 163q-8 -1 -24 -1q-191 0 -191 169v89h20q65 0 88.5 15t23.5 59v60q0 20 -2 38.5t-4 26.5l-2 8h-204v46z
" />
    <glyph glyph-name="dvL_RA" horiz-adv-x="613" 
d="M484 212v-63q-10 -19 -93 -105l-105 -109h-69zM71 204v127q0 113 118 113q52 0 83 -26q38 47 105 47q41 11 87 -2q4 0 8 128q1 3 -458 5l3 36l601 5l-39 -37l-92 9l55 -558l-41 -9l-6 386q-12 6 -37.5 -11.5t-36.5 -17.5q-45 0 -69.5 -20t-24.5 -51v-110h-44q-4 0 -4 137
q0 32 -17 49t-61 17q-89 0 -89 -74v-132q0 -45 21 -70t77 -25q9 0 27 1t23 1v-44q-27 -9 -47 -9q-142 0 -142 135z" />
    <glyph glyph-name="dvV_RA" horiz-adv-x="427" 
d="M106 377v-145q0 -81 97 -81q63 0 95 14v279q-29 13 -95 13q-97 0 -97 -80zM-22 646h471v-46h-99v-600h-52v119l-183 -172h-72l170 158h-12q-72 0 -109.5 33.5t-37.5 94.5v145q0 59 38 93t109 34q65 0 97 -13v108h-320v46z" />
    <glyph glyph-name="dvSH_RA" horiz-adv-x="563" 
d="M114 531v-42q0 -25 13 -47.5t23.5 -32.5t38.5 -33q28 23 39 33.5t24 32.5t13 47v42q0 36 -15.5 54t-60.5 18q-44 0 -59.5 -18.5t-15.5 -53.5zM433 646h151v-46h-98v-600h-53v243q-26 -30 -79 -85l-143 -142l-68 6l189 185l-142 102l-84 -74l-73 9l115 98q-46 37 -66 68.5
t-20 84.5v36q0 120 127 120q128 0 128 -120v-36q0 -36 -13.5 -65.5t-28 -45t-46.5 -42.5l139 -100l65 64v340z" />
    <glyph glyph-name="dvSS_RA" horiz-adv-x="431" 
d="M108 453v-214q0 -35 24.5 -55.5t75.5 -20.5q45 0 96 17v89zM304 600h-196v-89l196 -185v274zM-22 646h475v-46h-99v-600h-50v131l-2 -1l-156 -167h-68l141 152h-13q-72 0 -111.5 33t-39.5 91v361h-77v46z" />
    <glyph glyph-name="dvS_RA" horiz-adv-x="598" 
d="M329 381h139v219h-147q8 -8 8 -73v-146zM267 600h-289v46h641v-46h-98v-600h-52v191q0 69 2 101l-3 1q-2 -2 -101 -98l-52 -48l-70 6l206 182h-132q-27 -72 -130 -72q-37 0 -74 10v-135q0 -95 115 -95q52 0 125 16v-48q-55 -16 -125 -16q-78 0 -122.5 35.5t-44.5 107.5
v315h52v-132q35 -10 72 -10q90 0 90 77v140q0 21 -2 38.5t-4 25.5t-4 8z" />
    <glyph glyph-name="dvH_RA" horiz-adv-x="428" 
d="M352 457h-160q-50 0 -68.5 -17t-18.5 -52v-13q0 -34 20 -51t70 -17h75q65 0 94.5 -28t29.5 -87v-31h-51v30q0 32 -9 47l-114 -130l-57 1l133 150q-16 2 -27 2h-71q-96 0 -96 -70v-54q0 -48 28 -72t104 -24q62 0 146 14v-47q-75 -15 -147 -15q-97 0 -140 36t-43 107v55
q0 68 56 92q-53 24 -53 93v13q0 116 139 116h107v95h-321v46h472v-46h-98v-143z" />
    <glyph glyph-name="dvLL_RA" horiz-adv-x="588" 
d="M484 119v242q0 38 -17 58.5t-63 20.5q-85 0 -85 -79v-242q0 -79 85 -79q47 0 63.5 20.5t16.5 58.5zM269 119v242q0 79 -84 79q-46 0 -63.5 -20.5t-17.5 -58.5v-242q0 -37 17 -58t63 -21q85 0 85 79zM609 600h-181v-116q106 -11 106 -122v-243q0 -94 -74 -117l83 -152h-56
l-77 145h-5h-7l-77 -145h-56l84 153q-37 12 -55 45q-26 -53 -110 -53q-131 0 -131 124v243q0 124 132 124q82 0 109 -54q22 44 82 51v117h-398v46h631v-46z" />
    <glyph glyph-name="dvKx_RA" horiz-adv-x="605" 
d="M203 -42q36 0 36 -36t-36 -36t-36 36t36 36zM627 600h-289v-106q30 11 71 11q68 0 103 -31t35 -89v-189q0 -54 -29 -87t-89 -33q-17 0 -24 1v48q3 0 9.5 -0.5t9.5 -0.5q72 1 72 73v188q0 72 -89 72q-39 0 -69 -10v-447h-52v113l-168 -161h-72l162 151q-67 0 -102 30.5
t-35 88.5v162q0 58 35 89t103 31q18 0 30 -3v-47q-16 2 -28 2q-89 0 -89 -72v-161q0 -73 89 -73q37 0 75 10v440h-308v46h649v-46z" />
    <glyph glyph-name="dvKHx_RA" horiz-adv-x="725" 
d="M478 5q36 0 36 -36t-36 -36t-36 36t36 36zM591 189v257q-41 9 -82 9q-47 0 -64.5 -18t-17.5 -54v-132q0 -36 17.5 -54t64.5 -18q57 0 82 10zM741 646v-46h-98v-600h-52v141q-40 -10 -83 -10q-132 0 -132 120v132q0 120 132 120q36 0 83 -9v106h-289q12 -24 12 -73v-122
q0 -141 -143 -141q-38 0 -71 7v-97q0 -129 175 -129q37 0 69 4v-48l-157 -108l-75 10v4l146 90q-209 7 -209 177v267h51v-122q44 -7 70 -7q50 0 71.5 24t21.5 70v121q0 20 -3.5 38.5t-6.5 26.5l-3 8h-272v46h763z" />
    <glyph glyph-name="dvGx_RA" horiz-adv-x="473" 
d="M263 -30q36 0 36 -36t-36 -36t-36 36t36 36zM494 646v-46h-98v-600h-52v89v40.5t0.5 32.5t1 22.5t0.5 15.5v5q-2 -5 -102 -107l-95 -98h-69l263 273v327h-158v-244q0 -54 -30 -87.5t-90 -33.5q-21 0 -33 3v48q16 -2 28 -2q73 0 73 73v243h-155v46h516z" />
    <glyph glyph-name="dvJx_RA" horiz-adv-x="565" 
d="M-1 24q0 36 36 36t36 -36t-36 -36t-36 36zM438 434h-157q8 -25 8 -73v-107q0 -62 -37.5 -96t-110.5 -34q-50 0 -93 12v49q46 -13 93 -13q95 0 95 82v106q0 20 -2 38.5t-4 26.5l-2 8h-112v47h322v120h-442v46h591v-46h-99v-600h-50v28v130v1q-3 -8 -110 -100l-126 -109
h-74l1 1l309 270v213z" />
    <glyph glyph-name="dvPHx_RA" horiz-adv-x="603" 
d="M214 -37q36 0 36 -36t-36 -36t-36 36t36 36zM117 600v-302q0 -76 96 -76q39 0 76 10v368h-172zM625 600h-286v-112q38 12 79 12q67 0 101.5 -32.5t34.5 -87.5v-195q0 -56 -31.5 -87.5t-92.5 -31.5l-18 1v48q50 -1 70 17.5t20 53.5v193q0 36 -18.5 54t-66.5 18
q-19 0 -38.5 -2.5t-29.5 -5.5l-10 -3v-440h-50v186l-172 -207h-63l166 197h-8q-72 0 -110 32.5t-38 90.5v301h-86v46h647v-46z" />
    <glyph glyph-name="dvK_R" horiz-adv-x="420" 
d="M558 600h-220v-106q35 10 81 10q71 0 100.5 -31.5t29.5 -89.5v-6h-51v6q0 37 -16.5 55t-63.5 18q-48 0 -80 -9v-447h-52v112h-1l-167 -160h-72l161 150q-136 2 -136 119v163q0 58 35 89t103 31q18 0 30 -3v-47q-16 2 -28 2q-89 0 -89 -72v-164q0 -73 89 -73q37 0 75 10
v443h-308v46h580v-46z" />
    <glyph glyph-name="dvKH_R" horiz-adv-x="518" 
d="M100 271v-97q0 -129 175 -129q37 0 69 4v-48l-157 -108l-75 10v4l146 90q-209 7 -209 177v267h51v-122q44 -7 70 -7q50 0 71.5 24t21.5 70v121q0 20 -3.5 38.5t-6.5 26.5l-3 8h-272v46h661v-46h-337q12 -24 12 -73v-122q0 -141 -143 -141q-38 0 -71 7zM591 251v132
q0 36 -17 54t-65 18q-47 0 -64.5 -18t-17.5 -54v-132q0 -36 17.5 -54t64.5 -18q48 0 65 18t17 54zM376 251v132q0 120 133 120t133 -120v-132q0 -64 -31.5 -92t-101.5 -28t-101.5 28t-31.5 92z" />
    <glyph glyph-name="dvG_R" horiz-adv-x="265" 
d="M347 277v-62q-6 -15 -93 -106l-105 -109h-69zM185 600v-242q0 -54 -30 -87t-90 -33q-21 0 -33 3v48q16 -2 28 -2q73 0 73 72v241h-155v46h364v-46h-157z" />
    <glyph glyph-name="dvGH_R" horiz-adv-x="288" 
d="M378 600h-244q-8 -27 -8 -73v-73q0 -36 18 -54t69 -19h33v-48h-34q-52 0 -72 -18.5t-20 -53.5v-32q0 -53 33.5 -75.5t101.5 -22.5q43 0 120 9v-46l-156 -139h-67l149 130q-25 -3 -51 -3q-183 0 -183 146v33q0 79 63 96q-57 20 -57 96v74q0 22 2 40t4 25l2 8h-103v46h400
v-46z" />
    <glyph glyph-name="dvNG_R" horiz-adv-x="430" 
d="M175 -183h49l102 -146h-59zM397 397q36 0 36 -36q0 -37 -36 -37t-36 37q0 36 36 36zM-23 646h474v-46h-125v-143h-131q-50 0 -70 -17.5t-20 -52.5v-29q0 -35 20 -53t70 -18h17q143 0 143 -118v-50q0 -96 -97 -117l83 -153h-56l-77 146h-12l-77 -146h-56l81 148
q-42 3 -89 13v48q60 -15 137 -15q111 0 111 76v49q0 35 -20 53t-71 18h-17q-143 0 -143 118v31q0 117 143 117h79v95h-297v46z" />
    <glyph glyph-name="dvC_R" horiz-adv-x="241" 
d="M327 646v-46h-358v46h358zM136 342v-150q0 -40 23.5 -59t81.5 -19q63 0 113 13v-48l-155 -138h-67l144 126q-22 -2 -38 -2q-154 0 -154 127v150q0 27 2 49.5t4 32.5l3 9h-90v47h259v-46h-116q-10 -32 -10 -92z" />
    <glyph glyph-name="dvCH_R" horiz-adv-x="499" 
d="M231 -155h49l102 -146h-59zM388 168v204q0 38 -15.5 56t-62.5 18q-13 0 -27 -2t-21 -4l-8 -2v47q27 9 62 9v106h-185q-10 -27 -10 -73v-132q0 -36 18 -53.5t69 -18.5h49v-48h-49q-51 0 -72 -18.5t-21 -54.5v-35q0 -55 28 -74.5t109 -19.5t108.5 20t27.5 75zM520 600h-156
v-113q76 -17 76 -113v-206q0 -67 -31 -100t-101 -40l86 -158h-56l-82 155h-2l-82 -155h-56l86 157q-74 7 -106.5 40t-32.5 99v37q0 79 62 95q-56 19 -56 97v132q0 22 2.5 40t4.5 25l3 8h-101v46h542v-46z" />
    <glyph glyph-name="dvJ_R" horiz-adv-x="338" 
d="M133 -46l312 267v-57q-26 -30 -86 -83l-157 -131h-69v4zM429 646v-46h-451v46h451zM430 480v-46h-167q8 -25 8 -73v-121q0 -62 -38 -96t-110 -34q-50 0 -93 12v49q45 -13 93 -13q95 0 95 82v120q0 20 -2 38.5t-4 26.5l-2 8h-112v47h332z" />
    <glyph glyph-name="dvJH_R" horiz-adv-x="432" 
d="M521 190v-56q-2 -3 -14.5 -18.5t-33.5 -41t-38 -43.5l-113 -119h-62zM341 191v-50q0 -60 -35 -90t-112 -30q-51 0 -86 10v-90h-50v212h50v-74q36 -10 84 -10q97 0 97 73v50q0 34 -19.5 52.5t-68.5 18.5h-5q-139 0 -139 118v7q0 117 142 117h125v95h-346v46h542v-46h-143
v-143h-178q-51 0 -70.5 -17t-19.5 -52v-7q0 -35 19 -53t68 -18h325v-46h-212q32 -21 32 -73z" />
    <glyph glyph-name="dvNY_R" horiz-adv-x="361" 
d="M450 320v-46h-156v-57q0 -128 -142 -128q-58 0 -98 16v49q54 -17 98 -17q90 0 90 82v159q0 39 -20 60t-69 21t-90 -16v49q34 16 90 16q141 0 141 -128v-60h156zM450 646v-46h-472v46h472zM450 216v-51q-37 -55 -73 -94l-143 -150h-63z" />
    <glyph glyph-name="dvTT_R" horiz-adv-x="388" 
d="M180 -159h49l102 -146h-59zM319 455h-116q-93 0 -93 -74v-248q0 -89 111 -89q57 0 116 18v-49q-34 -11 -76 -15l82 -149h-56l-78 147l-10 1l-78 -148h-56l86 157q-93 29 -93 127v249q0 121 144 121h65v97h-289v46h431v-46h-90v-145z" />
    <glyph glyph-name="dvTTH_R" horiz-adv-x="402" 
d="M179 -159h49l102 -146h-59zM292 120v263q0 77 -91 77t-91 -77v-263q0 -77 91 -77t91 77zM424 600h-197v-93q117 -12 117 -123v-264q0 -94 -86 -118l84 -153h-56l-77 146h-8h-4l-77 -146h-56l83 152q-89 22 -89 119v264q0 111 116 123v93h-196v46h446v-46z" />
    <glyph glyph-name="dvDD_R" horiz-adv-x="408" 
d="M179 -159h49l102 -146h-59zM326 457h-131q-50 0 -70 -17.5t-20 -52.5v-38q0 -35 20 -53t70 -18h17q143 0 143 -119v-40q0 -95 -96 -117l84 -154h-56l-78 147h-10l-78 -147h-56l81 148q-47 3 -89 13v51q59 -17 135 -17q111 0 111 76v40q0 35 -20 53t-71 18h-17
q-143 0 -143 118v40q0 117 143 117h79v95h-297v46h452v-46h-103v-143z" />
    <glyph glyph-name="dvDDH_R" horiz-adv-x="403" 
d="M187 -159h49l102 -146h-59zM320 455h-119q-51 0 -71 -18.5t-20 -53.5v-257q0 -39 21 -60.5t75 -21.5t75 21.5t21 60.5v51q0 71 -66 71q-10 0 -21 -2t-17 -4l-6 -1v47q18 8 46 8q51 0 83.5 -30.5t32.5 -88.5v-52q0 -101 -91 -124l83 -152h-56l-77 146h-7h-5l-77 -146h-56
l83 152q-93 22 -93 124v258q0 121 143 121h67v96h-290v46h446v-46h-104v-145z" />
    <glyph glyph-name="dvNN_R" horiz-adv-x="382" 
d="M463 646v-46h-131v-255q0 -125 -138 -125t-138 125v255h-78v46h485zM157 0l306 274v-55q-31 -40 -92 -95l-140 -124h-74zM194 268q50 0 68 20t18 57v255h-172v-255q0 -37 18 -57t68 -20z" />
    <glyph glyph-name="dvT_R" horiz-adv-x="235" 
d="M383 646v-46h-407v46h407zM361 450v-129q-2 -2 -57 -60.5t-57 -60.5l-141 -145h-70l274 283v78q-48 15 -101 15q-114 0 -114 -88v-58h-52v59q0 66 41.5 100.5t122.5 34.5q57 0 154 -29z" />
    <glyph glyph-name="dvTH_R" horiz-adv-x="334" 
d="M101 321v-48q0 -75 36 -106t125 -31q69 0 159 17v-44l-188 -147h-79l174 130q-40 -4 -67 -4q-109 0 -160.5 44.5t-51.5 140.5v96h81q68 0 97.5 20t29.5 79v55q0 43 -11.5 61.5t-54.5 18.5t-57 -19t-14 -60l4 -51h-51q-5 30 -5 50q0 65 28.5 96.5t93.5 31.5t91 -31.5
t26 -96.5v-56q0 -80 -42.5 -113t-132.5 -33h-31z" />
    <glyph glyph-name="dvD_R" horiz-adv-x="398" 
d="M337 -9h-49v124l-2 -1l-171 -183h-66l162 174h-14q-72 0 -112.5 33t-40.5 94v151q0 120 144 120h81v97h-292v46h443v-46h-99v-145h-133q-51 0 -71 -18.5t-20 -53.5v-151q0 -80 102 -80q44 0 89 12v68h49v-241zM341 -63l102 -146h-59l-92 146h49z" />
    <glyph glyph-name="dvDH_R" horiz-adv-x="297" 
d="M120 265v-36q0 -53 33.5 -75.5t101.5 -22.5q43 0 120 9v-46l-156 -139h-67l149 130q-24 -3 -51 -3q-183 0 -183 146v38q0 79 63 95q-57 20 -57 97v69q0 22 2.5 40t4.5 25l2 8h-104v46h234v-46h-77q-9 -27 -9 -73v-69q0 -36 18 -53.5t69 -18.5h33v-49h-34q-52 0 -72 -18
t-20 -54z" />
    <glyph glyph-name="dvN_R" horiz-adv-x="355" 
d="M446 262v-59q-60 -76 -119 -140l-93 -98h-69zM446 477v-47h-157q12 -24 12 -72v-107q0 -116 -126 -116q-127 0 -127 116v112q0 114 127 114h271zM444 646v-46h-466v46h466zM237 430h-62q-42 0 -58.5 -16.5t-16.5 -50.5v-112q0 -34 16.5 -51t58.5 -17t58.5 17t16.5 51v107
q0 20 -3 38t-6 26t-4 8z" />
    <glyph glyph-name="dvP_R" horiz-adv-x="217" 
d="M115 600v-291q0 -76 105 -76q51 0 94 10v-45l-213 -200h-69l202 187q-3 0 -8.5 -0.5t-7.5 -0.5q-77 0 -116 32.5t-39 91.5v292h-85v46h324v-46h-187z" />
    <glyph glyph-name="dvPH_R" horiz-adv-x="432" 
d="M116 600v-300q0 -76 97 -76q31 0 76 9v367h-173zM559 600h-220v-112q33 11 90 11q72 0 101 -31.5t29 -89.5v-6h-51v6q0 37 -16.5 55t-63.5 18q-58 0 -89 -10v-441h-50v186h-1l-171 -207h-64l167 197h-9q-71 0 -109 32.5t-38 90.5v301h-86v46h581v-46z" />
    <glyph glyph-name="dvB_R" horiz-adv-x="218" 
d="M105 344v-140q0 -36 20.5 -55t72.5 -19q51 0 72 18t21 56v5zM291 258v125q0 38 -21 56.5t-72 18.5q-88 0 -93 -65zM53 204v179q0 122 145 122q144 0 144 -122v-179q0 -40 -14.5 -63t-54.5 -61l-155 -145h-73l160 148q-152 -3 -152 121zM-22 646h384v-46h-384v46z" />
    <glyph glyph-name="dvBH_R" horiz-adv-x="407" 
d="M490 419v-46h-174v-126q0 -58 -31 -86.5t-99 -28.5q-69 0 -100 28.5t-31 86.5v59q0 58 31 85.5t100 27.5h79v111q0 36 -16 54t-60 18q-45 0 -60.5 -18t-15.5 -54l5 -53h-52q-5 30 -5 54q0 120 128 120t128 -120v-112h173zM490 269v-56q-50 -69 -121 -145l-107 -113h-71z
M265 248v125h-79q-47 0 -63 -16t-16 -52v-57q0 -35 16 -51.5t63 -16.5t63 16t16 52z" />
    <glyph glyph-name="dvM_R" horiz-adv-x="359" 
d="M238 264v147h-75q-47 0 -62 -16.5t-15 -53.5v-79q0 -37 14.5 -55t61.5 -18q46 0 61 19t15 56zM447 262v-63q-81 -96 -108 -124l-106 -113h-70zM447 646v-46h-158v-143h158v-46h-158v-147q0 -123 -127 -123q-68 0 -98 30.5t-30 90.5v80q0 58 30.5 86.5t98.5 28.5h75v143
h-260v46h469z" />
    <glyph glyph-name="dvY_R" horiz-adv-x="316" 
d="M110 348v-53q0 -74 35.5 -104.5t122.5 -30.5q73 0 156 16v-43l-191 -155h-77l179 138q-42 -4 -67 -4q-109 0 -159.5 43t-50.5 138v100h20q65 0 88.5 15t23.5 59v60q0 36 -18 54.5t-63 18.5h-131v46h430v-46h-196q30 -16 30 -73v-62q0 -117 -132 -117z" />
    <glyph glyph-name="dvL_R" horiz-adv-x="405" 
d="M486 212v-63q-10 -19 -93 -105l-105 -109h-69zM506 646v-46h-528v46h528zM487 434v-49q-42 20 -95 20q-51 0 -74.5 -16t-23.5 -41v-132q0 4 -29 12q2 0 4 34.5t3.5 68t1.5 32.5q2 75 -71 75q-43 0 -59 -19.5t-14 -54.5v-146q-1 -47 20 -72.5t78 -25.5q8 0 26 1t23 1v-42
q-25 -5 -64 -5q-73 0 -108 37.5t-35 102.5q0 140 -3 140q-2 53 27 82t90 28q65 0 99 -47q30 35 110 35q47 0 94 -19z" />
    <glyph glyph-name="dvV_R" horiz-adv-x="215" 
d="M105 365v-160q0 -76 113 -76q72 0 113 11v-48l-168 -154h-67l159 145q-26 -2 -40 -2q-162 0 -162 124v160q0 121 145 121q28 0 36 -4v-46q-12 2 -35 2q-94 0 -94 -73zM-22 646h359v-46h-359v46z" />
    <glyph glyph-name="dvSH_R" horiz-adv-x="341" 
d="M114 531v-42q0 -25 13 -47.5t23.5 -32.5t38.5 -33q28 23 39 33.5t24 32.5t13 47v42q0 36 -15.5 54t-60.5 18q-44 0 -59.5 -18.5t-15.5 -53.5zM448 321l6 -54q-44 -52 -100 -109l-143 -142l-68 6l189 185l-142 102l-84 -74l-73 9l115 98q-46 37 -66 68.5t-20 84.5v36
q0 120 127 120q128 0 128 -120v-36q0 -36 -13.5 -65.5t-28 -45t-46.5 -42.5l139 -100z" />
    <glyph glyph-name="dvSS_R" horiz-adv-x="258" 
d="M324 200l-216 252v-207q0 -82 99 -82q84 0 117 37zM364 600h-256v-87l249 -290v-57q-15 -15 -33 -24l-165 -176h-68l140 150q-8 -1 -25 -1q-76 0 -113.5 34.5t-37.5 94.5v356h-77v46h386v-46z" />
    <glyph glyph-name="dvS_R" horiz-adv-x="401" 
d="M115 453v-132q35 -10 72 -10q90 0 90 77v140q0 21 -2 38.5t-4 25.5t-4 8h-289v46h459v-46h-116q8 -8 8 -73v-146h158v-75q-1 -2 -57.5 -56t-58.5 -55l-51 -48l-71 6l206 182h-136q-27 -72 -130 -72q-37 0 -74 10v-135q0 -95 115 -95q52 0 125 16v-48q-55 -16 -125 -16
q-78 0 -122.5 35.5t-44.5 107.5v315h52z" />
    <glyph glyph-name="dvH_R" horiz-adv-x="428" 
d="M208 -59h49l102 -146h-59zM352 457h-160q-50 0 -68.5 -17t-18.5 -52v-13q0 -34 20 -51t70 -17h75q65 0 94.5 -28t29.5 -87v-31h-51v30q0 32 -9 47l-114 -130l-57 1l133 150q-16 2 -27 2h-71q-96 0 -96 -70v-54q0 -48 28 -72t104 -24q62 0 146 14v-47q-75 -15 -147 -15
q-97 0 -140 36t-43 107v55q0 68 56 92q-53 24 -53 93v13q0 116 139 116h107v95h-321v46h472v-46h-98v-143z" />
    <glyph glyph-name="dvLL_R" horiz-adv-x="588" 
d="M373 -164h49l102 -146h-59zM484 119v242q0 38 -17 58.5t-63 20.5q-85 0 -85 -79v-242q0 -79 85 -79q47 0 63.5 20.5t16.5 58.5zM269 119v242q0 79 -84 79q-46 0 -63.5 -20.5t-17.5 -58.5v-242q0 -37 17 -58t63 -21q85 0 85 79zM609 600h-181v-116q106 -11 106 -122v-243
q0 -94 -74 -117l83 -152h-56l-77 145h-5h-7l-77 -145h-56l84 153q-37 12 -55 45q-26 -53 -110 -53q-131 0 -131 124v243q0 124 132 124q82 0 109 -54q22 44 82 51v117h-398v46h631v-46z" />
    <glyph glyph-name="dvKx_R" horiz-adv-x="421" 
d="M228 -42q37 0 37 -37q0 -36 -37 -36q-36 0 -36 36q0 37 36 37zM558 600h-220v-106q35 10 81 10q71 0 100.5 -31.5t29.5 -89.5v-6h-51v6q0 37 -16.5 55t-63.5 18q-48 0 -80 -9v-447h-52v112h-1l-167 -160h-72l161 150q-136 2 -136 119v163q0 58 35 89t103 31q18 0 30 -3
v-47q-16 2 -28 2q-89 0 -89 -72v-164q0 -73 89 -73q37 0 75 10v443h-308v46h580v-46z" />
    <glyph glyph-name="dvKHx_R" horiz-adv-x="517" 
d="M100 271v-97q0 -129 175 -129q37 0 69 4v-48l-157 -108l-75 10v4l146 90q-209 7 -209 177v267h51v-122q44 -7 70 -7q50 0 71.5 24t21.5 70v121q0 20 -3.5 38.5t-6.5 26.5l-3 8h-272v46h661v-46h-337q12 -24 12 -73v-122q0 -141 -143 -141q-38 0 -71 7zM503 25
q36 0 36 -36t-36 -36t-36 36t36 36zM591 251v132q0 36 -17 54t-65 18q-47 0 -64.5 -18t-17.5 -54v-132q0 -36 17.5 -54t64.5 -18q48 0 65 18t17 54zM376 251v132q0 120 133 120t133 -120v-132q0 -64 -31.5 -92t-101.5 -28t-101.5 28t-31.5 92z" />
    <glyph glyph-name="dvGx_R" horiz-adv-x="265" 
d="M347 277v-62q-6 -15 -93 -106l-105 -109h-69zM185 600v-242q0 -54 -30 -87t-90 -33q-21 0 -33 3v48q16 -2 28 -2q73 0 73 72v241h-155v46h364v-46h-157zM261 -29q0 36 36 36t36 -36t-36 -36t-36 36z" />
    <glyph glyph-name="dvJx_R" horiz-adv-x="370" 
d="M0 16q0 36 36 36t36 -36t-36 -36t-36 36zM151 -46l312 267v-57q-26 -30 -86 -83l-157 -131h-69v4zM447 646v-46h-451v46h451zM448 480v-46h-167q8 -25 8 -73v-121q0 -62 -38 -96t-110 -34q-50 0 -93 12v49q46 -13 93 -13q95 0 95 82v120q0 20 -2 38.5t-4 26.5l-2 8h-112
v47h332z" />
    <glyph glyph-name="dvPHx_R" horiz-adv-x="460" 
d="M215 -50q36 0 36 -36t-36 -36t-36 36t36 36zM116 600v-300q0 -76 97 -76q31 0 76 9v367h-173zM559 600h-220v-112q33 11 90 11q72 0 101 -31.5t29 -89.5v-6h-51v6q0 37 -16.5 55t-63.5 18q-58 0 -89 -10v-441h-50v186h-1l-171 -207h-64l167 197h-9q-71 0 -109 32.5
t-38 90.5v301h-86v46h581v-46z" />
    <glyph glyph-name="dvK_KA" horiz-adv-x="999" 
d="M689 129v471h-373v-106q33 10 79 10q76 0 106 -38q35 38 111 38q18 0 30 -3v-47q-16 2 -29 2q-88 0 -88 -72v-193q0 -72 88 -72q44 0 76 10zM1020 600h-279v-106q30 11 71 11q68 0 103 -31t35 -89v-189q0 -54 -29 -87t-90 -33q-16 0 -23 1v48q3 0 9.5 -0.5t9.5 -0.5
q71 1 71 73v188q0 72 -88 72q-39 0 -69 -10v-447h-52v81q-47 -10 -77 -10q-68 0 -103.5 31t-35.5 89v192q0 36 -16 54.5t-63 18.5t-78 -9v-447h-52v81q-48 -10 -77 -10q-68 0 -103.5 31t-35.5 89v193q0 58 35.5 89t103.5 31q18 0 30 -3v-47q-16 2 -29 2q-88 0 -88 -72v-193
q0 -72 88 -72q44 0 76 10v471h-286v46h1042v-46z" />
    <glyph glyph-name="dvKx_KxA" horiz-adv-x="999" 
d="M116 11q36 0 36 -36q0 -37 -36 -37q-37 0 -37 37q0 36 37 36zM541 11q36 0 36 -36q0 -37 -36 -37q-37 0 -37 37q0 36 37 36zM689 129v471h-373v-106q33 10 79 10q76 0 106 -38q35 38 111 38q18 0 30 -3v-47q-16 2 -29 2q-88 0 -88 -72v-193q0 -72 88 -72q44 0 76 10z
M1020 600h-279v-106q30 11 71 11q68 0 103 -31t35 -89v-189q0 -54 -29 -87t-90 -33q-16 0 -23 1v48q3 0 9.5 -0.5t9.5 -0.5q71 1 71 73v188q0 72 -88 72q-39 0 -69 -10v-447h-52v81q-47 -10 -77 -10q-68 0 -103.5 31t-35.5 89v192q0 36 -16 54.5t-63 18.5t-78 -9v-447h-52
v81q-48 -10 -77 -10q-68 0 -103.5 31t-35.5 89v193q0 58 35.5 89t103.5 31q18 0 30 -3v-47q-16 2 -29 2q-88 0 -88 -72v-193q0 -72 88 -72q44 0 76 10v471h-286v46h1042v-46z" />
    <glyph glyph-name="dvK_KHA" horiz-adv-x="1145" 
d="M1016 189v257q-43 9 -82 9q-47 0 -64.5 -18t-17.5 -54v-132q0 -36 17.5 -54t64.5 -18q57 0 82 10zM688 406v121q0 20 -3 38.5t-7 26.5l-3 8h-359v-106q33 10 79 10q72 0 101 -31.5t29 -89.5v-64q44 -7 70 -7q50 0 71.5 24t21.5 70zM1166 646v-46h-98v-600h-52v141
q-40 -10 -83 -10q-132 0 -132 120v132q0 120 132 120q36 0 83 -9v106h-289q12 -24 12 -73v-122q0 -141 -143 -141q-38 0 -71 7v-97q0 -129 175 -129q75 0 141 17v-51q-73 -15 -141 -15q-227 0 -227 178v209q0 37 -16 55t-63 18t-78 -9v-447h-52v81q-48 -10 -77 -10
q-68 0 -103.5 31t-35.5 89v193q0 58 35.5 89t103.5 31q18 0 30 -3v-47q-16 2 -29 2q-88 0 -88 -72v-193q0 -72 88 -72q44 0 76 10v471h-286v46h1188z" />
    <glyph glyph-name="dvK_CA" horiz-adv-x="903" 
d="M774 126v474h-458v-106q33 10 79 10q66 0 95 -26.5t33 -75.5h194v-46h-116q-10 -31 -10 -92v-74q0 -40 21.5 -59.5t72.5 -19.5q47 0 89 15zM925 646v-46h-99v-600h-52v78q-42 -15 -91 -15q-144 0 -144 126v75q0 27 2.5 50t4.5 32l2 10h-75v27q0 37 -16 55t-63 18t-78 -9
v-447h-52v81q-48 -10 -77 -10q-68 0 -103.5 31t-35.5 89v193q0 58 35.5 89t103.5 31q18 0 30 -3v-47q-16 2 -29 2q-88 0 -88 -72v-193q0 -72 88 -72q44 0 76 10v471h-286v46h947z" />
    <glyph glyph-name="dvK_JA" horiz-adv-x="1034" 
d="M1055 646v-46h-99v-600h-52v434h-152q8 -25 8 -73v-190q0 -62 -37.5 -95.5t-109.5 -33.5q-54 0 -87 10v49q41 -11 86 -11q96 0 96 82v188q0 20 -2 38.5t-4 26.5l-2 8h-91v47h295v120h-588v-106q33 10 79 10q72 0 101.5 -31.5t29.5 -89.5v-97h-53v97q0 37 -16 55t-63 18
t-78 -9v-447h-52v81q-48 -10 -77 -10q-68 0 -103.5 31t-35.5 89v193q0 58 35.5 89t103.5 31q18 0 30 -3v-47q-16 2 -29 2q-88 0 -88 -72v-193q0 -72 88 -72q44 0 76 10v471h-286v46h1077z" />
    <glyph glyph-name="dvK_TTA" horiz-adv-x="803" 
d="M316 600v-106q33 10 79 10q77 0 107 -39q36 38 115 38h65v97h-366zM734 455h-116q-51 0 -71.5 -19t-20.5 -55v-248q0 -89 111 -89q57 0 115 18v-49q-53 -17 -116 -17q-75 0 -119 36t-44 101v250q0 37 -16 55t-63 18t-78 -9v-447h-52v81q-48 -10 -77 -10q-68 0 -103.5 31
t-35.5 89v193q0 58 35.5 89t103.5 31q18 0 30 -3v-47q-16 2 -29 2q-88 0 -88 -72v-193q0 -72 88 -72q44 0 76 10v471h-286v46h846v-46h-90v-145z" />
    <glyph glyph-name="dvK_NNA" horiz-adv-x="1024" 
d="M700 247v353h-172v-353q0 -37 18 -57t68 -20q49 0 67.5 20t18.5 57zM316 600v-127q33 10 80 10q49 0 79 -16v133h-159zM1045 646v-46h-98v-600h-52v600h-143v-353q0 -126 -138 -126q-139 0 -139 126v134q-3 27 -21 40.5t-58 13.5q-49 0 -80 -9v-426h-52v81
q-48 -10 -77 -10q-68 0 -103.5 31t-35.5 89v193q0 58 35.5 89t103.5 31q18 0 30 -3v-47q-16 2 -29 2q-88 0 -88 -72v-193q0 -72 88 -72q44 0 76 10v471h-286v46h1067z" />
    <glyph glyph-name="dvK_TA" horiz-adv-x="603" 
d="M335 430v-430h-52v431q-46 6 -79 6q-47 0 -63 -18t-16 -55v-195q0 -36 20 -54t71 -17v-48h-4q-3 0 -7.5 -0.5t-7.5 -0.5q-61 -1 -92.5 31t-31.5 89v195q0 43 21 73h-81v46h190q32 0 80 -6v123h-305v46h646v-46h-289v-123q32 10 71 10q139 0 139 -120v-198
q0 -54 -29.5 -87t-89.5 -33q-17 0 -24 1v49q7 -1 19 -1q41 0 56.5 19t15.5 53v197q0 73 -88 73q-36 0 -70 -10z" />
    <glyph glyph-name="dvKx_TA" horiz-adv-x="849" 
d="M120 11q36 0 36 -36q0 -37 -36 -37t-36 37q0 36 36 36zM720 490v110h-404v-107q31 11 80 11q79 0 109 -41q38 41 118 41q47 0 97 -14zM871 646v-46h-98v-600h-53v442q-54 14 -96 14q-96 0 -96 -78v-259q0 -36 20 -54t71 -17v-49h-19q-62 0 -93.5 31.5t-31.5 87.5v265
q0 37 -16.5 55t-63.5 18t-79 -9v-447h-52v81q-48 -10 -77 -10q-68 0 -103.5 31t-35.5 89v193q0 58 35.5 89t103.5 31q18 0 30 -3v-47q-16 2 -29 2q-88 0 -88 -72v-193q0 -72 88 -72q44 0 76 10v471h-286v46h893z" />
    <glyph glyph-name="dvK_T_YA" horiz-adv-x="1153" 
d="M1023 145v455h-130q8 -24 8 -73v-73q0 -117 -132 -117v-81q0 -63 33.5 -92.5t106.5 -29.5q59 0 114 11zM622 468h20q115 0 126 -85q46 3 63.5 18.5t17.5 54.5v71q0 20 -2 38.5t-4 26.5l-2 8h-525v-106q33 10 79 10q98 0 121 -65q38 29 106 29zM1174 646v-46h-98v-600h-53
v97q-55 -12 -115 -12q-191 0 -191 169v115q-7 51 -77 51h-18q-96 0 -96 -78v-223q0 -36 20 -54t71 -17v-48h-3q-4 0 -8.5 -0.5t-7.5 -0.5q-62 -2 -93.5 30t-31.5 89v225v10v30q0 37 -16 55t-63 18t-78 -9v-447h-52v81q-48 -10 -77 -10q-68 0 -103.5 31t-35.5 89v193
q0 58 35.5 89t103.5 31q18 0 30 -3v-47q-16 2 -29 2q-88 0 -88 -72v-193q0 -72 88 -72q44 0 76 10v471h-286v46h1196z" />
    <glyph glyph-name="dvK_T_RA" horiz-adv-x="869" 
d="M740 483v117h-424v-106q33 10 79 10q84 0 113 -47q41 41 129 41q55 0 103 -15zM890 646v-46h-98v-600h-52v157q0 103 4 115h-4q-3 -8 -66 -74l-139 -143h-70l275 283v97q-45 14 -101 14q-114 0 -114 -88v-58h-52v80q0 37 -16 55t-63 18t-78 -9v-447h-52v81
q-48 -10 -77 -10q-68 0 -103.5 31t-35.5 89v193q0 58 35.5 89t103.5 31q18 0 30 -3v-47q-16 2 -29 2q-88 0 -88 -72v-193q0 -72 88 -72q44 0 76 10v471h-286v46h912z" />
    <glyph glyph-name="dvK_T_VA" horiz-adv-x="1071" 
d="M943 134v310q-33 13 -95 13q-51 0 -74.5 -22t-23.5 -58v-177q0 -80 98 -80q64 0 95 14zM316 600v-106q33 10 79 10q84 0 113 -47q41 38 120 38q45 0 126 -11q37 21 92 21q67 0 96 -13v108h-626zM1093 646v-46h-99v-600h-52v86q-32 -14 -96 -14q-72 0 -110 33.5t-38 94.5
v178q0 36 15 63q-45 5 -85 5q-102 0 -102 -77v-250q0 -36 20 -54t71 -17v-48q-13 -1 -19 -1q-62 -2 -93.5 30t-31.5 89v265q0 37 -16 55t-63 18t-78 -9v-447h-52v81q-48 -10 -77 -10q-68 0 -103.5 31t-35.5 89v193q0 58 35.5 89t103.5 31q18 0 30 -3v-47q-16 2 -29 2
q-88 0 -88 -72v-193q0 -72 88 -72q44 0 76 10v471h-286v46h1115z" />
    <glyph glyph-name="dvK_THA" horiz-adv-x="964" 
d="M836 646h150v-46h-98v-600h-52v105q-63 -17 -150 -17q-109 0 -160.5 44.5t-51.5 140.5v54h-1v6q0 37 -16 55t-63 18q-48 0 -78 -10v-396h-52v81q-48 -10 -77 -10q-68 0 -103.5 31t-35.5 89v193q0 58 35.5 89t103.5 31q18 0 30 -3v-47q-16 2 -29 2q-88 0 -88 -72v-193
q0 -72 88 -72q44 0 76 10v471h-286v46h471v-46h-133v-157q31 11 79 11q111 0 126 -85h34q69 0 98.5 20t29.5 79v55q0 43 -12 61.5t-55 18.5t-57 -19t-14 -60l5 -51h-52q-5 29 -5 50q0 65 28.5 96.5t93.5 31.5t91 -31.5t26 -96.5v-56q0 -80 -42.5 -113t-132.5 -33h-31v-48
q0 -75 36.5 -106t124.5 -31q79 0 149 18v492z" />
    <glyph glyph-name="dvK_DA" horiz-adv-x="827" 
d="M316 600v-106q33 10 79 10q77 0 107 -38q35 37 115 37h81v97h-382zM750 455h-133q-51 0 -71 -18.5t-20 -53.5v-179q0 -80 102 -80q46 0 89 10v98h49v-241h-49v94q-42 -9 -91 -9q-72 0 -112 33.5t-40 94.5v154h-1v25q0 37 -16 55t-63 18t-78 -9v-447h-52v81
q-48 -10 -77 -10q-68 0 -103.5 31t-35.5 89v193q0 58 35.5 89t103.5 31q18 0 30 -3v-47q-16 2 -29 2q-88 0 -88 -72v-193q0 -72 88 -72q44 0 76 10v471h-286v46h871v-46h-99v-145z" />
    <glyph glyph-name="dvK_NA" horiz-adv-x="991" 
d="M862 477v123h-547v-106q33 10 79 10q88 0 116 -52q31 25 90 25h262zM675 178v178q0 21 -3 39t-6 26.5t-4 8.5h-62q-42 0 -58.5 -16.5t-16.5 -50.5v-185q0 -34 17 -51t58 -17q42 0 58.5 17t16.5 51zM1013 646v-46h-99v-600h-52v430h-148q12 -25 12 -73v-179
q0 -116 -126 -116q-127 0 -127 116v205q0 37 -16.5 55t-63.5 18q-46 0 -78 -9v-447h-52v81q-45 -10 -76 -10q-68 0 -103.5 31t-35.5 89v193q0 58 35.5 89t103.5 31q17 0 30 -3v-47q-18 2 -29 2q-88 0 -88 -72v-193q0 -72 88 -72q44 0 76 10v471h-286v46h1035z" />
    <glyph glyph-name="dvK_PA" horiz-adv-x="842" 
d="M713 192v408h-185v-346q0 -76 97 -76q50 0 88 14zM316 600v-127q33 10 80 10q50 0 80 -16v133h-160zM864 646v-46h-99v-600h-52v144q-37 -14 -90 -14q-72 0 -109.5 32.5t-37.5 91.5v108q0 37 -16.5 55t-63.5 18q-49 0 -80 -9v-426h-52v81q-48 -10 -77 -10
q-68 0 -103.5 31t-35.5 89v193q0 58 35.5 89t103.5 31q18 0 30 -3v-47q-16 2 -29 2q-88 0 -88 -72v-193q0 -72 88 -72q44 0 76 10v471h-286v46h886z" />
    <glyph glyph-name="dvK_P_RA" horiz-adv-x="842" 
d="M527 600v-275q0 -76 97 -76q52 0 88 14v337h-185zM316 600v-126q29 10 80 10q49 0 79 -16v132h-159zM863 646v-46h-98v-600h-53v215l-202 -215h-68l188 201h-8q-71 0 -109 33t-38 91v57q-3 27 -21 41t-58 14q-50 0 -80 -10v-427h-52v81q-48 -10 -77 -10q-68 0 -103.5 31
t-35.5 89v193q0 58 35.5 89t103.5 31q18 0 30 -3v-47q-16 2 -29 2q-88 0 -88 -72v-193q0 -72 88 -72q44 0 76 10v471h-286v46h885z" />
    <glyph glyph-name="dvK_PHA" horiz-adv-x="1014" 
d="M700 179v421h-172v-354q0 -77 97 -77q40 0 75 10zM316 600v-127q33 10 80 10q50 0 80 -16v133h-160zM1036 600h-286v-112q38 12 79 12q67 0 102 -32.5t35 -87.5v-195q0 -55 -32 -87t-93 -32l-18 1v48q50 -1 70 17.5t20 53.5v193q0 36 -18.5 54t-66.5 18q-19 0 -38.5 -2.5
t-29.5 -5.5l-10 -3v-440h-50v132q-41 -11 -77 -11q-72 0 -109.5 32.5t-37.5 91.5v117q0 37 -16.5 55t-63.5 18q-49 0 -80 -9v-426h-52v81q-48 -10 -77 -10q-68 0 -103.5 31t-35.5 89v193q0 58 35.5 89t103.5 31q18 0 30 -3v-47q-16 2 -29 2q-88 0 -88 -72v-193q0 -72 88 -72
q44 0 76 10v471h-286v46h1058v-46z" />
    <glyph glyph-name="dvKx_PHA" horiz-adv-x="1014" 
d="M115 11q36 0 36 -36q0 -37 -36 -37t-36 37q0 36 36 36zM700 179v421h-172v-354q0 -77 97 -77q40 0 75 10zM316 600v-127q33 10 80 10q50 0 80 -16v133h-160zM1036 600h-285v-112q37 12 79 12q66 0 101 -32.5t35 -87.5v-195q0 -55 -32 -87t-93 -32h-7.5h-7.5l-3 1v48
q51 -1 71 17.5t20 53.5v193q0 35 -19 53.5t-67 18.5q-19 0 -38 -2.5t-29 -5.5l-10 -3v-440h-51v132q-38 -11 -77 -11q-72 0 -109.5 32.5t-37.5 91.5v117q0 37 -16.5 55t-63.5 18q-49 0 -80 -9v-426h-52v81q-48 -10 -77 -10q-68 0 -103.5 31t-35.5 89v193q0 58 35.5 89
t103.5 31q18 0 30 -3v-47q-16 2 -29 2q-88 0 -88 -72v-193q0 -72 88 -72q44 0 76 10v471h-286v46h1058v-46z" />
    <glyph glyph-name="dvKx_PHxA" horiz-adv-x="1014" 
d="M117 11q36 0 36 -36q0 -37 -36 -37t-36 37q0 36 36 36zM488 51q37 0 37 -36t-37 -36q-36 0 -36 36t36 36zM700 179v421h-172v-354q0 -77 97 -77q40 0 75 10zM316 600v-127q33 10 80 10q50 0 80 -16v133h-160zM1036 600h-285v-112q37 12 79 12q66 0 101 -32.5t35 -87.5
v-195q0 -55 -32 -87t-93 -32h-7.5h-7.5l-3 1v48q51 -1 71 17.5t20 53.5v193q0 35 -19 53.5t-67 18.5q-19 0 -38 -2.5t-29 -5.5l-10 -3v-440h-51v132q-38 -11 -77 -11q-72 0 -109.5 32.5t-37.5 91.5v117q0 37 -16.5 55t-63.5 18q-49 0 -80 -9v-426h-52v81q-48 -10 -77 -10
q-68 0 -103.5 31t-35.5 89v193q0 58 35.5 89t103.5 31q18 0 30 -3v-47q-16 2 -29 2q-88 0 -88 -72v-193q0 -72 88 -72q44 0 76 10v471h-286v46h1058v-46z" />
    <glyph glyph-name="dvKx_BA" horiz-adv-x="837" 
d="M120 11q36 0 36 -36q0 -37 -36 -37t-36 37q0 36 36 36zM525 343v-146q0 -77 99 -77q54 0 87 13v66zM711 249v195q-35 14 -87 14q-91 0 -98 -65zM316 600v-106q33 10 79 10q78 0 108 -40q36 41 120 41q53 0 88 -14v109h-395zM858 646v-46h-98v-600h-49v86q-35 -14 -88 -14
q-72 0 -111 32.5t-39 92.5v186q0 37 -16 55t-63 18t-78 -9v-447h-52v81q-48 -10 -77 -10q-68 0 -103.5 31t-35.5 89v193q0 58 35.5 89t103.5 31q18 0 30 -3v-47q-16 2 -29 2q-88 0 -88 -72v-193q0 -72 88 -72q44 0 76 10v471h-286v46h880z" />
    <glyph glyph-name="dvK_MA" horiz-adv-x="1000" 
d="M871 428v172h-137v-172h137zM682 428v172h-366v-106q33 10 79 10q115 0 128 -91q30 15 81 15h78zM682 178v204h-78q-47 0 -63 -16.5t-16 -51.5v-136q0 -35 16 -51.5t63 -16.5t62.5 16t15.5 52zM1022 646v-46h-99v-600h-52v382h-137v-204q0 -59 -31 -87.5t-99 -28.5
q-69 0 -100 28.5t-31 87.5v205q0 37 -16 55t-63 18t-78 -9v-447h-52v81q-48 -10 -77 -10q-68 0 -103.5 31t-35.5 89v193q0 58 35.5 89t103.5 31q18 0 30 -3v-47q-16 2 -29 2q-88 0 -88 -72v-193q0 -72 88 -72q44 0 76 10v471h-286v46h1044z" />
    <glyph glyph-name="dvKx_MA" horiz-adv-x="1000" 
d="M120 11q36 0 36 -36q0 -37 -36 -37t-36 37q0 36 36 36zM871 428v172h-137v-172h137zM682 428v172h-366v-106q33 10 79 10q115 0 127 -92q29 16 82 16h78zM682 178v204h-78q-47 0 -63 -16.5t-16 -51.5v-136q0 -35 16 -51.5t63 -16.5t62.5 16t15.5 52zM1022 646v-46h-99
v-600h-52v382h-137v-204q0 -59 -31 -87.5t-99 -28.5q-69 0 -100 28.5t-31 87.5v205q0 37 -16 55t-63 18t-78 -9v-447h-52v81q-48 -10 -77 -10q-68 0 -103.5 31t-35.5 89v193q0 58 35.5 89t103.5 31q18 0 30 -3v-47q-16 2 -29 2q-88 0 -88 -72v-193q0 -72 88 -72q44 0 76 10
v471h-286v46h1044z" />
    <glyph glyph-name="dvK_YA" horiz-adv-x="909" 
d="M780 145v455h-130q8 -24 8 -73v-73q0 -117 -132 -117v-81q0 -63 33.5 -92.5t106.5 -29.5q59 0 114 11zM316 600v-107q29 10 79 10q72 0 100.5 -31t28.5 -89q46 2 64 18t18 55v71q0 20 -2 38.5t-4 26.5l-2 8h-282zM931 646v-46h-98v-600h-53v97q-55 -12 -115 -12
q-191 0 -191 169v104h-1v24q0 37 -16 55t-63 18t-78 -9v-446h-52v81q-48 -10 -77 -10q-68 0 -103.5 31t-35.5 89v193q0 58 35.5 89t103.5 31q18 0 30 -3v-47q-16 2 -29 2q-88 0 -88 -72v-193q0 -72 88 -72q44 0 76 10v471h-286v46h953z" />
    <glyph glyph-name="dvK_LA" horiz-adv-x="1033" 
d="M904 462v138h-588v-106q33 10 79 10q91 0 117 -55q34 28 95 28q76 0 107 -44q33 44 112 44q40 0 78 -15zM1055 646v-46h-99v-600h-52v414q-33 15 -77 15q-86 0 -86 -74v-149h-52v149q0 74 -82 74q-46 0 -63.5 -20t-17.5 -57v-203q0 -49 23 -75.5t84 -26.5q25 0 57 5v-47
q-27 -5 -58 -5q-159 0 -159 149v203v6v25q0 37 -16 55t-63 18t-78 -9v-447h-52v81q-48 -10 -77 -10q-68 0 -103.5 31t-35.5 89v193q0 58 35.5 89t103.5 31q18 0 30 -3v-47q-16 2 -29 2q-88 0 -88 -72v-193q0 -72 88 -72q44 0 76 10v471h-286v46h1077z" />
    <glyph glyph-name="dvK_VA" horiz-adv-x="847" 
d="M718 492v108h-402v-106q33 10 79 10q79 0 109 -41q37 42 117 42q65 0 97 -13zM718 134v310q-29 13 -95 13q-97 0 -97 -80v-177q0 -80 97 -80q63 0 95 14zM869 646v-46h-99v-600h-52v86q-35 -14 -97 -14q-72 0 -109.5 33.5t-37.5 94.5v183q0 37 -16.5 55t-63.5 18t-78 -9
v-447h-52v81q-48 -10 -77 -10q-68 0 -103.5 31t-35.5 89v193q0 58 35.5 89t103.5 31q18 0 30 -3v-47q-16 2 -29 2q-88 0 -88 -72v-193q0 -72 88 -72q44 0 76 10v471h-286v46h891z" />
    <glyph glyph-name="dvK_V_YA" horiz-adv-x="1156" 
d="M1027 145v455h-130q7 -24 7 -73v-73q0 -117 -132 -117v-81q0 -63 33.5 -92.5t106.5 -29.5q58 0 115 11zM720 194v188h20q65 0 89 15t24 59v71q0 20 -2 38.5t-4 26.5l-2 8h-529v-106q33 10 79 10q86 0 114 -49q37 31 109 31q21 0 33 -3v-47q-12 2 -32 2q-94 0 -94 -73
v-171q0 -36 21.5 -55t73.5 -19q100 0 100 74zM1178 646v-46h-99v-600h-52v97q-58 -12 -116 -12q-109 0 -156 55q-28 -68 -135 -68q-147 0 -147 121v190q0 37 -16 55t-63 18t-78 -9v-447h-52v81q-48 -10 -77 -10q-68 0 -103.5 31t-35.5 89v193q0 58 35.5 89t103.5 31
q18 0 30 -3v-47q-16 2 -29 2q-88 0 -88 -72v-193q0 -72 88 -72q44 0 76 10v471h-286v46h1200z" />
    <glyph glyph-name="dvK_SHA" horiz-adv-x="997" 
d="M529 491h-53q-3 19 -3 35q0 59 36 92t107 33q72 0 107.5 -33t35.5 -92v-145q0 -59 -35.5 -92t-105.5 -33q-50 0 -92 16v-134q0 -46 31.5 -70t87.5 -24q53 0 113 17v-49q-53 -16 -115 -16q-76 0 -123 37t-47 104v213q0 37 -16 55t-63 18t-78 -9v-414h-52v81
q-48 -10 -77 -10q-68 0 -103.5 31t-35.5 89v193q0 58 35.5 89t103.5 31q18 0 30 -3v-47q-16 2 -29 2q-88 0 -88 -72v-193q0 -72 88 -72q44 0 76 10v471h-286v46h437v-46h-99v-139q29 10 79 10q72 0 101.5 -31t29.5 -90v-30q44 -16 90 -16q91 0 91 77v145q0 76 -91 76
q-90 0 -90 -77zM868 646h150v-46h-98v-600h-52v646z" />
    <glyph glyph-name="dvK_SS_MA" horiz-adv-x="979" 
d="M850 428v172h-136v-172h136zM662 178v204h-79q-47 0 -63 -16.5t-16 -51.5v-136q0 -35 16 -51.5t63 -16.5t63 16.5t16 51.5zM290 459v72q0 36 -15.5 54t-60.5 18q-44 0 -59.5 -18.5t-15.5 -53.5v-72q0 -36 15.5 -54.5t59.5 -18.5q45 0 60.5 18.5t15.5 54.5zM411 646h590
v-46h-99v-600h-52v382h-136v-204q0 -59 -31 -87.5t-100 -28.5q-68 0 -99 28.5t-31 87.5v136q0 10 2 26h-254q-45 0 -61 -18.5t-16 -54.5v-96q0 -72 82 -72q42 0 71 9v121h49v-229h-49v60q-34 -9 -73 -9q-132 0 -132 121v96q0 77 59 99q-44 23 -44 93v71q0 120 127 120
t127 -120v-71q0 -51 -22 -74h152q30 42 112 42h79v172h-251v46z" />
    <glyph glyph-name="dvK_SS_M_YA" horiz-adv-x="1281" 
d="M1152 145v455h-130q8 -24 8 -73v-73q0 -117 -133 -117v-81q0 -63 34 -92.5t106 -29.5q58 0 115 11zM710 428h83q75 0 95 -46q51 2 70.5 18t19.5 56v71q0 20 -2 38.5t-4 26.5l-2 8h-260v-172zM658 178v204h-78q-47 0 -63 -16.5t-16 -51.5v-136q0 -35 16 -51.5t63 -16.5
t62.5 16t15.5 52zM290 459v72q0 36 -15.5 54t-60.5 18q-44 0 -59.5 -18.5t-15.5 -53.5v-72q0 -36 15.5 -54.5t59.5 -18.5q45 0 60.5 18.5t15.5 54.5zM1303 646v-46h-99v-600h-52v97q-58 -12 -115 -12q-192 0 -192 169v74q0 34 -13 44t-49 10h-73v-204q0 -59 -31 -87.5
t-99 -28.5q-69 0 -100 28.5t-31 87.5v136q0 10 2 26h-250q-45 0 -61 -18.5t-16 -54.5v-96q0 -72 82 -72q42 0 71 9v121h49v-229h-49v60q-34 -9 -73 -9q-132 0 -132 121v96q0 77 59 99q-44 23 -44 93v71q0 120 127 120t127 -120v-71q0 -51 -22 -74h148q30 42 113 42h78v172
h-251v46h896z" />
    <glyph glyph-name="dvK_SS_YA" horiz-adv-x="912" 
d="M783 145v455h-131q8 -24 8 -73v-70q0 -117 -132 -117v-84q0 -63 33.5 -92.5t106.5 -29.5q58 0 115 11zM290 459v72q0 36 -15.5 54t-60.5 18q-44 0 -59.5 -18.5t-15.5 -53.5v-72q0 -36 15.5 -54.5t59.5 -18.5q45 0 60.5 18.5t15.5 54.5zM402 646h532v-46h-99v-600h-52v97
q-58 -12 -116 -12q-191 0 -191 169v86h-275q-45 0 -61 -18.5t-16 -54.5v-96q0 -72 82 -72q42 0 71 9v121h49v-229h-49v60q-34 -9 -73 -9q-132 0 -132 121v96q0 77 59 99q-44 23 -44 93v71q0 120 127 120t127 -120v-71q0 -51 -22 -74h181v-1q62 0 85 15t23 59v68
q0 20 -2 38.5t-4 26.5l-2 8h-198v46z" />
    <glyph glyph-name="dvK_SS_VA" horiz-adv-x="840" 
d="M712 134v310q-32 13 -96 13q-50 0 -73.5 -22t-23.5 -58v-177q0 -80 98 -80q60 0 95 14zM290 459v72q0 36 -15.5 54t-60.5 18q-44 0 -59.5 -18.5t-15.5 -53.5v-72q0 -36 15.5 -54.5t59.5 -18.5q45 0 60.5 18.5t15.5 54.5zM402 646h460v-46h-99v-600h-52v86
q-31 -14 -96 -14q-73 0 -110.5 33.5t-37.5 94.5v140h-266q-45 0 -61 -18.5t-16 -54.5v-96q0 -72 82 -72q42 0 71 9v121h49v-229h-49v60q-34 -9 -73 -9q-132 0 -132 121v96q0 77 59 99q-44 23 -44 93v71q0 120 127 120t127 -120v-71q0 -51 -22 -74h148q3 55 41 87t107 32
q67 0 96 -13v108h-309v46z" />
    <glyph glyph-name="dvK_SA" horiz-adv-x="1005" 
d="M875 340v260h-143q8 -24 8 -73v-144q0 -23 -6 -43h141zM526 383v-67q35 -10 71 -10q91 0 91 77v144q0 20 -2 38.5t-4 26.5l-2 8h-364v-106q33 10 79 10q72 0 101.5 -31.5t29.5 -89.5zM1026 646v-46h-98v-600h-53v294h-167q-36 -36 -109 -36q-36 0 -73 10v-132
q0 -93 115 -93q45 0 123 17v-49q-64 -16 -125 -16q-77 0 -121.5 35.5t-44.5 105.5v247q0 37 -16 55t-63 18t-78 -9v-447h-52v81q-48 -10 -77 -10q-68 0 -103.5 31t-35.5 89v193q0 58 35.5 89t103.5 31q18 0 30 -3v-47q-16 2 -29 2q-88 0 -88 -72v-193q0 -72 88 -72
q44 0 76 10v471h-286v46h1048z" />
    <glyph glyph-name="dvK_S_TTA" horiz-adv-x="1210" 
d="M881 340v42q0 121 144 121h65v97h-358q8 -24 8 -73v-144q0 -23 -6 -43h147zM526 383v-67q35 -10 71 -10q91 0 91 77v144q0 20 -2 38.5t-4 26.5l-2 8h-364v-106q33 10 79 10q72 0 101.5 -31.5t29.5 -89.5zM1142 455h-116q-93 0 -93 -74v-248q0 -89 111 -89q57 0 116 18
v-49q-53 -17 -117 -17q-75 0 -118.5 36t-43.5 101v161h-173q-36 -36 -109 -36q-36 0 -73 10v-132q0 -93 115 -93q45 0 123 17v-49q-64 -16 -125 -16q-77 0 -121.5 35.5t-44.5 105.5v247q0 37 -16 55t-63 18t-78 -9v-447h-52v81q-48 -10 -77 -10q-68 0 -103.5 31t-35.5 89
v193q0 58 35.5 89t103.5 31q18 0 30 -3v-47q-16 2 -29 2q-88 0 -88 -72v-193q0 -72 88 -72q44 0 76 10v471h-286v46h1254v-46h-90v-145z" />
    <glyph glyph-name="dvK_S_DDA" horiz-adv-x="1231" 
d="M876 348v40q0 117 143 117h79v95h-366q8 -24 8 -73v-144q0 -23 -6 -43h142v8zM526 383v-67q35 -10 71 -10q91 0 91 77v144q0 20 -2 38.5t-4 26.5l-2 8h-364v-106q33 10 79 10q72 0 101.5 -31.5t29.5 -89.5zM1150 457h-131q-50 0 -70 -17.5t-20 -52.5v-38q0 -35 20 -53
t70 -18h17q143 0 143 -119v-40q0 -124 -163 -124q-73 0 -135 14v51q59 -17 135 -17q111 0 111 76v40q0 35 -20 53t-71 18h-17q-104 0 -133 64h-178q-36 -36 -109 -36q-36 0 -73 10v-132q0 -93 115 -93q45 0 123 17v-49q-64 -16 -125 -16q-77 0 -121.5 35.5t-44.5 105.5v247
q0 37 -16 55t-63 18t-78 -9v-447h-52v81q-48 -10 -77 -10q-68 0 -103.5 31t-35.5 89v193q0 58 35.5 89t103.5 31q18 0 30 -3v-47q-16 2 -29 2q-88 0 -88 -72v-193q0 -72 88 -72q44 0 76 10v471h-286v46h1275v-46h-103v-143z" />
    <glyph glyph-name="dvK_S_TA" horiz-adv-x="1253" 
d="M1123 490v110h-391q8 -24 8 -73v-144q0 -23 -6 -43h144v38q0 60 38 93t110 33q47 0 97 -14zM526 383v-67q35 -10 71 -10q91 0 91 77v144q0 20 -2 38.5t-4 26.5l-2 8h-364v-106q33 10 79 10q72 0 101.5 -31.5t29.5 -89.5zM1274 646v-46h-98v-600h-53v442q-54 14 -96 14
q-96 0 -96 -78v-259q0 -36 20 -54t71 -17v-49h-19q-62 0 -93.5 31.5t-31.5 87.5v176h-170q-36 -36 -109 -36q-36 0 -73 10v-132q0 -93 115 -93q45 0 123 17v-49q-64 -16 -125 -16q-77 0 -121.5 35.5t-44.5 105.5v247q0 37 -16 55t-63 18t-78 -9v-447h-52v81q-48 -10 -77 -10
q-68 0 -103.5 31t-35.5 89v193q0 58 35.5 89t103.5 31q18 0 30 -3v-47q-16 2 -29 2q-88 0 -88 -72v-193q0 -72 88 -72q44 0 76 10v471h-286v46h1296z" />
    <glyph glyph-name="dvK_S_P_RA" horiz-adv-x="1247" 
d="M932 600v-275q0 -76 97 -76q52 0 88 14v337h-185zM880 600h-148q8 -24 8 -73v-144q0 -18 -3 -33h143v250zM688 383v144q0 20 -2 38.5t-4 26.5l-2 8h-364v-106q33 10 79 10q72 0 101.5 -31.5t29.5 -89.5v-67q35 -10 71 -10q91 0 91 77zM1268 646v-46h-98v-600h-53v215
l-202 -215h-68l188 201h-8q-64 0 -101.5 27t-44.5 76h-164q-36 -46 -118 -46q-36 0 -73 10v-132q0 -93 115 -93q45 0 123 17v-49q-64 -16 -125 -16q-77 0 -121.5 35.5t-44.5 105.5v247q0 37 -16 55t-63 18t-78 -9v-447h-52v81q-48 -10 -77 -10q-68 0 -103.5 31t-35.5 89v193
q0 58 35.5 89t103.5 31q18 0 30 -3v-47q-16 2 -29 2q-88 0 -88 -72v-193q0 -72 88 -72q44 0 76 10v471h-286v46h1290z" />
    <glyph glyph-name="dvK_S_P_LA" horiz-adv-x="1671" 
d="M1542 462v138h-610v-346q0 -76 97 -76q43 0 82 11v163q0 59 33.5 92t100.5 33q76 0 107 -44q33 44 112 44q40 0 78 -15zM737 350h142v250h-147q8 -24 8 -73v-144q0 -18 -3 -33zM688 383v144q0 20 -2 38.5t-4 26.5l-2 8h-364v-106q33 10 79 10q72 0 101.5 -31.5
t29.5 -89.5v-67q35 -10 71 -10q91 0 91 77zM1693 646v-46h-99v-600h-52v414q-33 15 -77 15q-86 0 -86 -74v-149h-52v149q0 74 -82 74q-46 0 -63.5 -20t-17.5 -57v-203q0 -49 23 -75.5t84 -26.5q25 0 57 5v-47q-27 -5 -58 -5q-154 0 -159 141q-42 -11 -84 -11
q-72 0 -110 32.5t-38 91.5v50h-162q-36 -46 -118 -46q-36 0 -73 10v-132q0 -93 115 -93q45 0 123 17v-49q-64 -16 -125 -16q-77 0 -121.5 35.5t-44.5 105.5v247q0 37 -16 55t-63 18t-78 -9v-447h-52v81q-48 -10 -77 -10q-68 0 -103.5 31t-35.5 89v193q0 58 35.5 89t103.5 31
q18 0 30 -3v-47q-16 2 -29 2q-88 0 -88 -72v-193q0 -72 88 -72q44 0 76 10v471h-286v46h1715z" />
    <glyph glyph-name="dvKH_KHA" horiz-adv-x="1262" 
d="M1133 189v257q-41 9 -81 9q-48 0 -65.5 -18t-17.5 -54v-132q0 -36 17.5 -54t65.5 -18q56 0 81 10zM427 383v-132q0 -36 17.5 -54t64.5 -18q48 0 65 18t17 54v132q0 36 -17 54t-65 18q-47 0 -64.5 -18t-17.5 -54zM1284 646v-46h-99v-600h-52v141q-40 -10 -82 -10
q-133 0 -133 120v132q0 120 132 120q36 0 83 -9v106h-289q13 -24 13 -73v-122q0 -141 -143 -141q-40 0 -71 7v-97q0 -129 174 -129q77 0 141 17v-51q-73 -15 -141 -15q-207 0 -224 150q-31 -15 -84 -15q-70 0 -101.5 28t-31.5 92v132q0 120 133 120q134 0 134 -120v-64
q44 -7 70 -7q50 0 71 23.5t21 70.5v121q0 20 -3 38.5t-6 26.5l-3 8h-491q12 -24 12 -73v-122q0 -141 -143 -141q-38 0 -71 7v-97q0 -129 175 -129q77 0 141 17v-51q-73 -15 -141 -15q-226 0 -226 178v267h51v-122q44 -7 70 -7q50 0 71.5 24t21.5 70v121q0 20 -3.5 38.5
t-6.5 26.5l-3 8h-272v46h1306z" />
    <glyph glyph-name="dvKH_TA" horiz-adv-x="965" 
d="M427 383v-132q0 -36 17.5 -54t64.5 -18q48 0 65 18t17 54v132q0 36 -17 54t-65 18q-47 0 -64.5 -18t-17.5 -54zM986 646v-46h-98v-600h-53v442q-54 14 -96 14q-97 0 -97 -78v-259q0 -36 20.5 -54t71.5 -17v-49h-19q-62 0 -93 31.5t-31 87.5v28q-31 -15 -82 -15
q-70 0 -101.5 28t-31.5 92v132q0 120 133 120q78 0 110 -41q37 42 118 42q48 0 98 -14v110h-533q12 -24 12 -73v-122q0 -141 -143 -141q-38 0 -71 7v-97q0 -129 175 -129q77 0 141 17v-51q-73 -15 -141 -15q-226 0 -226 178v267h51v-122q44 -7 70 -7q50 0 71.5 24t21.5 70
v121q0 20 -3.5 38.5t-6.5 26.5l-3 8h-272v46h1008z" />
    <glyph glyph-name="dvKHx_TA" horiz-adv-x="965" 
d="M33 -27q36 0 36 -37q0 -36 -36 -36t-36 36q0 37 36 37zM427 383v-132q0 -36 17.5 -54t64.5 -18q48 0 65 18t17 54v132q0 36 -17 54t-65 18q-47 0 -64.5 -18t-17.5 -54zM986 646v-46h-98v-600h-53v442q-54 14 -96 14q-97 0 -97 -78v-259q0 -36 20.5 -54t71.5 -17v-49h-19
q-62 0 -93 31.5t-31 87.5v28q-31 -15 -82 -15q-70 0 -101.5 28t-31.5 92v132q0 120 133 120q78 0 110 -41q37 42 118 42q48 0 98 -14v110h-533q12 -24 12 -73v-122q0 -141 -143 -141q-38 0 -71 7v-97q0 -129 175 -129q77 0 141 17v-51q-73 -15 -141 -15q-226 0 -226 178v267
h51v-122q44 -7 70 -7q50 0 71.5 24t21.5 70v121q0 20 -3.5 38.5t-6.5 26.5l-3 8h-272v46h1008z" />
    <glyph glyph-name="dvKH_NA" horiz-adv-x="1109" 
d="M792 178v178q0 21 -3 39t-6 26.5t-4 8.5h-62q-42 0 -58.5 -16.5t-16.5 -50.5v-185q0 -34 17 -51t58 -17q42 0 58.5 17t16.5 51zM427 383v-132q0 -36 17.5 -54t64.5 -18q41 0 59.5 13.5t21.5 40.5v130q0 13 1 19v1q0 36 -17 54t-65 18q-47 0 -64.5 -18t-17.5 -54z
M1130 646v-46h-99v-600h-52v430h-148q12 -25 12 -73v-179q0 -116 -126 -116q-109 0 -124 85q-31 -16 -84 -16q-70 0 -101.5 28t-31.5 92v132q0 120 133 120q88 0 117 -51q31 25 91 25h262v123h-677q12 -24 12 -73v-122q0 -141 -143 -141q-38 0 -71 7v-97q0 -129 175 -129
q77 0 141 17v-51q-73 -15 -141 -15q-226 0 -226 178v267h51v-122q44 -7 70 -7q50 0 71.5 24t21.5 70v121q0 20 -3.5 38.5t-6.5 26.5l-3 8h-272v46h1152z" />
    <glyph glyph-name="dvKH_MA" horiz-adv-x="1117" 
d="M988 428v172h-137v-172h137zM800 178v204h-79q-47 0 -63 -16.5t-16 -51.5v-136q0 -35 16 -51.5t63 -16.5t63 16.5t16 51.5zM427 383v-132q0 -36 17.5 -54t64.5 -18q48 0 65 18t17 54v132q0 36 -17 54t-65 18q-47 0 -64.5 -18t-17.5 -54zM1139 646v-46h-99v-600h-52v382
h-137v-204q0 -59 -31 -87.5t-99 -28.5q-113 0 -128 85q-29 -16 -84 -16q-70 0 -101.5 28t-31.5 92v132q0 120 133 120q115 0 131 -90q30 15 81 15h79v172h-498q12 -24 12 -73v-122q0 -141 -143 -141q-38 0 -71 7v-97q0 -129 175 -129q77 0 141 17v-51q-73 -15 -141 -15
q-226 0 -226 178v267h51v-122q44 -7 70 -7q50 0 71.5 24t21.5 70v121q0 20 -3.5 38.5t-6.5 26.5l-3 8h-272v46h1161z" />
    <glyph glyph-name="dvKHx_MA" horiz-adv-x="1118" 
d="M33 -27q37 0 37 -37q0 -36 -37 -36q-36 0 -36 36q0 37 36 37zM989 428v172h-137v-172h137zM800 178v204h-78q-47 0 -63 -16.5t-16 -51.5v-136q0 -35 16 -51.5t63 -16.5t62.5 16t15.5 52zM427 383v-132q0 -36 17.5 -54t64.5 -18q48 0 65 18t17 54v132q0 36 -17 54t-65 18
q-47 0 -64.5 -18t-17.5 -54zM1140 646v-46h-99v-600h-52v382h-137v-204q0 -59 -31 -87.5t-99 -28.5q-114 0 -129 85q-29 -16 -84 -16q-70 0 -101.5 28t-31.5 92v132q0 120 133 120q116 0 131 -91q29 16 82 16h78v172h-498q12 -24 12 -73v-122q0 -141 -143 -141q-38 0 -71 7
v-97q0 -129 175 -129q77 0 141 17v-51q-73 -15 -141 -15q-226 0 -226 178v267h51v-122q44 -7 70 -7q50 0 71.5 24t21.5 70v121q0 20 -3.5 38.5t-6.5 26.5l-3 8h-272v46h1162z" />
    <glyph glyph-name="dvKH_YA" horiz-adv-x="1027" 
d="M897 145v455h-130q8 -24 8 -73v-73q0 -117 -132 -117v-81q0 -63 33.5 -92.5t106.5 -29.5q59 0 114 11zM591 251v132q0 36 -17 54t-65 18q-47 0 -64.5 -18t-17.5 -54v-132q0 -36 17.5 -54t64.5 -18q48 0 65 18t17 54zM1048 646v-46h-98v-600h-53v97q-55 -12 -115 -12
q-128 0 -171 76q-31 -30 -102 -30q-70 0 -101.5 28t-31.5 92v132q0 120 133 120q132 0 132 -120q46 2 64 18t18 55v71q0 20 -2 38.5t-4 26.5l-2 8h-413q12 -24 12 -73v-122q0 -141 -143 -141q-38 0 -71 7v-97q0 -129 175 -129q77 0 141 17v-51q-73 -15 -141 -15
q-226 0 -226 178v267h51v-122q44 -7 70 -7q50 0 71.5 24t21.5 70v121q0 20 -3.5 38.5t-6.5 26.5l-3 8h-272v46h1070z" />
    <glyph glyph-name="dvKHx_YA" horiz-adv-x="1028" 
d="M33 -27q37 0 37 -37q0 -36 -37 -36q-36 0 -36 36q0 37 36 37zM899 145v455h-131q8 -24 8 -73v-73q0 -117 -132 -117v-81q0 -63 33.5 -92.5t106.5 -29.5q58 0 115 11zM591 251v132q0 36 -17 54t-65 18q-47 0 -64.5 -18t-17.5 -54v-132q0 -36 17.5 -54t64.5 -18q48 0 65 18
t17 54zM1049 646v-46h-98v-600h-52v97q-58 -12 -116 -12q-130 0 -171 77q-31 -31 -103 -31q-70 0 -101.5 28t-31.5 92v132q0 120 133 120q132 0 132 -120q47 2 65 18t18 55v71q0 20 -2 38.5t-4 26.5l-2 8h-414q12 -24 12 -73v-122q0 -141 -143 -141q-38 0 -71 7v-97
q0 -129 175 -129q77 0 141 17v-51q-73 -15 -141 -15q-226 0 -226 178v267h51v-122q44 -7 70 -7q50 0 71.5 24t21.5 70v121q0 20 -3.5 38.5t-6.5 26.5l-3 8h-272v46h1071z" />
    <glyph glyph-name="dvKH_VA" horiz-adv-x="964" 
d="M835 134v310q-29 13 -95 13q-97 0 -97 -80v-177q0 -80 97 -80q64 0 95 14zM427 383v-132q0 -36 17.5 -54t64.5 -18q48 0 65 18t17 54v132q0 36 -17 54t-65 18q-47 0 -64.5 -18t-17.5 -54zM986 646v-46h-99v-600h-52v86q-35 -14 -97 -14q-112 0 -140 79q-30 -20 -89 -20
q-70 0 -101.5 28t-31.5 92v132q0 120 133 120q77 0 110 -42q38 44 119 44q64 0 97 -13v108h-533q12 -24 12 -73v-122q0 -141 -143 -141q-38 0 -71 7v-97q0 -129 175 -129q77 0 141 17v-51q-73 -15 -141 -15q-226 0 -226 178v267h51v-122q44 -7 70 -7q50 0 71.5 24t21.5 70
v121q0 20 -3.5 38.5t-6.5 26.5l-3 8h-272v46h1008z" />
    <glyph glyph-name="dvKHx_VA" horiz-adv-x="965" 
d="M33 -27q37 0 37 -37q0 -36 -37 -36q-36 0 -36 36q0 37 36 37zM836 134v310q-29 13 -95 13q-97 0 -97 -80v-177q0 -80 97 -80q64 0 95 14zM591 251v132q0 36 -17 54t-65 18q-47 0 -64.5 -18t-17.5 -54v-132q0 -36 17.5 -54t64.5 -18q48 0 65 18t17 54zM987 646v-46h-99
v-600h-52v86q-35 -14 -97 -14q-113 0 -140 80q-31 -21 -90 -21q-70 0 -101.5 28t-31.5 92v132q0 120 133 120q79 0 110 -43q39 45 120 45q65 0 97 -13v108h-534q12 -24 12 -73v-122q0 -141 -143 -141q-38 0 -71 7v-97q0 -129 175 -129q77 0 141 17v-51q-73 -15 -141 -15
q-226 0 -226 178v267h51v-122q44 -7 70 -7q50 0 71.5 24t21.5 70v121q0 20 -3.5 38.5t-6.5 26.5l-3 8h-272v46h1009z" />
    <glyph glyph-name="dvKH_SHA" horiz-adv-x="1114" 
d="M100 271v-97q0 -129 175 -129q77 0 141 17v-51q-73 -15 -141 -15q-226 0 -226 178v267h51v-122q44 -7 70 -7q50 0 71.5 24t21.5 70v121q0 20 -3.5 38.5t-6.5 26.5l-3 8h-272v46h561v-46h-237q12 -24 12 -73v-122q0 -141 -143 -141q-38 0 -71 7zM427 342v-91
q0 -36 17.5 -54t64.5 -18q48 0 65 18t17 54v91q0 36 -17 54t-65 18q-47 0 -64.5 -18t-17.5 -54zM645 490h-52l-1 6q0 6 -1 14.5t-1 15.5q0 59 36 92t107 33t107 -33t36 -92v-144q0 -59 -35.5 -91.5t-106.5 -32.5q-49 0 -91 15v-135q0 -46 31 -70t87 -24q55 0 114 17v-49
q-55 -16 -115 -16q-76 0 -122.5 37t-46.5 104v9q-31 -15 -82 -15q-70 0 -101.5 28t-31.5 92v91q0 120 133 120t133 -120v-24q53 -12 91 -12q91 0 91 77v143q0 76 -91 76q-50 0 -70 -20t-20 -57zM984 646h151v-46h-98v-600h-53v646z" />
    <glyph glyph-name="dvKHx_SHA" horiz-adv-x="1114" 
d="M33 -27q37 0 37 -37q0 -36 -37 -36q-36 0 -36 36q0 37 36 37zM100 271v-97q0 -129 175 -129q77 0 141 17v-51q-73 -15 -141 -15q-226 0 -226 178v267h51v-122q44 -7 70 -7q50 0 71.5 24t21.5 70v121q0 20 -3.5 38.5t-6.5 26.5l-3 8h-272v46h548v-46h-224q12 -24 12 -73
v-122q0 -141 -143 -141q-38 0 -71 7zM427 353v-102q0 -36 17.5 -54t64.5 -18q48 0 65 18t17 54v102q0 36 -17 54t-65 18q-47 0 -64.5 -18t-17.5 -54zM645 490h-52l-1 6q0 6 -1 14.5t-1 15.5q0 59 36 92t107 33t107 -33t36 -92v-144q0 -59 -35.5 -91.5t-106.5 -32.5
q-50 0 -91 12v-132q0 -46 31 -70t87 -24q55 0 114 17v-49q-55 -16 -115 -16q-76 0 -122.5 37t-46.5 104v9q-31 -15 -82 -15q-70 0 -101.5 28t-31.5 92v102q0 120 133 120t133 -120v-36q57 -11 91 -11q91 0 91 77v143q0 76 -91 76q-50 0 -70 -20t-20 -57zM984 646h151v-46
h-98v-600h-53v646z" />
    <glyph glyph-name="dvKHx_SA" horiz-adv-x="1121" 
d="M33 -27q37 0 37 -37q0 -36 -37 -36q-36 0 -36 36q0 37 36 37zM992 340v260h-143q7 -24 7 -73v-144q0 -21 -5 -43h141zM427 383v-132q0 -36 17.5 -54t64.5 -18q48 0 65 18t17 54v132q0 36 -17 54t-65 18q-47 0 -64.5 -18t-17.5 -54zM1143 646v-46h-99v-600h-52v294h-168
q-36 -36 -109 -36q-36 0 -73 10v-132q0 -93 115 -93q48 0 123 17v-49q-61 -16 -125 -16q-76 0 -120 35.5t-44 105.5v10q-31 -15 -82 -15q-70 0 -101.5 28t-31.5 92v132q0 120 133 120t133 -120v-67q35 -10 72 -10q90 0 90 77v144q0 20 -2 38.5t-4 26.5l-2 8h-494
q12 -24 12 -73v-122q0 -141 -143 -141q-38 0 -71 7v-97q0 -129 175 -129q77 0 141 17v-51q-73 -15 -141 -15q-226 0 -226 178v267h51v-122q44 -7 70 -7q50 0 71.5 24t21.5 70v121q0 20 -3.5 38.5t-6.5 26.5l-3 8h-272v46h1165z" />
    <glyph glyph-name="dvG_GA" horiz-adv-x="709" 
d="M731 646v-46h-99v-600h-52v600h-163v-283q0 -54 -30 -87.5t-90 -33.5q-21 0 -33 3v48q16 -2 28 -2q73 0 73 72v283h-180v-283q0 -54 -30 -87.5t-90 -33.5q-21 0 -33 3v48q16 -2 28 -2q73 0 73 72v283h-155v46h753z" />
    <glyph glyph-name="dvG_GHA" horiz-adv-x="752" 
d="M623 126v474h-227q-8 -27 -8 -73v-75q0 -36 18 -53.5t69 -18.5h33v-48h-34q-52 0 -72 -18.5t-20 -54.5v-49q0 -53 32.5 -75.5t96.5 -22.5q62 0 112 14zM774 646v-46h-99v-600h-52v79q-60 -15 -114 -15q-83 0 -131.5 35t-48.5 110v51q0 79 63 95q-57 20 -57 97v75
q0 22 2 40t4 25l2 8h-158v-283q0 -54 -30 -87.5t-90 -33.5q-21 0 -33 3v48q16 -2 28 -2q73 0 73 72v283h-155v46h796z" />
    <glyph glyph-name="dvG_JA" horiz-adv-x="794" 
d="M816 646v-46h-99v-600h-52v434h-152q8 -25 8 -73v-190q0 -62 -37.5 -95.5t-110.5 -33.5q-54 0 -93 11v50q46 -13 93 -13q95 0 95 82v188q0 20 -2 38.5t-4 26.5l-2 8h-112v47h317v120h-480v-283q0 -54 -30 -87.5t-90 -33.5q-21 0 -33 3v48q16 -2 28 -2q73 0 73 72v283
h-155v46h838z" />
    <glyph glyph-name="dvG_NNA" horiz-adv-x="869" 
d="M545 247v353h-172v-353q0 -37 18 -57t68 -20q49 0 67.5 20t18.5 57zM890 646v-46h-98v-600h-52v600h-143v-353q0 -126 -138 -126q-139 0 -139 126v353h-135v-283q0 -54 -30 -87.5t-90 -33.5q-21 0 -33 3v48q16 -2 28 -2q73 0 73 72v283h-155v46h912z" />
    <glyph glyph-name="dvG_DA" horiz-adv-x="661" 
d="M583 455h-133q-51 0 -71 -18.5t-20 -53.5v-179q0 -80 102 -80q46 0 89 10v98h49v-241h-49v94q-42 -9 -91 -9q-72 0 -112 33.5t-40 94.5v179q0 120 143 120h81v97h-346v-283q0 -54 -30 -87.5t-90 -33.5q-21 0 -33 3v48q16 -2 28 -2q73 0 73 72v283h-155v46h704v-46h-99
v-145z" />
    <glyph glyph-name="dvG_DHA" horiz-adv-x="752" 
d="M623 646h151v-46h-99v-600h-52v78q-50 -15 -115 -15q-82 0 -130.5 35.5t-48.5 108.5v57q0 79 63 96q-57 20 -57 97v70q0 22 2.5 40t4.5 25l2 8h-159v-283q0 -54 -30 -87.5t-90 -33.5q-21 0 -33 3v48q16 -2 28 -2q73 0 73 72v283h-155v46h524v-46h-105q-9 -27 -9 -73v-70
q0 -36 18 -53.5t69 -18.5h33v-49h-34q-52 0 -72 -18.5t-20 -53.5v-56q0 -52 32.5 -74t94.5 -22q58 0 114 14v520z" />
    <glyph glyph-name="dvG_DH_YA" horiz-adv-x="1045" 
d="M916 145v455h-130q8 -24 8 -73v-73q0 -117 -132 -117v-81q0 -63 33.5 -92.5t106.5 -29.5q59 0 114 11zM594 646h473v-46h-98v-600h-53v97q-55 -12 -115 -12q-82 0 -129 31q-83 -29 -162 -29q-83 0 -132 35.5t-49 109.5v51q0 79 63 95q-57 21 -57 97v52q0 22 2.5 40
t4.5 25l2 8h-159v-283q0 -54 -30 -87.5t-90 -33.5q-21 0 -33 3v48q16 -2 28 -2q73 0 73 72v283h-155v46h495v-46h-76q-9 -27 -9 -73v-51q0 -36 18 -54t69 -19h33v-48h-34q-52 0 -72 -18.5t-20 -54.5v-50q0 -52 32.5 -74t95.5 -22q51 0 125 17q-25 39 -25 101v128h20
q65 0 88.5 15t23.5 59v71q0 20 -2 38.5t-4 26.5l-2 8h-140v46z" />
    <glyph glyph-name="dvG_DH_VA" horiz-adv-x="983" 
d="M854 134v310q-29 13 -95 13q-97 0 -97 -80v-177q0 -80 97 -80q64 0 95 14zM594 646h410v-46h-98v-600h-52v86q-35 -14 -97 -14q-74 0 -112 35q-78 -20 -136 -20q-82 0 -131 35.5t-49 108.5v52q0 79 63 95q-57 21 -57 97v52q0 22 2.5 40t4.5 25l2 8h-159v-283
q0 -54 -30 -87.5t-90 -33.5q-21 0 -33 3v48q16 -2 28 -2q73 0 73 72v283h-155v46h495v-46h-76q-9 -27 -9 -73v-51q0 -36 18 -54t69 -19h33v-48h-34q-52 0 -72 -18.5t-20 -54.5v-50q0 -52 32.5 -74t95.5 -22q51 0 108 13q-8 24 -8 51v178q0 59 38 93t109 34q65 0 97 -13v108
h-260v46z" />
    <glyph glyph-name="dvG_NA" horiz-adv-x="828" 
d="M511 178v178q0 21 -3 39t-6 26.5t-4 8.5h-62q-42 0 -58.5 -16.5t-16.5 -50.5v-185q0 -34 17 -51t58 -17q42 0 58.5 17t16.5 51zM849 646v-46h-99v-600h-52v430h-148q12 -25 12 -73v-179q0 -116 -126 -116q-127 0 -127 116v185q0 114 127 114h262v123h-513v-283
q0 -54 -30 -87.5t-90 -33.5q-21 0 -33 3v48q16 -2 28 -2q73 0 73 72v283h-155v46h871z" />
    <glyph glyph-name="dvG_N_YA" horiz-adv-x="1118" 
d="M989 145v455h-130q8 -24 8 -73v-73q0 -117 -133 -117v-81q0 -63 34 -92.5t106 -29.5q58 0 115 11zM502 178v169q0 21 -3 39t-6 26.5t-4 8.5h-62q-42 0 -58.5 -16.5t-16.5 -50.5v-176q0 -34 17 -51t58 -17q42 0 58.5 17t16.5 51zM1140 646v-46h-99v-600h-52v97
q-58 -12 -115 -12q-192 0 -192 169v117q0 50 -94 50h-47q12 -25 12 -73v-170q0 -116 -126 -116q-127 0 -127 116v176q0 114 127 114h167q131 0 138 -85q47 2 65 18t18 55v71q0 20 -2 38.5t-4 26.5l-2 8h-622v-283q0 -54 -30 -87.5t-90 -33.5q-21 0 -33 3v48q16 -2 28 -2
q73 0 73 72v283h-155v46h1162z" />
    <glyph glyph-name="dvG_BA" horiz-adv-x="673" 
d="M361 343v-146q0 -77 99 -77q54 0 87 13v66zM547 249v195q-35 14 -87 14q-91 0 -98 -65zM694 646v-46h-98v-600h-49v86q-35 -14 -88 -14q-72 0 -111 32.5t-39 92.5v184q0 60 38.5 92t111.5 32q53 0 88 -14v109h-362v-283q0 -54 -30 -87.5t-90 -33.5q-21 0 -33 3v48
q16 -2 28 -2q73 0 73 72v283h-155v46h716z" />
    <glyph glyph-name="dvG_BHA" horiz-adv-x="838" 
d="M185 600v-283q0 -54 -30 -87.5t-90 -33.5q-21 0 -33 3v48q16 -2 28 -2q73 0 73 72v283h-155v46h281v-46h-74zM519 178v166h-79q-47 0 -62.5 -16t-15.5 -52v-98q0 -36 15.5 -52t62.5 -16q48 0 63.5 16t15.5 52zM519 390v140q0 37 -15.5 54.5t-60.5 17.5q-44 0 -59.5 -18
t-15.5 -54l4 -54h-53q-4 30 -4 55q0 120 128 120t128 -120v-141h138v256h150v-46h-98v-600h-52v344h-138v-167q0 -58 -31 -86.5t-100 -28.5q-68 0 -99 28.5t-31 86.5v99q0 58 31 86t99 28h79z" />
    <glyph glyph-name="dvG_BH_YA" horiz-adv-x="1123" 
d="M-22 600v46h274v-46h-67v-283q0 -54 -30 -87.5t-90 -33.5q-21 0 -33 3v48q16 -2 28 -2q73 0 73 72v283h-155zM994 145v455h-131q8 -24 8 -73v-73q0 -117 -132 -117v-81q0 -63 33.5 -92.5t106.5 -29.5q58 0 115 11zM500 178v180h-79q-47 0 -63 -16.5t-16 -51.5v-112
q0 -35 16 -51.5t63 -16.5t63 16t16 52zM611 646h533v-46h-98v-600h-52v97q-58 -12 -116 -12q-191 0 -191 169v76q0 28 -45 28h-90v-181q0 -58 -31 -86.5t-100 -28.5q-68 0 -99 28.5t-31 86.5v113q0 58 31 86t99 28h79v126q0 37 -15.5 54.5t-60.5 17.5q-44 0 -60 -18t-16 -54
l5 -54h-52q-5 31 -5 55q0 120 128 120t128 -120v-127h96q51 0 68 -22q59 1 81 16t22 58v71q0 20 -2 38.5t-4 26.5l-2 8h-200v46z" />
    <glyph glyph-name="dvG_MA" horiz-adv-x="822" 
d="M693 428v172h-137v-172h137zM504 178v204h-78q-47 0 -63 -16.5t-16 -51.5v-136q0 -35 16 -51.5t63 -16.5t62.5 16t15.5 52zM844 646v-46h-99v-600h-52v382h-137v-204q0 -59 -31 -87.5t-99 -28.5q-69 0 -100 28.5t-31 87.5v136q0 59 31 86.5t100 27.5h78v172h-319v-283
q0 -54 -30 -87.5t-90 -33.5q-21 0 -33 3v48q16 -2 28 -2q73 0 73 72v283h-155v46h866z" />
    <glyph glyph-name="dvG_YA" horiz-adv-x="756" 
d="M626 145v455h-130q8 -24 8 -73v-73q0 -117 -132 -117v-81q0 -63 33.5 -92.5t106.5 -29.5q59 0 114 11zM777 646v-46h-98v-600h-53v97q-55 -12 -115 -12q-191 0 -191 169v128h20q65 0 88.5 15t23.5 59v71q0 20 -2 38.5t-4 26.5l-2 8h-259v-283q0 -54 -30 -87.5t-90 -33.5
q-21 0 -33 3v48q16 -2 28 -2q73 0 73 72v283h-155v46h799z" />
    <glyph glyph-name="dvG_R_YA" horiz-adv-x="756" 
d="M627 145v455h-131q8 -24 8 -73v-73q0 -117 -132 -117v-81q0 -63 33.5 -92.5t106.5 -29.5q58 0 115 11zM777 646v-46h-98v-600h-52v97q-58 -12 -116 -12q-151 0 -183 106q-17 -22 -74 -82l-105 -109h-69l240 249v5v128h20q65 0 88.5 15t23.5 59v71q0 20 -2 38.5t-4 26.5
l-2 8h-259v-280q0 -54 -30 -87.5t-90 -33.5q-21 0 -33 3v48q4 0 14.5 -1t13.5 -1q73 0 73 73v279h-155v46h799z" />
    <glyph glyph-name="dvG_LA" horiz-adv-x="874" 
d="M896 646v-46h-99v-600h-52v414q-33 15 -77 15q-86 0 -86 -74v-149h-52v149q0 74 -82 74q-46 0 -63.5 -20t-17.5 -57v-203q0 -49 23 -75.5t84 -26.5q25 0 57 5v-47q-27 -5 -58 -5q-159 0 -159 149v203q0 59 33.5 92t100.5 33q76 0 107 -44q33 44 112 44q41 0 78 -15v138
h-560v-283q0 -54 -30 -87.5t-90 -33.5q-21 0 -33 3v48q16 -2 28 -2q73 0 73 72v283h-155v46h918z" />
    <glyph glyph-name="dvG_VA" horiz-adv-x="683" 
d="M554 134v310q-29 13 -95 13q-97 0 -97 -80v-177q0 -80 97 -80q63 0 95 14zM705 646v-46h-99v-600h-52v86q-35 -14 -97 -14q-72 0 -109.5 33.5t-37.5 94.5v178q0 59 38 93t109 34q65 0 97 -13v108h-369v-283q0 -54 -30 -87.5t-90 -33.5q-21 0 -33 3v48q16 -2 28 -2
q73 0 73 72v283h-155v46h727z" />
    <glyph glyph-name="dvG_SA" horiz-adv-x="855" 
d="M726 340v260h-144q8 -24 8 -73v-144q0 -21 -5 -43h141zM876 646v-46h-98v-600h-52v294h-168q-36 -36 -109 -36q-36 0 -73 10v-132q0 -93 115 -93q48 0 123 17v-49q-61 -16 -125 -16q-76 0 -120.5 35.5t-44.5 105.5v314h52v-134q35 -10 72 -10q90 0 90 77v144
q0 20 -2 38.5t-4 26.5l-2 8h-345v-283q0 -54 -30 -87.5t-90 -33.5q-21 0 -33 3v48q16 -2 28 -2q73 0 73 72v283h-155v46h898z" />
    <glyph glyph-name="dvGH_NA" horiz-adv-x="865" 
d="M736 477v123h-602q-8 -27 -8 -73v-75q0 -36 18 -53.5t69 -18.5h33v-48h-34q-52 0 -72 -18.5t-20 -54.5v-49q0 -53 32.5 -75.5t96.5 -22.5q46 0 108 12q-10 21 -10 54v185q0 114 127 114h262zM549 178v178q0 21 -3 39t-6 26.5t-4 8.5h-62q-42 0 -58.5 -16.5t-16.5 -50.5
v-185q0 -34 17 -51t58 -17q42 0 58.5 17t16.5 51zM887 646v-46h-99v-600h-52v430h-148q12 -25 12 -73v-179q0 -116 -126 -116q-56 0 -85 22q-80 -20 -140 -20q-85 0 -133.5 35t-48.5 110v51q0 79 63 95q-57 20 -57 97v75q0 22 2 40t4 25l2 8h-103v46h909z" />
    <glyph glyph-name="dvGH_MA" horiz-adv-x="874" 
d="M745 428v172h-137v-172h137zM556 428v172h-422q-8 -27 -8 -73v-75q0 -36 18 -53.5t69 -18.5h33v-48h-34q-52 0 -72 -18.5t-20 -54.5v-49q0 -53 32.5 -75.5t96.5 -22.5q45 0 107 12q-9 22 -9 54v136q0 59 31 86.5t100 27.5h78zM556 178v204h-78q-47 0 -63 -16.5t-16 -51.5
v-136q0 -35 16 -51.5t63 -16.5t62.5 16t15.5 52zM896 646v-46h-99v-600h-52v382h-137v-204q0 -59 -31 -87.5t-99 -28.5q-61 0 -92 22q-83 -20 -137 -20q-85 0 -133.5 35t-48.5 110v51q0 79 63 95q-57 20 -57 97v75q0 22 2 40t4 25l2 8h-103v46h918z" />
    <glyph glyph-name="dvGH_YA" horiz-adv-x="783" 
d="M654 145v455h-130q8 -24 8 -73v-73q0 -117 -132 -117v-81q0 -63 33.5 -92.5t106.5 -29.5q59 0 114 11zM120 278v-40q0 -53 32.5 -76t96.5 -23q49 0 123 16q-24 38 -24 99v128h20q65 0 88.5 15t23.5 59v71q0 20 -2 38.5t-4 26.5l-2 8h-338q-8 -27 -8 -73v-56
q0 -36 18 -53.5t69 -18.5h33v-49h-34q-52 0 -72 -18.5t-20 -53.5zM805 646v-46h-98v-600h-53v97q-55 -12 -115 -12q-84 0 -131 32q-79 -25 -159 -25q-182 0 -182 144v42q0 79 63 96q-57 20 -57 97v56q0 22 2 40t4 25l2 8h-103v46h827z" />
    <glyph glyph-name="dvC_CA" horiz-adv-x="703" 
d="M724 646v-46h-98v-600h-52v78q-42 -15 -92 -15q-63 0 -99 25q-60 -25 -141 -25q-74 0 -111.5 33t-37.5 93v153q0 27 2.5 49.5t4.5 32.5l3 9h-91v47h225v-46h-82q-10 -32 -10 -92v-152q0 -42 23 -60.5t76 -18.5q57 0 107 15q-13 26 -13 63v153q0 27 2.5 50t5.5 32l2 10
h-51v46h219v-46h-115q-11 -32 -11 -92v-152q0 -40 21.5 -59.5t72.5 -19.5q46 0 90 15v474h-596v46h746z" />
    <glyph glyph-name="dvC_CHA" horiz-adv-x="775" 
d="M665 168v204q0 38 -15.5 56t-62.5 18q-13 0 -27 -2t-22 -4l-7 -2v47q27 9 62 9v106h-185q-10 -27 -10 -73v-132q0 -36 18 -53.5t69 -18.5h49v-48h-49q-51 0 -72 -18.5t-21 -54.5v-35q0 -55 28 -74.5t109 -19.5t108.5 20t27.5 75zM797 600h-156v-113q76 -17 76 -113v-206
q0 -78 -43 -110.5t-145 -32.5q-133 0 -170 59q-61 -21 -120 -21q-73 0 -109.5 33t-36.5 93v153q0 27 2.5 49.5t4.5 32.5l3 9h-91v47h259v-46h-116q-10 -32 -10 -92v-152q0 -40 22 -59.5t73 -19.5t103 16q-3 18 -3 39v37q0 79 62 95q-56 19 -56 97v132q0 22 2.5 40t5.5 25
l2 8h-378v46h819v-46z" />
    <glyph glyph-name="dvC_CH_VA" horiz-adv-x="775" 
d="M665 168v204q0 38 -16 56t-62 18q-14 0 -28 -2t-21 -4l-7 -2v47q27 9 62 9v106h-185q-10 -27 -10 -73v-132q0 -36 18 -53.5t69 -18.5h49v-48h-49q-52 0 -72.5 -18.5t-20.5 -54.5v-35q0 -55 27.5 -74.5t109.5 -19.5q81 0 108.5 20t27.5 75zM613 -146v178q-32 -7 -84 -7
h-16q-52 0 -73 -19t-21 -55v-36q0 -73 97 -73q56 0 97 12zM797 600h-156v-113q76 -17 76 -113v-206q0 -85 -53 -117v-308h-51v64q-37 -11 -98 -11q-147 0 -147 119v36q0 61 42 91q-35 15 -52 41q-65 -20 -119 -20q-73 0 -109.5 33t-36.5 93v153q0 27 2.5 49.5t4.5 32.5l3 9
h-91v47h259v-46h-116q-10 -32 -10 -92v-152q0 -40 22 -59.5t73 -19.5q50 0 102 15q-3 18 -3 40v37q0 79 63 95q-57 20 -57 97v132q0 22 2.5 40t4.5 25l3 8h-377v46h819v-46z" />
    <glyph glyph-name="dvC_NA" horiz-adv-x="847" 
d="M531 178v178q0 21 -3 39t-6 26.5t-4 8.5h-62q-42 0 -58.5 -16.5t-16.5 -50.5v-185q0 -34 17 -51t58 -17q42 0 58.5 17t16.5 51zM869 646v-46h-99v-600h-52v430h-148q12 -25 12 -73v-179q0 -116 -126 -116q-59 0 -90 25q-64 -24 -136 -24q-146 0 -146 126v153q0 27 2 49.5
t4 32.5l3 9h-90v47h259v-46h-116q-10 -32 -10 -92v-152q0 -40 22 -59.5t73 -19.5q47 0 107 15q-9 22 -9 52v185q0 114 127 114h262v123h-749v46h900z" />
    <glyph glyph-name="dvC_MA" horiz-adv-x="856" 
d="M727 428v172h-137v-172h137zM538 178v204h-78q-47 0 -63 -16.5t-16 -51.5v-136q0 -35 16 -51.5t63 -16.5t62.5 16t15.5 52zM878 646v-46h-99v-600h-52v382h-137v-204q0 -59 -31 -87.5t-99 -28.5q-62 0 -94 24q-60 -23 -127 -23q-73 0 -109.5 33t-36.5 93v153
q0 27 2.5 49.5t4.5 32.5l3 9h-91v47h259v-46h-116q-10 -32 -10 -92v-152q0 -40 22 -59.5t73 -19.5q46 0 97 14q-8 24 -8 53v136q0 59 31 86.5t100 27.5h78v172h-560v46h900z" />
    <glyph glyph-name="dvC_YA" horiz-adv-x="767" 
d="M637 145v455h-130q8 -24 8 -73v-73q0 -117 -132 -117v-81q0 -63 33.5 -92.5t106.5 -29.5q59 0 114 11zM788 646v-46h-98v-600h-53v97q-55 -12 -115 -12q-80 0 -126 29q-83 -32 -156 -32q-147 0 -147 126v134q0 27 2.5 49.5t4.5 32.5l3 9h-91v47h259v-46h-116
q-10 -32 -10 -92v-134q0 -39 22 -58.5t73 -19.5q54 0 118 20q-27 40 -27 104v128h20q65 0 88.5 15t23.5 59v71q0 20 -2 38.5t-4 26.5l-2 8h-477v46h810z" />
    <glyph glyph-name="dvCH_YA" horiz-adv-x="969" 
d="M840 141v459h-644q-38 0 -56.5 -17t-18.5 -57v-131q0 -36 18 -53.5t69 -18.5h50v-48h-49q-52 0 -73 -18.5t-21 -54.5v-35q0 -55 28 -74.5t109 -19.5q82 0 109.5 20t27.5 75v232q0 38 -16 56t-63 18q-14 0 -28 -3t-21 -5l-7 -3v49q3 1 9 2.5t22.5 4t31.5 2.5q59 0 89 -27
h184q128 0 128 -119v-8q0 -116 -133 -116v-2q0 -62 31 -91t103 -29q55 0 121 12zM991 646v-46h-99v-600h-52v92q-70 -11 -121 -11q-85 0 -135.5 37.5t-50.5 131.5v47h25q62 0 85 14t23 56v7q0 36 -16 54t-60 18h-155q6 -21 6 -44v-234q0 -78 -43 -110.5t-146 -32.5
q-102 0 -145.5 32.5t-43.5 108.5v37q0 79 63 95q-57 19 -57 97v132q0 57 31 73h-122v46h1013z" />
    <glyph glyph-name="dvCH_R_YA" horiz-adv-x="989" 
d="M860 141v459h-496v-105h246q128 0 128 -119v-10q0 -116 -133 -116v-1q0 -62 31 -91t103 -29q55 0 121 12zM388 168v204q0 38 -15.5 56t-62.5 18q-13 0 -27 -2t-21 -4l-8 -2v47q27 9 62 9v106h-185q-10 -27 -10 -73v-132q0 -36 18 -53.5t69 -18.5h49v-48h-49
q-51 0 -72 -18.5t-21 -54.5v-35q0 -55 28 -74.5t109 -19.5t108.5 20t27.5 75zM1011 646v-46h-99v-600h-52v92q-70 -11 -121 -11q-85 0 -135.5 37.5t-50.5 131.5v46h25q61 0 84.5 14.5t23.5 56.5v8q0 36 -16 53.5t-60 17.5h-186q16 -28 16 -72v-206q0 -67 -31 -100t-101 -40
l86 -158h-56l-82 155h-2l-82 -155h-56l86 157q-74 7 -106.5 40t-32.5 99v37q0 79 62 95q-56 19 -56 97v132q0 22 2.5 40t4.5 25l3 8h-101v46h1033z" />
    <glyph glyph-name="dvJ_KA" horiz-adv-x="922" 
d="M944 600h-279v-106q30 11 71 11q68 0 103 -31t35 -89v-189q0 -54 -29 -87t-90 -33q-16 0 -23 1v48q3 0 9.5 -0.5t9.5 -0.5q71 1 71 73v188q0 72 -88 72q-39 0 -69 -10v-447h-52v81q-47 -10 -77 -10q-68 0 -103.5 31t-35.5 89v193q0 26 8 50h-142q8 -25 8 -73v-190
q0 -62 -37.5 -95.5t-110.5 -33.5q-54 0 -93 11v50q45 -13 93 -13q95 0 95 82v188q0 20 -2 38.5t-4 26.5l-2 8h-112v47h343q35 24 95 24q18 0 30 -3v-47q-16 2 -29 2q-88 0 -88 -72v-193q0 -72 88 -72q44 0 76 10v471h-635v46h966v-46z" />
    <glyph glyph-name="dvJ_JA" horiz-adv-x="907" 
d="M928 646v-46h-98v-600h-52v434h-153q9 -25 9 -73v-190q0 -62 -37.5 -95.5t-110.5 -33.5q-54 0 -93 11v50q45 -13 93 -13q95 0 95 82v188q0 20 -2 38.5t-4 27.5l-2 8h-310q8 -25 8 -73v-190q0 -62 -37.5 -95.5t-110.5 -33.5q-54 0 -93 11v50q45 -13 93 -13q95 0 95 82v188
q0 20 -2 38.5t-4 26.5l-2 8h-112v47h680v120h-800v46h950z" />
    <glyph glyph-name="dvJx_JxA" horiz-adv-x="907" 
d="M27 1q37 0 37 -36t-37 -36q-36 0 -36 36t36 36zM391 1q36 0 36 -36t-36 -36t-36 36t36 36zM928 646v-46h-98v-600h-52v434h-153q9 -25 9 -73v-190q0 -62 -37.5 -95.5t-110.5 -33.5q-54 0 -93 11v50q45 -13 93 -13q95 0 95 82v188q0 20 -2 38.5t-4 27.5l-2 8h-310
q8 -25 8 -73v-190q0 -62 -37.5 -95.5t-110.5 -33.5q-54 0 -93 11v50q45 -13 93 -13q95 0 95 82v188q0 20 -2 38.5t-4 26.5l-2 8h-112v47h680v120h-800v46h950z" />
    <glyph glyph-name="dvJ_J_NYA" horiz-adv-x="964" 
d="M423 434h-160q8 -25 8 -73v-190q0 -62 -37.5 -95.5t-110.5 -33.5q-54 0 -93 11v50q45 -13 93 -13q95 0 95 82v188q0 20 -2 38.5t-4 26.5l-2 8h-112v47h325v-46zM985 646v-46h-98v-600h-53v434h-153q9 -38 9 -82v-134q0 -123 -131 -123q-41 0 -84 10v-105h-52v283h52v-130
q42 -9 82 -9q47 0 64 19t17 56v134q0 49 -10 81h-120v46h326v120h-856v46h1007z" />
    <glyph glyph-name="dvJ_J_YA" horiz-adv-x="1205" 
d="M1075 145v455h-130q8 -24 8 -73v-73q0 -117 -132 -117v-81q0 -63 33.5 -92.5t106.5 -29.5q59 0 114 11zM1226 646v-46h-98v-600h-53v97q-55 -12 -115 -12q-191 0 -191 169v120q0 37 -16 48.5t-67 11.5h-61q9 -25 9 -73v-190q0 -62 -37.5 -95.5t-110.5 -33.5q-54 0 -93 11
v50q45 -13 93 -13q95 0 95 82v188q0 20 -2 38.5t-4 27.5l-2 8h-310q8 -25 8 -73v-190q0 -62 -37.5 -95.5t-110.5 -33.5q-54 0 -93 11v50q45 -13 93 -13q95 0 95 82v188q0 20 -2 38.5t-4 26.5l-2 8h-112v47h593q64 0 94 -22.5t31 -74.5q48 2 66.5 17.5t18.5 55.5v71
q0 20 -2 38.5t-4 26.5l-2 8h-915v46h1248z" />
    <glyph glyph-name="dvJ_J_VA" horiz-adv-x="1133" 
d="M1004 134v310q-29 13 -95 13q-97 0 -97 -80v-177q0 -80 97 -80q63 0 95 14zM1155 646v-46h-99v-600h-52v86q-35 -14 -97 -14q-72 0 -109.5 33.5t-37.5 94.5v178q0 31 11 56h-146q9 -25 9 -73v-190q0 -62 -37.5 -95.5t-110.5 -33.5q-54 0 -93 11v50q45 -13 93 -13
q95 0 95 82v188q0 20 -2 38.5t-4 27.5l-2 8h-310q8 -25 8 -73v-190q0 -62 -37.5 -95.5t-110.5 -33.5q-54 0 -93 11v50q45 -13 93 -13q95 0 95 82v188q0 20 -2 38.5t-4 26.5l-2 8h-112v47h712q36 25 97 25q65 0 97 -13v108h-1026v46h1177z" />
    <glyph glyph-name="dvJ_JHA" horiz-adv-x="927" 
d="M797 310v290h-133v-143h-137q-51 0 -70.5 -17t-19.5 -52v-7q0 -35 19 -52.5t69 -18.5h272zM948 646v-46h-99v-600h-52v264h-157q31 -19 31 -73v-48q0 -60 -34.5 -90t-111.5 -30q-51 0 -88 9v-89h-49v212h49v-74q37 -10 86 -10q96 0 96 73v47q0 35 -19.5 53.5t-68.5 18.5
h-5q-141 0 -141 118v7q0 28 7 46h-129q8 -25 8 -73v-190q0 -62 -37.5 -95.5t-110.5 -33.5q-54 0 -93 11v50q45 -13 93 -13q95 0 95 82v188q0 20 -2 38.5t-4 26.5l-2 8h-112v47h328q34 25 101 25h85v95h-634v46h970z" />
    <glyph glyph-name="dvJ_NY_YA" horiz-adv-x="895" 
d="M766 251v349h-153q30 -16 30 -73v-54q0 -118 -132 -118v-99q0 -65 28 -93.5t99 -28.5q70 0 98 27.5t30 89.5zM917 646v-46h-99v-600h-52v129q-32 -44 -129 -44q-84 0 -131 37t-47 132v126q0 34 -18 44t-64 10h-62q9 -38 9 -82v-134q0 -123 -131 -123q-41 0 -84 10v-105
h-52v283h52v-130q42 -9 82 -9q47 0 64 19t17 56v134q0 49 -10 81h-120v46h240q122 0 124 -78q48 2 66.5 17.5t18.5 55.5v52q0 36 -17.5 54.5t-62.5 18.5h-533v46h939z" />
    <glyph glyph-name="dvJ_TTA" horiz-adv-x="737" 
d="M667 455h-116q-93 0 -93 -74v-248q0 -89 111 -89q57 0 116 18v-49q-53 -17 -117 -17q-75 0 -118.5 36t-43.5 101v249q0 30 9 52h-152q8 -25 8 -73v-190q0 -62 -37.5 -95.5t-110.5 -33.5q-54 0 -93 11v50q45 -13 93 -13q95 0 95 82v188q0 20 -2 38.5t-4 26.5l-2 8h-112v47
h355q35 23 97 23h65v97h-637v46h779v-46h-90v-145z" />
    </font>
</defs>
</svg>
